<?xml version="1.0" encoding="UTF-8" standalone="no"?>
<!DOCTYPE svg PUBLIC "-//W3C//DTD SVG 1.1//EN"
 "http://www.w3.org/Graphics/SVG/1.1/DTD/svg11.dtd">
<!-- Generated by graphviz version 2.40.1 (20161225.0304)
 -->
<!-- Title: G Pages: 1 -->
<svg width="304pt" height="88pt"
 viewBox="0.00 0.00 304.29 87.90" xmlns="http://www.w3.org/2000/svg" xmlns:xlink="http://www.w3.org/1999/xlink">
<g id="graph0" class="graph" transform="scale(1 1) rotate(0) translate(4 83.8973)">
<title>G</title>
<polygon fill="#ffffff" stroke="transparent" points="-4,4 -4,-83.8973 300.2919,-83.8973 300.2919,4 -4,4"/>
<!-- start -->
<g id="node1" class="node">
<title>start</title>
<text text-anchor="middle" x="27" y="-18.3486" font-family="Times,serif" font-size="14.00" fill="#000000">start</text>
</g>
<!-- t1 -->
<g id="node2" class="node">
<title>t1</title>
<ellipse fill="none" stroke="#000000" cx="109.5486" cy="-22.5486" rx="18.5974" ry="18.5974"/>
<text text-anchor="middle" x="109.5486" y="-18.3486" font-family="Times,serif" font-size="14.00" fill="#000000">t1</text>
</g>
<!-- start&#45;&gt;t1 -->
<g id="edge1" class="edge">
<title>start&#45;&gt;t1</title>
<path fill="none" stroke="#000000" d="M54.0295,-22.5486C62.5873,-22.5486 72.0763,-22.5486 80.7532,-22.5486"/>
<polygon fill="#000000" stroke="#000000" points="80.8171,-26.0487 90.8171,-22.5486 80.817,-19.0487 80.8171,-26.0487"/>
</g>
<!-- t1&#45;&gt;t1 -->
<g id="edge2" class="edge">
<title>t1&#45;&gt;t1</title>
<path fill="none" stroke="#000000" d="M103.1216,-40.2239C101.9219,-50.0494 104.0643,-59.0973 109.5486,-59.0973 112.9764,-59.0973 115.0986,-55.5629 115.9154,-50.5134"/>
<polygon fill="#000000" stroke="#000000" points="119.4169,-50.2442 115.9756,-40.2239 112.4171,-50.2032 119.4169,-50.2442"/>
<text text-anchor="middle" x="109.5486" y="-63.2973" font-family="Times,serif" font-size="14.00" fill="#000000">a</text>
</g>
<!-- t2 -->
<g id="node3" class="node">
<title>t2</title>
<ellipse fill="none" stroke="#000000" cx="189.6459" cy="-22.5486" rx="18.5974" ry="18.5974"/>
<text text-anchor="middle" x="189.6459" y="-18.3486" font-family="Times,serif" font-size="14.00" fill="#000000">t2</text>
</g>
<!-- t1&#45;&gt;t2 -->
<g id="edge3" class="edge">
<title>t1&#45;&gt;t2</title>
<path fill="none" stroke="#000000" d="M128.1259,-22.5486C137.7615,-22.5486 149.7515,-22.5486 160.5803,-22.5486"/>
<polygon fill="#000000" stroke="#000000" points="160.892,-26.0487 170.892,-22.5486 160.8919,-19.0487 160.892,-26.0487"/>
<text text-anchor="middle" x="149.5973" y="-26.7486" font-family="Times,serif" font-size="14.00" fill="#000000">b</text>
</g>
<!-- t2&#45;&gt;t2 -->
<g id="edge4" class="edge">
<title>t2&#45;&gt;t2</title>
<path fill="none" stroke="#000000" d="M182.5579,-39.8456C181.1114,-49.8159 183.4741,-59.0973 189.6459,-59.0973 193.5998,-59.0973 195.9904,-55.2882 196.8176,-49.9291"/>
<polygon fill="#000000" stroke="#000000" points="200.3169,-49.8162 196.7339,-39.8456 193.3171,-49.8743 200.3169,-49.8162"/>
<text text-anchor="middle" x="189.6459" y="-63.2973" font-family="Times,serif" font-size="14.00" fill="#000000">a</text>
</g>
<!-- t3 -->
<g id="node4" class="node">
<title>t3</title>
<ellipse fill="none" stroke="#000000" cx="273.7432" cy="-22.5486" rx="18.5887" ry="18.5887"/>
<ellipse fill="none" stroke="#000000" cx="273.7432" cy="-22.5486" rx="22.5974" ry="22.5974"/>
<text text-anchor="middle" x="273.7432" y="-18.3486" font-family="Times,serif" font-size="14.00" fill="#000000">t3</text>
</g>
<!-- t2&#45;&gt;t3 -->
<g id="edge5" class="edge">
<title>t2&#45;&gt;t3</title>
<path fill="none" stroke="#000000" d="M208.3099,-22.5486C217.8442,-22.5486 229.7306,-22.5486 240.7467,-22.5486"/>
<polygon fill="#000000" stroke="#000000" points="240.9368,-26.0487 250.9368,-22.5486 240.9367,-19.0487 240.9368,-26.0487"/>
<text text-anchor="middle" x="229.6946" y="-26.7486" font-family="Times,serif" font-size="14.00" fill="#000000">b</text>
</g>
<!-- t3&#45;&gt;t3 -->
<g id="edge6" class="edge">
<title>t3&#45;&gt;t3</title>
<path fill="none" stroke="#000000" d="M265.6946,-43.8273C264.701,-54.0623 267.3839,-63.0973 273.7432,-63.0973 277.8172,-63.0973 280.3823,-59.3893 281.4386,-54.0333"/>
<polygon fill="#000000" stroke="#000000" points="284.9438,-53.9424 281.7918,-43.8273 277.948,-53.7002 284.9438,-53.9424"/>
<text text-anchor="middle" x="273.7432" y="-67.2973" font-family="Times,serif" font-size="14.00" fill="#000000">a, b</text>
</g>
</g>
</svg>
