<?xml version="1.0" encoding="UTF-8" standalone="no"?>
<!DOCTYPE svg PUBLIC "-//W3C//DTD SVG 1.1//EN"
 "http://www.w3.org/Graphics/SVG/1.1/DTD/svg11.dtd">
<!-- Generated by graphviz version 2.40.1 (20161225.0304)
 -->
<!-- Title: G Pages: 1 -->
<svg width="232pt" height="92pt"
 viewBox="0.00 0.00 231.99 92.19" xmlns="http://www.w3.org/2000/svg" xmlns:xlink="http://www.w3.org/1999/xlink">
<g id="graph0" class="graph" transform="scale(1 1) rotate(0) translate(4 88.1869)">
<title>G</title>
<polygon fill="#ffffff" stroke="transparent" points="-4,4 -4,-88.1869 227.9884,-88.1869 227.9884,4 -4,4"/>
<!-- start -->
<g id="node1" class="node">
<title>start</title>
<text text-anchor="middle" x="27" y="-20.4935" font-family="Times,serif" font-size="14.00" fill="#000000">start</text>
</g>
<!-- q1 -->
<g id="node2" class="node">
<title>q1</title>
<ellipse fill="none" stroke="#000000" cx="111.6935" cy="-24.6935" rx="20.8887" ry="20.8887"/>
<text text-anchor="middle" x="111.6935" y="-20.4935" font-family="Times,serif" font-size="14.00" fill="#000000">q1</text>
</g>
<!-- start&#45;&gt;q1 -->
<g id="edge1" class="edge">
<title>start&#45;&gt;q1</title>
<path fill="none" stroke="#000000" d="M54.2637,-24.6935C62.7209,-24.6935 72.1012,-24.6935 80.7873,-24.6935"/>
<polygon fill="#000000" stroke="#000000" points="80.9294,-28.1936 90.9294,-24.6935 80.9293,-21.1936 80.9294,-28.1936"/>
</g>
<!-- q1&#45;&gt;q1 -->
<g id="edge3" class="edge">
<title>q1&#45;&gt;q1</title>
<path fill="none" stroke="#000000" d="M104.7789,-44.602C103.8222,-54.5307 106.127,-63.3869 111.6935,-63.3869 115.1725,-63.3869 117.3774,-59.9274 118.3083,-54.9089"/>
<polygon fill="#000000" stroke="#000000" points="121.8158,-54.6995 118.608,-44.602 114.8187,-54.496 121.8158,-54.6995"/>
<text text-anchor="middle" x="111.6935" y="-67.5869" font-family="Times,serif" font-size="14.00" fill="#000000">a, b</text>
</g>
<!-- q2 -->
<g id="node3" class="node">
<title>q2</title>
<ellipse fill="none" stroke="#000000" cx="199.295" cy="-24.6935" rx="20.8568" ry="20.8568"/>
<ellipse fill="none" stroke="#000000" cx="199.295" cy="-24.6935" rx="24.8884" ry="24.8884"/>
<text text-anchor="middle" x="199.295" y="-20.4935" font-family="Times,serif" font-size="14.00" fill="#000000">q2</text>
</g>
<!-- q1&#45;&gt;q2 -->
<g id="edge2" class="edge">
<title>q1&#45;&gt;q2</title>
<path fill="none" stroke="#000000" d="M132.4538,-24.6935C141.9626,-24.6935 153.4967,-24.6935 164.288,-24.6935"/>
<polygon fill="#000000" stroke="#000000" points="164.3165,-28.1936 174.3164,-24.6935 164.3164,-21.1936 164.3165,-28.1936"/>
<text text-anchor="middle" x="153.4942" y="-28.8935" font-family="Times,serif" font-size="14.00" fill="#000000">c</text>
</g>
<!-- q2&#45;&gt;q2 -->
<g id="edge4" class="edge">
<title>q2&#45;&gt;q2</title>
<path fill="none" stroke="#000000" d="M191.1437,-48.4015C190.4763,-58.6297 193.1934,-67.3869 199.295,-67.3869 203.2038,-67.3869 205.7236,-63.7929 206.8544,-58.5207"/>
<polygon fill="#000000" stroke="#000000" points="210.3563,-58.5888 207.4463,-48.4015 203.3683,-58.1801 210.3563,-58.5888"/>
<text text-anchor="middle" x="199.295" y="-71.5869" font-family="Times,serif" font-size="14.00" fill="#000000">a, b</text>
</g>
</g>
</svg>
