<?xml version="1.0" encoding="UTF-8" standalone="no"?>
<!DOCTYPE svg PUBLIC "-//W3C//DTD SVG 1.1//EN"
 "http://www.w3.org/Graphics/SVG/1.1/DTD/svg11.dtd">
<!-- Generated by graphviz version 2.40.1 (20161225.0304)
 -->
<!-- Title: G Pages: 1 -->
<svg width="577pt" height="255pt"
 viewBox="0.00 0.00 577.06 255.21" xmlns="http://www.w3.org/2000/svg" xmlns:xlink="http://www.w3.org/1999/xlink">
<g id="graph0" class="graph" transform="scale(1 1) rotate(0) translate(4 251.2112)">
<title>G</title>
<polygon fill="#ffffff" stroke="transparent" points="-4,4 -4,-251.2112 573.0559,-251.2112 573.0559,4 -4,4"/>
<!-- start -->
<g id="node1" class="node">
<title>start</title>
<text text-anchor="middle" x="27" y="-110.0056" font-family="Times,serif" font-size="14.00" fill="#000000">start</text>
</g>
<!-- q1t1 -->
<g id="node2" class="node">
<title>q1t1</title>
<ellipse fill="none" stroke="#000000" cx="119.2056" cy="-114.2056" rx="28.4127" ry="28.4127"/>
<text text-anchor="middle" x="119.2056" y="-110.0056" font-family="Times,serif" font-size="14.00" fill="#000000">q1t1</text>
</g>
<!-- start&#45;&gt;q1t1 -->
<g id="edge1" class="edge">
<title>start&#45;&gt;q1t1</title>
<path fill="none" stroke="#000000" d="M54.166,-114.2056C62.4895,-114.2056 71.8098,-114.2056 80.7372,-114.2056"/>
<polygon fill="#000000" stroke="#000000" points="80.9536,-117.7057 90.9535,-114.2056 80.9535,-110.7057 80.9536,-117.7057"/>
</g>
<!-- q1t2 -->
<g id="node3" class="node">
<title>q1t2</title>
<ellipse fill="none" stroke="#000000" cx="218.6168" cy="-151.2056" rx="28.4127" ry="28.4127"/>
<text text-anchor="middle" x="218.6168" y="-147.0056" font-family="Times,serif" font-size="14.00" fill="#000000">q1t2</text>
</g>
<!-- q1t1&#45;&gt;q1t2 -->
<g id="edge3" class="edge">
<title>q1t1&#45;&gt;q1t2</title>
<path fill="none" stroke="#000000" d="M145.846,-124.1209C157.1006,-128.3098 170.3824,-133.2532 182.4977,-137.7624"/>
<polygon fill="#000000" stroke="#000000" points="181.3101,-141.0549 191.9029,-141.2629 183.7518,-134.4945 181.3101,-141.0549"/>
<text text-anchor="middle" x="168.9112" y="-137.4056" font-family="Times,serif" font-size="14.00" fill="#000000">b</text>
</g>
<!-- q2t1 -->
<g id="node4" class="node">
<title>q2t1</title>
<ellipse fill="none" stroke="#000000" cx="218.6168" cy="-77.2056" rx="28.4127" ry="28.4127"/>
<text text-anchor="middle" x="218.6168" y="-73.0056" font-family="Times,serif" font-size="14.00" fill="#000000">q2t1</text>
</g>
<!-- q1t1&#45;&gt;q2t1 -->
<g id="edge2" class="edge">
<title>q1t1&#45;&gt;q2t1</title>
<path fill="none" stroke="#000000" d="M145.846,-104.2903C157.1006,-100.1014 170.3824,-95.158 182.4977,-90.6488"/>
<polygon fill="#000000" stroke="#000000" points="183.7518,-93.9167 191.9029,-87.1483 181.3101,-87.3563 183.7518,-93.9167"/>
<text text-anchor="middle" x="168.9112" y="-101.4056" font-family="Times,serif" font-size="14.00" fill="#000000">a</text>
</g>
<!-- q2t2 -->
<g id="node5" class="node">
<title>q2t2</title>
<ellipse fill="none" stroke="#000000" cx="322.0279" cy="-102.2056" rx="28.4127" ry="28.4127"/>
<text text-anchor="middle" x="322.0279" y="-98.0056" font-family="Times,serif" font-size="14.00" fill="#000000">q2t2</text>
</g>
<!-- q1t2&#45;&gt;q2t2 -->
<g id="edge4" class="edge">
<title>q1t2&#45;&gt;q2t2</title>
<path fill="none" stroke="#000000" d="M244.1791,-139.0932C257.1056,-132.9682 272.9906,-125.4413 287.033,-118.7875"/>
<polygon fill="#000000" stroke="#000000" points="288.8632,-121.7934 296.4013,-114.3484 285.8657,-115.4676 288.8632,-121.7934"/>
<text text-anchor="middle" x="268.3224" y="-131.4056" font-family="Times,serif" font-size="14.00" fill="#000000">a</text>
</g>
<!-- q1t3 -->
<g id="node8" class="node">
<title>q1t3</title>
<ellipse fill="none" stroke="#000000" cx="322.0279" cy="-180.2056" rx="28.3868" ry="28.3868"/>
<ellipse fill="none" stroke="#000000" cx="322.0279" cy="-180.2056" rx="32.4125" ry="32.4125"/>
<text text-anchor="middle" x="322.0279" y="-176.0056" font-family="Times,serif" font-size="14.00" fill="#000000">q1t3</text>
</g>
<!-- q1t2&#45;&gt;q1t3 -->
<g id="edge5" class="edge">
<title>q1t2&#45;&gt;q1t3</title>
<path fill="none" stroke="#000000" d="M245.7868,-158.825C256.5396,-161.8404 269.1354,-165.3727 280.9562,-168.6877"/>
<polygon fill="#000000" stroke="#000000" points="280.0723,-172.0748 290.6459,-171.405 281.9624,-165.3348 280.0723,-172.0748"/>
<text text-anchor="middle" x="268.3224" y="-169.4056" font-family="Times,serif" font-size="14.00" fill="#000000">b</text>
</g>
<!-- q2t1&#45;&gt;q2t2 -->
<g id="edge9" class="edge">
<title>q2t1&#45;&gt;q2t2</title>
<path fill="none" stroke="#000000" d="M246.0576,-83.8395C257.8612,-86.6931 271.8466,-90.0741 284.5805,-93.1525"/>
<polygon fill="#000000" stroke="#000000" points="283.9165,-96.5928 294.4589,-95.5407 285.5614,-89.7888 283.9165,-96.5928"/>
<text text-anchor="middle" x="268.3224" y="-94.4056" font-family="Times,serif" font-size="14.00" fill="#000000">b</text>
</g>
<!-- q3t1 -->
<g id="node6" class="node">
<title>q3t1</title>
<ellipse fill="none" stroke="#000000" cx="322.0279" cy="-28.2056" rx="28.4127" ry="28.4127"/>
<text text-anchor="middle" x="322.0279" y="-24.0056" font-family="Times,serif" font-size="14.00" fill="#000000">q3t1</text>
</g>
<!-- q2t1&#45;&gt;q3t1 -->
<g id="edge8" class="edge">
<title>q2t1&#45;&gt;q3t1</title>
<path fill="none" stroke="#000000" d="M244.1791,-65.0932C257.1056,-58.9682 272.9906,-51.4413 287.033,-44.7875"/>
<polygon fill="#000000" stroke="#000000" points="288.8632,-47.7934 296.4013,-40.3484 285.8657,-41.4676 288.8632,-47.7934"/>
<text text-anchor="middle" x="268.3224" y="-58.4056" font-family="Times,serif" font-size="14.00" fill="#000000">a</text>
</g>
<!-- q3t2 -->
<g id="node7" class="node">
<title>q3t2</title>
<ellipse fill="none" stroke="#000000" cx="429.4391" cy="-75.2056" rx="28.4127" ry="28.4127"/>
<text text-anchor="middle" x="429.4391" y="-71.0056" font-family="Times,serif" font-size="14.00" fill="#000000">q3t2</text>
</g>
<!-- q2t2&#45;&gt;q3t2 -->
<g id="edge10" class="edge">
<title>q2t2&#45;&gt;q3t2</title>
<path fill="none" stroke="#000000" d="M349.4102,-95.3225C362.3142,-92.0788 377.9117,-88.1581 391.8967,-84.6427"/>
<polygon fill="#000000" stroke="#000000" points="392.8883,-88.0023 401.7334,-82.17 391.1818,-81.2135 392.8883,-88.0023"/>
<text text-anchor="middle" x="375.7335" y="-94.4056" font-family="Times,serif" font-size="14.00" fill="#000000">a</text>
</g>
<!-- q2t3 -->
<g id="node9" class="node">
<title>q2t3</title>
<ellipse fill="none" stroke="#000000" cx="429.4391" cy="-153.2056" rx="28.3868" ry="28.3868"/>
<ellipse fill="none" stroke="#000000" cx="429.4391" cy="-153.2056" rx="32.4125" ry="32.4125"/>
<text text-anchor="middle" x="429.4391" y="-149.0056" font-family="Times,serif" font-size="14.00" fill="#000000">q2t3</text>
</g>
<!-- q2t2&#45;&gt;q2t3 -->
<g id="edge11" class="edge">
<title>q2t2&#45;&gt;q2t3</title>
<path fill="none" stroke="#000000" d="M347.7556,-114.4214C360.6872,-120.5614 376.6213,-128.1271 390.9726,-134.9412"/>
<polygon fill="#000000" stroke="#000000" points="389.5927,-138.1605 400.1274,-139.288 392.5952,-131.8371 389.5927,-138.1605"/>
<text text-anchor="middle" x="375.7335" y="-133.4056" font-family="Times,serif" font-size="14.00" fill="#000000">b</text>
</g>
<!-- q3t1&#45;&gt;q3t2 -->
<g id="edge14" class="edge">
<title>q3t1&#45;&gt;q3t2</title>
<path fill="none" stroke="#000000" d="M348.0292,-39.583C361.7805,-45.6002 378.8689,-53.0775 393.8339,-59.6258"/>
<polygon fill="#000000" stroke="#000000" points="392.7406,-62.9678 403.305,-63.7701 395.5468,-56.5548 392.7406,-62.9678"/>
<text text-anchor="middle" x="375.7335" y="-57.4056" font-family="Times,serif" font-size="14.00" fill="#000000">b</text>
</g>
<!-- q3t3 -->
<g id="node10" class="node">
<title>q3t3</title>
<ellipse fill="none" stroke="#000000" cx="536.8503" cy="-114.2056" rx="28.3868" ry="28.3868"/>
<ellipse fill="none" stroke="#000000" cx="536.8503" cy="-114.2056" rx="32.4125" ry="32.4125"/>
<text text-anchor="middle" x="536.8503" y="-110.0056" font-family="Times,serif" font-size="14.00" fill="#000000">q3t3</text>
</g>
<!-- q3t2&#45;&gt;q3t3 -->
<g id="edge15" class="edge">
<title>q3t2&#45;&gt;q3t3</title>
<path fill="none" stroke="#000000" d="M455.9902,-84.846C468.2879,-89.3112 483.1633,-94.7123 496.785,-99.6583"/>
<polygon fill="#000000" stroke="#000000" points="495.8332,-103.0362 506.4274,-103.1593 498.2223,-96.4565 495.8332,-103.0362"/>
<text text-anchor="middle" x="483.1447" y="-100.4056" font-family="Times,serif" font-size="14.00" fill="#000000">b</text>
</g>
<!-- q1t3&#45;&gt;q1t3 -->
<g id="edge7" class="edge">
<title>q1t3&#45;&gt;q1t3</title>
<path fill="none" stroke="#000000" d="M312.2803,-211.0923C312.1772,-221.7801 315.4264,-230.4112 322.0279,-230.4112 326.3602,-230.4112 329.2488,-226.6941 330.6936,-221.1179"/>
<polygon fill="#000000" stroke="#000000" points="334.1823,-221.4101 331.7756,-211.0923 327.2227,-220.659 334.1823,-221.4101"/>
<text text-anchor="middle" x="322.0279" y="-234.6112" font-family="Times,serif" font-size="14.00" fill="#000000">b</text>
</g>
<!-- q1t3&#45;&gt;q2t3 -->
<g id="edge6" class="edge">
<title>q1t3&#45;&gt;q2t3</title>
<path fill="none" stroke="#000000" d="M353.3845,-172.3235C364.2082,-169.6027 376.5059,-166.5114 388.0097,-163.6197"/>
<polygon fill="#000000" stroke="#000000" points="389.0127,-166.9766 397.8577,-161.1442 387.3061,-160.1878 389.0127,-166.9766"/>
<text text-anchor="middle" x="375.7335" y="-171.4056" font-family="Times,serif" font-size="14.00" fill="#000000">a</text>
</g>
<!-- q2t3&#45;&gt;q2t3 -->
<g id="edge13" class="edge">
<title>q2t3&#45;&gt;q2t3</title>
<path fill="none" stroke="#000000" d="M419.6915,-184.0923C419.5884,-194.7801 422.8376,-203.4112 429.4391,-203.4112 433.7714,-203.4112 436.6599,-199.6941 438.1047,-194.1179"/>
<polygon fill="#000000" stroke="#000000" points="441.5934,-194.4101 439.1867,-184.0923 434.6339,-193.659 441.5934,-194.4101"/>
<text text-anchor="middle" x="429.4391" y="-207.6112" font-family="Times,serif" font-size="14.00" fill="#000000">b</text>
</g>
<!-- q2t3&#45;&gt;q3t3 -->
<g id="edge12" class="edge">
<title>q2t3&#45;&gt;q3t3</title>
<path fill="none" stroke="#000000" d="M459.9316,-142.1341C471.3834,-137.976 484.579,-133.1848 496.7712,-128.7579"/>
<polygon fill="#000000" stroke="#000000" points="498.0766,-132.0076 506.2816,-125.3048 495.6875,-125.4279 498.0766,-132.0076"/>
<text text-anchor="middle" x="483.1447" y="-138.4056" font-family="Times,serif" font-size="14.00" fill="#000000">a</text>
</g>
<!-- q3t3&#45;&gt;q3t3 -->
<g id="edge16" class="edge">
<title>q3t3&#45;&gt;q3t3</title>
<path fill="none" stroke="#000000" d="M527.1027,-145.0923C526.9995,-155.7801 530.2487,-164.4112 536.8503,-164.4112 541.1826,-164.4112 544.0711,-160.6941 545.5159,-155.1179"/>
<polygon fill="#000000" stroke="#000000" points="549.0046,-155.4101 546.5979,-145.0923 542.045,-154.659 549.0046,-155.4101"/>
<text text-anchor="middle" x="536.8503" y="-168.6112" font-family="Times,serif" font-size="14.00" fill="#000000">b</text>
</g>
</g>
</svg>
