<?xml version="1.0" encoding="UTF-8" standalone="no"?>
<!DOCTYPE svg PUBLIC "-//W3C//DTD SVG 1.1//EN"
 "http://www.w3.org/Graphics/SVG/1.1/DTD/svg11.dtd">
<!-- Generated by graphviz version 2.40.1 (20161225.0304)
 -->
<!-- Title: G Pages: 1 -->
<svg width="332pt" height="92pt"
 viewBox="0.00 0.00 331.59 92.19" xmlns="http://www.w3.org/2000/svg" xmlns:xlink="http://www.w3.org/1999/xlink">
<g id="graph0" class="graph" transform="scale(1 1) rotate(0) translate(4 88.1869)">
<title>G</title>
<polygon fill="#ffffff" stroke="transparent" points="-4,4 -4,-88.1869 327.5899,-88.1869 327.5899,4 -4,4"/>
<!-- start -->
<g id="node1" class="node">
<title>start</title>
<text text-anchor="middle" x="27" y="-20.4935" font-family="Times,serif" font-size="14.00" fill="#000000">start</text>
</g>
<!-- q1 -->
<g id="node2" class="node">
<title>q1</title>
<ellipse fill="none" stroke="#000000" cx="115.6935" cy="-24.6935" rx="20.8568" ry="20.8568"/>
<ellipse fill="none" stroke="#000000" cx="115.6935" cy="-24.6935" rx="24.8884" ry="24.8884"/>
<text text-anchor="middle" x="115.6935" y="-20.4935" font-family="Times,serif" font-size="14.00" fill="#000000">q1</text>
</g>
<!-- start&#45;&gt;q1 -->
<g id="edge1" class="edge">
<title>start&#45;&gt;q1</title>
<path fill="none" stroke="#000000" d="M54.0929,-24.6935C62.5145,-24.6935 71.9196,-24.6935 80.7952,-24.6935"/>
<polygon fill="#000000" stroke="#000000" points="80.8805,-28.1936 90.8805,-24.6935 80.8805,-21.1936 80.8805,-28.1936"/>
</g>
<!-- q1&#45;&gt;q1 -->
<g id="edge2" class="edge">
<title>q1&#45;&gt;q1</title>
<path fill="none" stroke="#000000" d="M107.9127,-48.4015C107.2756,-58.6297 109.8692,-67.3869 115.6935,-67.3869 119.4246,-67.3869 121.8299,-63.7929 122.9093,-58.5207"/>
<polygon fill="#000000" stroke="#000000" points="126.4113,-58.5811 123.4742,-48.4015 119.4222,-58.1908 126.4113,-58.5811"/>
<text text-anchor="middle" x="115.6935" y="-71.5869" font-family="Times,serif" font-size="14.00" fill="#000000">b</text>
</g>
<!-- q2 -->
<g id="node3" class="node">
<title>q2</title>
<ellipse fill="none" stroke="#000000" cx="207.295" cy="-24.6935" rx="20.8568" ry="20.8568"/>
<ellipse fill="none" stroke="#000000" cx="207.295" cy="-24.6935" rx="24.8884" ry="24.8884"/>
<text text-anchor="middle" x="207.295" y="-20.4935" font-family="Times,serif" font-size="14.00" fill="#000000">q2</text>
</g>
<!-- q1&#45;&gt;q2 -->
<g id="edge3" class="edge">
<title>q1&#45;&gt;q2</title>
<path fill="none" stroke="#000000" d="M140.724,-24.6935C150.4178,-24.6935 161.6865,-24.6935 172.1659,-24.6935"/>
<polygon fill="#000000" stroke="#000000" points="172.2947,-28.1936 182.2947,-24.6935 172.2947,-21.1936 172.2947,-28.1936"/>
<text text-anchor="middle" x="161.4942" y="-28.8935" font-family="Times,serif" font-size="14.00" fill="#000000">a</text>
</g>
<!-- q2&#45;&gt;q2 -->
<g id="edge4" class="edge">
<title>q2&#45;&gt;q2</title>
<path fill="none" stroke="#000000" d="M199.1437,-48.4015C198.4763,-58.6297 201.1934,-67.3869 207.295,-67.3869 211.2038,-67.3869 213.7236,-63.7929 214.8544,-58.5207"/>
<polygon fill="#000000" stroke="#000000" points="218.3563,-58.5888 215.4463,-48.4015 211.3683,-58.1801 218.3563,-58.5888"/>
<text text-anchor="middle" x="207.295" y="-71.5869" font-family="Times,serif" font-size="14.00" fill="#000000">b</text>
</g>
<!-- q3 -->
<g id="node4" class="node">
<title>q3</title>
<ellipse fill="none" stroke="#000000" cx="298.8965" cy="-24.6935" rx="20.8568" ry="20.8568"/>
<ellipse fill="none" stroke="#000000" cx="298.8965" cy="-24.6935" rx="24.8884" ry="24.8884"/>
<text text-anchor="middle" x="298.8965" y="-20.4935" font-family="Times,serif" font-size="14.00" fill="#000000">q3</text>
</g>
<!-- q2&#45;&gt;q3 -->
<g id="edge5" class="edge">
<title>q2&#45;&gt;q3</title>
<path fill="none" stroke="#000000" d="M232.3255,-24.6935C242.0193,-24.6935 253.288,-24.6935 263.7674,-24.6935"/>
<polygon fill="#000000" stroke="#000000" points="263.8962,-28.1936 273.8962,-24.6935 263.8962,-21.1936 263.8962,-28.1936"/>
<text text-anchor="middle" x="253.0957" y="-28.8935" font-family="Times,serif" font-size="14.00" fill="#000000">a</text>
</g>
<!-- q3&#45;&gt;q3 -->
<g id="edge6" class="edge">
<title>q3&#45;&gt;q3</title>
<path fill="none" stroke="#000000" d="M290.7452,-48.4015C290.0778,-58.6297 292.7949,-67.3869 298.8965,-67.3869 302.8053,-67.3869 305.3251,-63.7929 306.456,-58.5207"/>
<polygon fill="#000000" stroke="#000000" points="309.9579,-58.5888 307.0478,-48.4015 302.9698,-58.1801 309.9579,-58.5888"/>
<text text-anchor="middle" x="298.8965" y="-71.5869" font-family="Times,serif" font-size="14.00" fill="#000000">a, b</text>
</g>
</g>
</svg>
