<?xml version="1.0" encoding="UTF-8" standalone="no"?>
<!DOCTYPE svg PUBLIC "-//W3C//DTD SVG 1.1//EN"
 "http://www.w3.org/Graphics/SVG/1.1/DTD/svg11.dtd">
<!-- Generated by graphviz version 2.40.1 (20161225.0304)
 -->
<!-- Title: G Pages: 1 -->
<svg width="746pt" height="102pt"
 viewBox="0.00 0.00 746.06 102.39" xmlns="http://www.w3.org/2000/svg" xmlns:xlink="http://www.w3.org/1999/xlink">
<g id="graph0" class="graph" transform="scale(1 1) rotate(0) translate(4 98.3869)">
<title>G</title>
<polygon fill="#ffffff" stroke="transparent" points="-4,4 -4,-98.3869 742.0602,-98.3869 742.0602,4 -4,4"/>
<!-- start -->
<g id="node1" class="node">
<title>start</title>
<text text-anchor="middle" x="27" y="-20.4935" font-family="Times,serif" font-size="14.00" fill="#000000">start</text>
</g>
<!-- q1 -->
<g id="node2" class="node">
<title>q1</title>
<ellipse fill="none" stroke="#000000" cx="111.6935" cy="-24.6935" rx="20.8887" ry="20.8887"/>
<text text-anchor="middle" x="111.6935" y="-20.4935" font-family="Times,serif" font-size="14.00" fill="#000000">q1</text>
</g>
<!-- start&#45;&gt;q1 -->
<g id="edge1" class="edge">
<title>start&#45;&gt;q1</title>
<path fill="none" stroke="#000000" d="M54.2637,-24.6935C62.7209,-24.6935 72.1012,-24.6935 80.7873,-24.6935"/>
<polygon fill="#000000" stroke="#000000" points="80.9294,-28.1936 90.9294,-24.6935 80.9293,-21.1936 80.9294,-28.1936"/>
</g>
<!-- q2 -->
<g id="node3" class="node">
<title>q2</title>
<ellipse fill="none" stroke="#000000" cx="195.295" cy="-73.6935" rx="20.8887" ry="20.8887"/>
<text text-anchor="middle" x="195.295" y="-69.4935" font-family="Times,serif" font-size="14.00" fill="#000000">q2</text>
</g>
<!-- q1&#45;&gt;q2 -->
<g id="edge2" class="edge">
<title>q1&#45;&gt;q2</title>
<path fill="none" stroke="#000000" d="M129.8337,-35.3257C141.1177,-41.9394 155.8315,-50.5634 168.4506,-57.9596"/>
<polygon fill="#000000" stroke="#000000" points="166.7929,-61.0449 177.1901,-63.0819 170.3326,-55.0057 166.7929,-61.0449"/>
<text text-anchor="middle" x="153.4942" y="-53.8935" font-family="Times,serif" font-size="14.00" fill="#000000">a</text>
</g>
<!-- q4 -->
<g id="node5" class="node">
<title>q4</title>
<ellipse fill="none" stroke="#000000" cx="368.7294" cy="-24.6935" rx="20.8887" ry="20.8887"/>
<text text-anchor="middle" x="368.7294" y="-20.4935" font-family="Times,serif" font-size="14.00" fill="#000000">q4</text>
</g>
<!-- q1&#45;&gt;q4 -->
<g id="edge5" class="edge">
<title>q1&#45;&gt;q4</title>
<path fill="none" stroke="#000000" d="M132.7278,-24.6935C177.9323,-24.6935 284.534,-24.6935 337.5976,-24.6935"/>
<polygon fill="#000000" stroke="#000000" points="337.7649,-28.1936 347.7649,-24.6935 337.7649,-21.1936 337.7649,-28.1936"/>
<text text-anchor="middle" x="239.8187" y="-28.8935" font-family="Times,serif" font-size="14.00" fill="#000000">位</text>
</g>
<!-- q3 -->
<g id="node4" class="node">
<title>q3</title>
<ellipse fill="none" stroke="#000000" cx="284.3425" cy="-73.6935" rx="20.8887" ry="20.8887"/>
<text text-anchor="middle" x="284.3425" y="-69.4935" font-family="Times,serif" font-size="14.00" fill="#000000">q3</text>
</g>
<!-- q2&#45;&gt;q3 -->
<g id="edge3" class="edge">
<title>q2&#45;&gt;q3</title>
<path fill="none" stroke="#000000" d="M216.398,-73.6935C227.3768,-73.6935 241.0117,-73.6935 253.1794,-73.6935"/>
<polygon fill="#000000" stroke="#000000" points="253.391,-77.1936 263.3909,-73.6935 253.3909,-70.1936 253.391,-77.1936"/>
<text text-anchor="middle" x="239.8187" y="-77.8935" font-family="Times,serif" font-size="14.00" fill="#000000">a</text>
</g>
<!-- q3&#45;&gt;q4 -->
<g id="edge4" class="edge">
<title>q3&#45;&gt;q4</title>
<path fill="none" stroke="#000000" d="M302.2388,-63.3018C313.6846,-56.6557 328.7491,-47.9084 341.6443,-40.4206"/>
<polygon fill="#000000" stroke="#000000" points="343.6776,-43.2873 350.568,-35.239 340.1626,-37.2338 343.6776,-43.2873"/>
<text text-anchor="middle" x="326.5359" y="-53.8935" font-family="Times,serif" font-size="14.00" fill="#000000">b</text>
</g>
<!-- q4&#45;&gt;q1 -->
<g id="edge6" class="edge">
<title>q4&#45;&gt;q1</title>
<path fill="none" stroke="#000000" d="M348.7442,-18.5918C322.526,-11.2827 275.0275,-.4284 233.9884,-3.8935 202.254,-6.5729 166.3761,-13.0971 141.7301,-18.1302"/>
<polygon fill="#000000" stroke="#000000" points="140.9748,-14.7124 131.9001,-20.1804 142.4041,-21.5649 140.9748,-14.7124"/>
<text text-anchor="middle" x="239.8187" y="-8.8935" font-family="Times,serif" font-size="14.00" fill="#000000">位</text>
</g>
<!-- q5 -->
<g id="node6" class="node">
<title>q5</title>
<ellipse fill="none" stroke="#000000" cx="453.1163" cy="-24.6935" rx="20.8887" ry="20.8887"/>
<text text-anchor="middle" x="453.1163" y="-20.4935" font-family="Times,serif" font-size="14.00" fill="#000000">q5</text>
</g>
<!-- q4&#45;&gt;q5 -->
<g id="edge7" class="edge">
<title>q4&#45;&gt;q5</title>
<path fill="none" stroke="#000000" d="M389.5891,-24.6935C399.3261,-24.6935 411.1202,-24.6935 421.8899,-24.6935"/>
<polygon fill="#000000" stroke="#000000" points="422.2041,-28.1935 432.2041,-24.6935 422.2041,-21.1935 422.2041,-28.1935"/>
<text text-anchor="middle" x="410.9228" y="-28.8935" font-family="Times,serif" font-size="14.00" fill="#000000">b</text>
</g>
<!-- q6 -->
<g id="node7" class="node">
<title>q6</title>
<ellipse fill="none" stroke="#000000" cx="536.7178" cy="-73.6935" rx="20.8887" ry="20.8887"/>
<text text-anchor="middle" x="536.7178" y="-69.4935" font-family="Times,serif" font-size="14.00" fill="#000000">q6</text>
</g>
<!-- q5&#45;&gt;q6 -->
<g id="edge8" class="edge">
<title>q5&#45;&gt;q6</title>
<path fill="none" stroke="#000000" d="M471.2566,-35.3257C482.5405,-41.9394 497.2543,-50.5634 509.8735,-57.9596"/>
<polygon fill="#000000" stroke="#000000" points="508.2157,-61.0449 518.6129,-63.0819 511.7554,-55.0057 508.2157,-61.0449"/>
<text text-anchor="middle" x="494.917" y="-53.8935" font-family="Times,serif" font-size="14.00" fill="#000000">a</text>
</g>
<!-- q8 -->
<g id="node9" class="node">
<title>q8</title>
<ellipse fill="none" stroke="#000000" cx="713.3668" cy="-24.6935" rx="20.8568" ry="20.8568"/>
<ellipse fill="none" stroke="#000000" cx="713.3668" cy="-24.6935" rx="24.8884" ry="24.8884"/>
<text text-anchor="middle" x="713.3668" y="-20.4935" font-family="Times,serif" font-size="14.00" fill="#000000">q8</text>
</g>
<!-- q5&#45;&gt;q8 -->
<g id="edge11" class="edge">
<title>q5&#45;&gt;q8</title>
<path fill="none" stroke="#000000" d="M473.9737,-24.6935C518.527,-24.6935 623.3924,-24.6935 678.3587,-24.6935"/>
<polygon fill="#000000" stroke="#000000" points="678.654,-28.1935 688.6539,-24.6935 678.6539,-21.1935 678.654,-28.1935"/>
<text text-anchor="middle" x="581.2415" y="-28.8935" font-family="Times,serif" font-size="14.00" fill="#000000">位</text>
</g>
<!-- q7 -->
<g id="node8" class="node">
<title>q7</title>
<ellipse fill="none" stroke="#000000" cx="625.7653" cy="-73.6935" rx="20.8887" ry="20.8887"/>
<text text-anchor="middle" x="625.7653" y="-69.4935" font-family="Times,serif" font-size="14.00" fill="#000000">q7</text>
</g>
<!-- q6&#45;&gt;q7 -->
<g id="edge9" class="edge">
<title>q6&#45;&gt;q7</title>
<path fill="none" stroke="#000000" d="M557.8208,-73.6935C568.7997,-73.6935 582.4346,-73.6935 594.6023,-73.6935"/>
<polygon fill="#000000" stroke="#000000" points="594.8138,-77.1936 604.8137,-73.6935 594.8137,-70.1936 594.8138,-77.1936"/>
<text text-anchor="middle" x="581.2415" y="-77.8935" font-family="Times,serif" font-size="14.00" fill="#000000">b</text>
</g>
<!-- q7&#45;&gt;q8 -->
<g id="edge10" class="edge">
<title>q7&#45;&gt;q8</title>
<path fill="none" stroke="#000000" d="M643.9164,-63.5406C655.0467,-57.3149 669.5888,-49.1807 682.4885,-41.9653"/>
<polygon fill="#000000" stroke="#000000" points="684.5001,-44.8505 691.5189,-36.9141 681.0828,-38.7412 684.5001,-44.8505"/>
<text text-anchor="middle" x="667.566" y="-53.8935" font-family="Times,serif" font-size="14.00" fill="#000000">a</text>
</g>
<!-- q8&#45;&gt;q5 -->
<g id="edge12" class="edge">
<title>q8&#45;&gt;q5</title>
<path fill="none" stroke="#000000" d="M689.5533,-17.6655C662.1439,-10.3786 615.7174,-.4902 575.4112,-3.8935 543.6768,-6.5729 507.7989,-13.0971 483.153,-18.1302"/>
<polygon fill="#000000" stroke="#000000" points="482.3976,-14.7124 473.3229,-20.1804 483.8269,-21.5649 482.3976,-14.7124"/>
<text text-anchor="middle" x="581.2415" y="-8.8935" font-family="Times,serif" font-size="14.00" fill="#000000">位</text>
</g>
</g>
</svg>
