<?xml version="1.0" encoding="UTF-8" standalone="no"?>
<!DOCTYPE svg PUBLIC "-//W3C//DTD SVG 1.1//EN"
 "http://www.w3.org/Graphics/SVG/1.1/DTD/svg11.dtd">
<!-- Generated by graphviz version 2.40.1 (20161225.0304)
 -->
<!-- Title: G Pages: 1 -->
<svg width="304pt" height="129pt"
 viewBox="0.00 0.00 304.29 128.90" xmlns="http://www.w3.org/2000/svg" xmlns:xlink="http://www.w3.org/1999/xlink">
<g id="graph0" class="graph" transform="scale(1 1) rotate(0) translate(4 124.8973)">
<title>G</title>
<polygon fill="#ffffff" stroke="transparent" points="-4,4 -4,-124.8973 300.2919,-124.8973 300.2919,4 -4,4"/>
<!-- start -->
<g id="node1" class="node">
<title>start</title>
<text text-anchor="middle" x="27" y="-59.3486" font-family="Times,serif" font-size="14.00" fill="#000000">start</text>
</g>
<!-- t1 -->
<g id="node4" class="node">
<title>t1</title>
<ellipse fill="none" stroke="#000000" cx="113.5486" cy="-63.5486" rx="18.5887" ry="18.5887"/>
<ellipse fill="none" stroke="#000000" cx="113.5486" cy="-63.5486" rx="22.5974" ry="22.5974"/>
<text text-anchor="middle" x="113.5486" y="-59.3486" font-family="Times,serif" font-size="14.00" fill="#000000">t1</text>
</g>
<!-- start&#45;&gt;t1 -->
<g id="edge1" class="edge">
<title>start&#45;&gt;t1</title>
<path fill="none" stroke="#000000" d="M54.3845,-63.5486C62.7641,-63.5486 72.0667,-63.5486 80.7671,-63.5486"/>
<polygon fill="#000000" stroke="#000000" points="80.9786,-67.0487 90.9785,-63.5486 80.9785,-60.0487 80.9786,-67.0487"/>
</g>
<!-- t2 -->
<g id="node2" class="node">
<title>t2</title>
<ellipse fill="none" stroke="#000000" cx="197.6459" cy="-18.5486" rx="18.5974" ry="18.5974"/>
<text text-anchor="middle" x="197.6459" y="-14.3486" font-family="Times,serif" font-size="14.00" fill="#000000">t2</text>
</g>
<!-- t2&#45;&gt;t2 -->
<g id="edge4" class="edge">
<title>t2&#45;&gt;t2</title>
<path fill="none" stroke="#000000" d="M190.5579,-35.8456C189.1114,-45.8159 191.4741,-55.0973 197.6459,-55.0973 201.5998,-55.0973 203.9904,-51.2882 204.8176,-45.9291"/>
<polygon fill="#000000" stroke="#000000" points="208.3169,-45.8162 204.7339,-35.8456 201.3171,-45.8743 208.3169,-45.8162"/>
<text text-anchor="middle" x="197.6459" y="-59.2973" font-family="Times,serif" font-size="14.00" fill="#000000">a</text>
</g>
<!-- t3 -->
<g id="node3" class="node">
<title>t3</title>
<ellipse fill="none" stroke="#000000" cx="277.7432" cy="-63.5486" rx="18.5974" ry="18.5974"/>
<text text-anchor="middle" x="277.7432" y="-59.3486" font-family="Times,serif" font-size="14.00" fill="#000000">t3</text>
</g>
<!-- t2&#45;&gt;t3 -->
<g id="edge5" class="edge">
<title>t2&#45;&gt;t3</title>
<path fill="none" stroke="#000000" d="M213.8548,-27.6551C225.0372,-33.9375 240.1183,-42.4103 252.82,-49.5463"/>
<polygon fill="#000000" stroke="#000000" points="251.1258,-52.609 261.5585,-54.4558 254.5545,-46.5062 251.1258,-52.609"/>
<text text-anchor="middle" x="237.6946" y="-46.7486" font-family="Times,serif" font-size="14.00" fill="#000000">b</text>
</g>
<!-- t3&#45;&gt;t3 -->
<g id="edge6" class="edge">
<title>t3&#45;&gt;t3</title>
<path fill="none" stroke="#000000" d="M270.6552,-80.8456C269.2087,-90.8159 271.5714,-100.0973 277.7432,-100.0973 281.6971,-100.0973 284.0876,-96.2882 284.9149,-90.9291"/>
<polygon fill="#000000" stroke="#000000" points="288.4142,-90.8162 284.8312,-80.8456 281.4144,-90.8743 288.4142,-90.8162"/>
<text text-anchor="middle" x="277.7432" y="-104.2973" font-family="Times,serif" font-size="14.00" fill="#000000">a</text>
</g>
<!-- t3&#45;&gt;t1 -->
<g id="edge7" class="edge">
<title>t3&#45;&gt;t1</title>
<path fill="none" stroke="#000000" d="M260.2305,-69.7447C248.0551,-73.7141 231.3541,-78.4936 216.1946,-80.5486 199.8563,-82.7635 195.4524,-82.635 179.0973,-80.5486 167.7852,-79.1056 155.6347,-76.3155 144.9053,-73.4062"/>
<polygon fill="#000000" stroke="#000000" points="145.7038,-69.9945 135.1275,-70.6205 143.7858,-76.7266 145.7038,-69.9945"/>
<text text-anchor="middle" x="197.6459" y="-85.7486" font-family="Times,serif" font-size="14.00" fill="#000000">b</text>
</g>
<!-- t1&#45;&gt;t2 -->
<g id="edge3" class="edge">
<title>t1&#45;&gt;t2</title>
<path fill="none" stroke="#000000" d="M133.4785,-52.8843C145.0902,-46.6709 159.8478,-38.7742 172.282,-32.1207"/>
<polygon fill="#000000" stroke="#000000" points="174.0813,-35.1276 181.2471,-27.3236 170.7787,-28.9556 174.0813,-35.1276"/>
<text text-anchor="middle" x="157.5973" y="-45.7486" font-family="Times,serif" font-size="14.00" fill="#000000">b</text>
</g>
<!-- t1&#45;&gt;t1 -->
<g id="edge2" class="edge">
<title>t1&#45;&gt;t1</title>
<path fill="none" stroke="#000000" d="M106.197,-85.2416C105.395,-95.3048 107.8455,-104.0973 113.5486,-104.0973 117.2022,-104.0973 119.5209,-100.4889 120.5048,-95.2495"/>
<polygon fill="#000000" stroke="#000000" points="124.0026,-95.372 120.9003,-85.2416 117.008,-95.0955 124.0026,-95.372"/>
<text text-anchor="middle" x="113.5486" y="-108.2973" font-family="Times,serif" font-size="14.00" fill="#000000">a</text>
</g>
</g>
</svg>
