<?xml version="1.0" encoding="UTF-8" standalone="no"?>
<!DOCTYPE svg PUBLIC "-//W3C//DTD SVG 1.1//EN"
 "http://www.w3.org/Graphics/SVG/1.1/DTD/svg11.dtd">
<!-- Generated by graphviz version 2.40.1 (20161225.0304)
 -->
<!-- Title: G Pages: 1 -->
<svg width="614pt" height="72pt"
 viewBox="0.00 0.00 613.91 72.41" xmlns="http://www.w3.org/2000/svg" xmlns:xlink="http://www.w3.org/1999/xlink">
<g id="graph0" class="graph" transform="scale(1 1) rotate(0) translate(4 68.4112)">
<title>G</title>
<polygon fill="#ffffff" stroke="transparent" points="-4,4 -4,-68.4112 609.9143,-68.4112 609.9143,4 -4,4"/>
<!-- start -->
<g id="node1" class="node">
<title>start</title>
<text text-anchor="middle" x="27" y="-28.0056" font-family="Times,serif" font-size="14.00" fill="#000000">start</text>
</g>
<!-- q1t1 -->
<g id="node2" class="node">
<title>q1t1</title>
<ellipse fill="none" stroke="#000000" cx="119.2056" cy="-32.2056" rx="28.4127" ry="28.4127"/>
<text text-anchor="middle" x="119.2056" y="-28.0056" font-family="Times,serif" font-size="14.00" fill="#000000">q1t1</text>
</g>
<!-- start&#45;&gt;q1t1 -->
<g id="edge1" class="edge">
<title>start&#45;&gt;q1t1</title>
<path fill="none" stroke="#000000" d="M54.166,-32.2056C62.4895,-32.2056 71.8098,-32.2056 80.7372,-32.2056"/>
<polygon fill="#000000" stroke="#000000" points="80.9536,-35.7057 90.9535,-32.2056 80.9535,-28.7057 80.9536,-35.7057"/>
</g>
<!-- q2t2 -->
<g id="node3" class="node">
<title>q2t2</title>
<ellipse fill="none" stroke="#000000" cx="231.8314" cy="-32.2056" rx="28.4127" ry="28.4127"/>
<text text-anchor="middle" x="231.8314" y="-28.0056" font-family="Times,serif" font-size="14.00" fill="#000000">q2t2</text>
</g>
<!-- q1t1&#45;&gt;q2t2 -->
<g id="edge2" class="edge">
<title>q1t1&#45;&gt;q2t2</title>
<path fill="none" stroke="#000000" d="M147.6258,-32.2056C161.4978,-32.2056 178.3909,-32.2056 193.395,-32.2056"/>
<polygon fill="#000000" stroke="#000000" points="193.4203,-35.7057 203.4202,-32.2056 193.4202,-28.7057 193.4203,-35.7057"/>
<text text-anchor="middle" x="175.5185" y="-36.4056" font-family="Times,serif" font-size="14.00" fill="#000000">a, b</text>
</g>
<!-- q3t1 -->
<g id="node4" class="node">
<title>q3t1</title>
<ellipse fill="none" stroke="#000000" cx="344.4571" cy="-32.2056" rx="28.4127" ry="28.4127"/>
<text text-anchor="middle" x="344.4571" y="-28.0056" font-family="Times,serif" font-size="14.00" fill="#000000">q3t1</text>
</g>
<!-- q2t2&#45;&gt;q3t1 -->
<g id="edge3" class="edge">
<title>q2t2&#45;&gt;q3t1</title>
<path fill="none" stroke="#000000" d="M260.2516,-32.2056C274.1236,-32.2056 291.0167,-32.2056 306.0207,-32.2056"/>
<polygon fill="#000000" stroke="#000000" points="306.046,-35.7057 316.046,-32.2056 306.046,-28.7057 306.046,-35.7057"/>
<text text-anchor="middle" x="288.1443" y="-36.4056" font-family="Times,serif" font-size="14.00" fill="#000000">a, b</text>
</g>
<!-- q4t2 -->
<g id="node6" class="node">
<title>q4t2</title>
<ellipse fill="none" stroke="#000000" cx="461.0829" cy="-32.2056" rx="28.3868" ry="28.3868"/>
<ellipse fill="none" stroke="#000000" cx="461.0829" cy="-32.2056" rx="32.4125" ry="32.4125"/>
<text text-anchor="middle" x="461.0829" y="-28.0056" font-family="Times,serif" font-size="14.00" fill="#000000">q4t2</text>
</g>
<!-- q3t1&#45;&gt;q4t2 -->
<g id="edge4" class="edge">
<title>q3t1&#45;&gt;q4t2</title>
<path fill="none" stroke="#000000" d="M372.689,-32.2056C386.3824,-32.2056 403.1233,-32.2056 418.3384,-32.2056"/>
<polygon fill="#000000" stroke="#000000" points="418.572,-35.7057 428.5719,-32.2056 418.5719,-28.7057 418.572,-35.7057"/>
<text text-anchor="middle" x="400.77" y="-36.4056" font-family="Times,serif" font-size="14.00" fill="#000000">a, b</text>
</g>
<!-- q4t1 -->
<g id="node5" class="node">
<title>q4t1</title>
<ellipse fill="none" stroke="#000000" cx="577.7087" cy="-32.2056" rx="28.4127" ry="28.4127"/>
<text text-anchor="middle" x="577.7087" y="-28.0056" font-family="Times,serif" font-size="14.00" fill="#000000">q4t1</text>
</g>
<!-- q4t1&#45;&gt;q4t2 -->
<g id="edge6" class="edge">
<title>q4t1&#45;&gt;q4t2</title>
<path fill="none" stroke="#000000" d="M552.463,-18.5394C545.8314,-15.5982 538.556,-12.9199 531.5031,-11.4056 520.9244,-9.1343 509.6197,-10.6554 499.2331,-13.7039"/>
<polygon fill="#000000" stroke="#000000" points="497.9236,-10.4531 489.6099,-17.0208 500.2046,-17.0711 497.9236,-10.4531"/>
<text text-anchor="middle" x="521.3958" y="-15.4056" font-family="Times,serif" font-size="14.00" fill="#000000">a, b</text>
</g>
<!-- q4t2&#45;&gt;q4t1 -->
<g id="edge5" class="edge">
<title>q4t2&#45;&gt;q4t1</title>
<path fill="none" stroke="#000000" d="M493.5697,-32.2056C507.671,-32.2056 524.2973,-32.2056 539.0304,-32.2056"/>
<polygon fill="#000000" stroke="#000000" points="539.3606,-35.7057 549.3606,-32.2056 539.3605,-28.7057 539.3606,-35.7057"/>
<text text-anchor="middle" x="521.3958" y="-36.4056" font-family="Times,serif" font-size="14.00" fill="#000000">a, b</text>
</g>
</g>
</svg>
