<?xml version="1.0" encoding="UTF-8" standalone="no"?>
<!DOCTYPE svg PUBLIC "-//W3C//DTD SVG 1.1//EN"
 "http://www.w3.org/Graphics/SVG/1.1/DTD/svg11.dtd">
<!-- Generated by graphviz version 2.40.1 (20161225.0304)
 -->
<!-- Title: G Pages: 1 -->
<svg width="316pt" height="92pt"
 viewBox="0.00 0.00 315.59 92.19" xmlns="http://www.w3.org/2000/svg" xmlns:xlink="http://www.w3.org/1999/xlink">
<g id="graph0" class="graph" transform="scale(1 1) rotate(0) translate(4 88.1869)">
<title>G</title>
<polygon fill="#ffffff" stroke="transparent" points="-4,4 -4,-88.1869 311.5899,-88.1869 311.5899,4 -4,4"/>
<!-- start -->
<g id="node1" class="node">
<title>start</title>
<text text-anchor="middle" x="27" y="-20.4935" font-family="Times,serif" font-size="14.00" fill="#000000">start</text>
</g>
<!-- q1 -->
<g id="node2" class="node">
<title>q1</title>
<ellipse fill="none" stroke="#000000" cx="111.6935" cy="-24.6935" rx="20.8887" ry="20.8887"/>
<text text-anchor="middle" x="111.6935" y="-20.4935" font-family="Times,serif" font-size="14.00" fill="#000000">q1</text>
</g>
<!-- start&#45;&gt;q1 -->
<g id="edge1" class="edge">
<title>start&#45;&gt;q1</title>
<path fill="none" stroke="#000000" d="M54.2637,-24.6935C62.7209,-24.6935 72.1012,-24.6935 80.7873,-24.6935"/>
<polygon fill="#000000" stroke="#000000" points="80.9294,-28.1936 90.9294,-24.6935 80.9293,-21.1936 80.9294,-28.1936"/>
</g>
<!-- q1&#45;&gt;q1 -->
<g id="edge2" class="edge">
<title>q1&#45;&gt;q1</title>
<path fill="none" stroke="#000000" d="M104.7789,-44.602C103.8222,-54.5307 106.127,-63.3869 111.6935,-63.3869 115.1725,-63.3869 117.3774,-59.9274 118.3083,-54.9089"/>
<polygon fill="#000000" stroke="#000000" points="121.8158,-54.6995 118.608,-44.602 114.8187,-54.496 121.8158,-54.6995"/>
<text text-anchor="middle" x="111.6935" y="-67.5869" font-family="Times,serif" font-size="14.00" fill="#000000">b</text>
</g>
<!-- q2 -->
<g id="node3" class="node">
<title>q2</title>
<ellipse fill="none" stroke="#000000" cx="195.295" cy="-24.6935" rx="20.8887" ry="20.8887"/>
<text text-anchor="middle" x="195.295" y="-20.4935" font-family="Times,serif" font-size="14.00" fill="#000000">q2</text>
</g>
<!-- q1&#45;&gt;q2 -->
<g id="edge3" class="edge">
<title>q1&#45;&gt;q2</title>
<path fill="none" stroke="#000000" d="M132.7896,-24.6935C142.3672,-24.6935 153.8849,-24.6935 164.4098,-24.6935"/>
<polygon fill="#000000" stroke="#000000" points="164.4952,-28.1936 174.4951,-24.6935 164.4951,-21.1936 164.4952,-28.1936"/>
<text text-anchor="middle" x="153.4942" y="-28.8935" font-family="Times,serif" font-size="14.00" fill="#000000">a</text>
</g>
<!-- q2&#45;&gt;q2 -->
<g id="edge4" class="edge">
<title>q2&#45;&gt;q2</title>
<path fill="none" stroke="#000000" d="M188.0586,-44.2043C186.9453,-54.2929 189.3575,-63.3869 195.295,-63.3869 199.0987,-63.3869 201.4556,-59.6547 202.3656,-54.3198"/>
<polygon fill="#000000" stroke="#000000" points="205.867,-54.2603 202.5313,-44.2043 198.8679,-54.1456 205.867,-54.2603"/>
<text text-anchor="middle" x="195.295" y="-67.5869" font-family="Times,serif" font-size="14.00" fill="#000000">b</text>
</g>
<!-- q3 -->
<g id="node4" class="node">
<title>q3</title>
<ellipse fill="none" stroke="#000000" cx="282.8965" cy="-24.6935" rx="20.8568" ry="20.8568"/>
<ellipse fill="none" stroke="#000000" cx="282.8965" cy="-24.6935" rx="24.8884" ry="24.8884"/>
<text text-anchor="middle" x="282.8965" y="-20.4935" font-family="Times,serif" font-size="14.00" fill="#000000">q3</text>
</g>
<!-- q2&#45;&gt;q3 -->
<g id="edge5" class="edge">
<title>q2&#45;&gt;q3</title>
<path fill="none" stroke="#000000" d="M216.0553,-24.6935C225.5641,-24.6935 237.0982,-24.6935 247.8895,-24.6935"/>
<polygon fill="#000000" stroke="#000000" points="247.918,-28.1936 257.9179,-24.6935 247.9179,-21.1936 247.918,-28.1936"/>
<text text-anchor="middle" x="237.0957" y="-28.8935" font-family="Times,serif" font-size="14.00" fill="#000000">a</text>
</g>
<!-- q3&#45;&gt;q3 -->
<g id="edge6" class="edge">
<title>q3&#45;&gt;q3</title>
<path fill="none" stroke="#000000" d="M274.7452,-48.4015C274.0778,-58.6297 276.7949,-67.3869 282.8965,-67.3869 286.8053,-67.3869 289.3251,-63.7929 290.456,-58.5207"/>
<polygon fill="#000000" stroke="#000000" points="293.9579,-58.5888 291.0478,-48.4015 286.9698,-58.1801 293.9579,-58.5888"/>
<text text-anchor="middle" x="282.8965" y="-71.5869" font-family="Times,serif" font-size="14.00" fill="#000000">a, b</text>
</g>
</g>
</svg>
