<?xml version="1.0" encoding="UTF-8" standalone="no"?>
<!DOCTYPE svg PUBLIC "-//W3C//DTD SVG 1.1//EN"
 "http://www.w3.org/Graphics/SVG/1.1/DTD/svg11.dtd">
<!-- Generated by graphviz version 2.40.1 (20161225.0304)
 -->
<!-- Title: G Pages: 1 -->
<svg width="441pt" height="92pt"
 viewBox="0.00 0.00 441.19 92.19" xmlns="http://www.w3.org/2000/svg" xmlns:xlink="http://www.w3.org/1999/xlink">
<g id="graph0" class="graph" transform="scale(1 1) rotate(0) translate(4 88.1869)">
<title>G</title>
<polygon fill="#ffffff" stroke="transparent" points="-4,4 -4,-88.1869 437.1914,-88.1869 437.1914,4 -4,4"/>
<!-- start -->
<g id="node1" class="node">
<title>start</title>
<text text-anchor="middle" x="27" y="-20.4935" font-family="Times,serif" font-size="14.00" fill="#000000">start</text>
</g>
<!-- q1 -->
<g id="node2" class="node">
<title>q1</title>
<ellipse fill="none" stroke="#000000" cx="111.6935" cy="-24.6935" rx="20.8887" ry="20.8887"/>
<text text-anchor="middle" x="111.6935" y="-20.4935" font-family="Times,serif" font-size="14.00" fill="#000000">q1</text>
</g>
<!-- start&#45;&gt;q1 -->
<g id="edge1" class="edge">
<title>start&#45;&gt;q1</title>
<path fill="none" stroke="#000000" d="M54.2637,-24.6935C62.7209,-24.6935 72.1012,-24.6935 80.7873,-24.6935"/>
<polygon fill="#000000" stroke="#000000" points="80.9294,-28.1936 90.9294,-24.6935 80.9293,-21.1936 80.9294,-28.1936"/>
</g>
<!-- q2 -->
<g id="node3" class="node">
<title>q2</title>
<ellipse fill="none" stroke="#000000" cx="209.295" cy="-24.6935" rx="20.8887" ry="20.8887"/>
<text text-anchor="middle" x="209.295" y="-20.4935" font-family="Times,serif" font-size="14.00" fill="#000000">q2</text>
</g>
<!-- q1&#45;&gt;q2 -->
<g id="edge2" class="edge">
<title>q1&#45;&gt;q2</title>
<path fill="none" stroke="#000000" d="M132.3922,-24.6935C145.6304,-24.6935 163.054,-24.6935 177.9685,-24.6935"/>
<polygon fill="#000000" stroke="#000000" points="178.2896,-28.1935 188.2895,-24.6935 178.2895,-21.1935 178.2896,-28.1935"/>
<text text-anchor="middle" x="160.4942" y="-28.8935" font-family="Times,serif" font-size="14.00" fill="#000000">a, b</text>
</g>
<!-- q3 -->
<g id="node4" class="node">
<title>q3</title>
<ellipse fill="none" stroke="#000000" cx="306.8965" cy="-24.6935" rx="20.8887" ry="20.8887"/>
<text text-anchor="middle" x="306.8965" y="-20.4935" font-family="Times,serif" font-size="14.00" fill="#000000">q3</text>
</g>
<!-- q2&#45;&gt;q3 -->
<g id="edge3" class="edge">
<title>q2&#45;&gt;q3</title>
<path fill="none" stroke="#000000" d="M229.9937,-24.6935C243.232,-24.6935 260.6555,-24.6935 275.5701,-24.6935"/>
<polygon fill="#000000" stroke="#000000" points="275.8911,-28.1935 285.8911,-24.6935 275.891,-21.1935 275.8911,-28.1935"/>
<text text-anchor="middle" x="258.0957" y="-28.8935" font-family="Times,serif" font-size="14.00" fill="#000000">a, b</text>
</g>
<!-- q4 -->
<g id="node5" class="node">
<title>q4</title>
<ellipse fill="none" stroke="#000000" cx="408.498" cy="-24.6935" rx="20.8568" ry="20.8568"/>
<ellipse fill="none" stroke="#000000" cx="408.498" cy="-24.6935" rx="24.8884" ry="24.8884"/>
<text text-anchor="middle" x="408.498" y="-20.4935" font-family="Times,serif" font-size="14.00" fill="#000000">q4</text>
</g>
<!-- q3&#45;&gt;q4 -->
<g id="edge4" class="edge">
<title>q3&#45;&gt;q4</title>
<path fill="none" stroke="#000000" d="M327.9484,-24.6935C341.0772,-24.6935 358.2991,-24.6935 373.4473,-24.6935"/>
<polygon fill="#000000" stroke="#000000" points="373.5276,-28.1936 383.5276,-24.6935 373.5275,-21.1936 373.5276,-28.1936"/>
<text text-anchor="middle" x="355.6972" y="-28.8935" font-family="Times,serif" font-size="14.00" fill="#000000">a, b</text>
</g>
<!-- q4&#45;&gt;q4 -->
<g id="edge5" class="edge">
<title>q4&#45;&gt;q4</title>
<path fill="none" stroke="#000000" d="M398.9408,-47.5338C397.8982,-58.1294 401.0839,-67.3869 408.498,-67.3869 413.3634,-67.3869 416.4079,-63.4 417.6314,-57.6645"/>
<polygon fill="#000000" stroke="#000000" points="421.1341,-57.6714 418.0552,-47.5338 414.1402,-57.3788 421.1341,-57.6714"/>
<text text-anchor="middle" x="408.498" y="-71.5869" font-family="Times,serif" font-size="14.00" fill="#000000">a, b</text>
</g>
</g>
</svg>
