<?xml version="1.0" encoding="UTF-8" standalone="no"?>
<!DOCTYPE svg PUBLIC "-//W3C//DTD SVG 1.1//EN"
 "http://www.w3.org/Graphics/SVG/1.1/DTD/svg11.dtd">
<!-- Generated by graphviz version 2.40.1 (20161225.0304)
 -->
<!-- Title: G Pages: 1 -->
<svg width="660pt" height="251pt"
 viewBox="0.00 0.00 659.68 250.80" xmlns="http://www.w3.org/2000/svg" xmlns:xlink="http://www.w3.org/1999/xlink">
<g id="graph0" class="graph" transform="scale(1 1) rotate(0) translate(4 246.8)">
<title>G</title>
<polygon fill="#ffffff" stroke="transparent" points="-4,4 -4,-246.8 655.6817,-246.8 655.6817,4 -4,4"/>
<!-- start -->
<g id="node1" class="node">
<title>start</title>
<text text-anchor="middle" x="27" y="-147.8" font-family="Times,serif" font-size="14.00" fill="#000000">start</text>
</g>
<!-- q1t1 -->
<g id="node7" class="node">
<title>q1t1</title>
<ellipse fill="none" stroke="#000000" cx="123.2056" cy="-152" rx="28.3868" ry="28.3868"/>
<ellipse fill="none" stroke="#000000" cx="123.2056" cy="-152" rx="32.4125" ry="32.4125"/>
<text text-anchor="middle" x="123.2056" y="-147.8" font-family="Times,serif" font-size="14.00" fill="#000000">q1t1</text>
</g>
<!-- start&#45;&gt;q1t1 -->
<g id="edge1" class="edge">
<title>start&#45;&gt;q1t1</title>
<path fill="none" stroke="#000000" d="M54.0546,-152C62.3729,-152 71.7372,-152 80.8251,-152"/>
<polygon fill="#000000" stroke="#000000" points="80.8977,-155.5001 90.8977,-152 80.8976,-148.5001 80.8977,-155.5001"/>
</g>
<!-- q1t2 -->
<g id="node2" class="node">
<title>q1t2</title>
<ellipse fill="none" stroke="#000000" cx="226.6168" cy="-61" rx="28.4127" ry="28.4127"/>
<text text-anchor="middle" x="226.6168" y="-56.8" font-family="Times,serif" font-size="14.00" fill="#000000">q1t2</text>
</g>
<!-- q1t3 -->
<g id="node3" class="node">
<title>q1t3</title>
<ellipse fill="none" stroke="#000000" cx="326.0279" cy="-109" rx="28.4127" ry="28.4127"/>
<text text-anchor="middle" x="326.0279" y="-104.8" font-family="Times,serif" font-size="14.00" fill="#000000">q1t3</text>
</g>
<!-- q1t2&#45;&gt;q1t3 -->
<g id="edge5" class="edge">
<title>q1t2&#45;&gt;q1t3</title>
<path fill="none" stroke="#000000" d="M252.2176,-73.3612C264.1612,-79.1281 278.5547,-86.0779 291.4476,-92.3031"/>
<polygon fill="#000000" stroke="#000000" points="289.9868,-95.4844 300.5139,-96.6807 293.0305,-89.1807 289.9868,-95.4844"/>
<text text-anchor="middle" x="276.3224" y="-91.2" font-family="Times,serif" font-size="14.00" fill="#000000">b</text>
</g>
<!-- q2t2 -->
<g id="node5" class="node">
<title>q2t2</title>
<ellipse fill="none" stroke="#000000" cx="623.4761" cy="-76" rx="28.4127" ry="28.4127"/>
<text text-anchor="middle" x="623.4761" y="-71.8" font-family="Times,serif" font-size="14.00" fill="#000000">q2t2</text>
</g>
<!-- q1t2&#45;&gt;q2t2 -->
<g id="edge4" class="edge">
<title>q1t2&#45;&gt;q2t2</title>
<path fill="none" stroke="#000000" d="M254.8493,-57.5144C274.7209,-55.3585 301.9605,-53 326.0279,-53 326.0279,-53 326.0279,-53 524.0649,-53 545.3877,-53 568.6364,-58.0847 587.286,-63.4726"/>
<polygon fill="#000000" stroke="#000000" points="586.2722,-66.8225 596.8578,-66.3792 588.3062,-60.1245 586.2722,-66.8225"/>
<text text-anchor="middle" x="424.6537" y="-57.2" font-family="Times,serif" font-size="14.00" fill="#000000">a</text>
</g>
<!-- q2t3 -->
<g id="node6" class="node">
<title>q2t3</title>
<ellipse fill="none" stroke="#000000" cx="424.6537" cy="-117" rx="28.4127" ry="28.4127"/>
<text text-anchor="middle" x="424.6537" y="-112.8" font-family="Times,serif" font-size="14.00" fill="#000000">q2t3</text>
</g>
<!-- q1t3&#45;&gt;q2t3 -->
<g id="edge6" class="edge">
<title>q1t3&#45;&gt;q2t3</title>
<path fill="none" stroke="#000000" d="M354.2901,-111.2925C364.1945,-112.0959 375.4935,-113.0124 386.0954,-113.8724"/>
<polygon fill="#000000" stroke="#000000" points="386.1371,-117.3871 396.3874,-114.7072 386.7032,-110.4101 386.1371,-117.3871"/>
<text text-anchor="middle" x="375.3408" y="-118.2" font-family="Times,serif" font-size="14.00" fill="#000000">a</text>
</g>
<!-- q1t3&#45;&gt;q1t1 -->
<g id="edge7" class="edge">
<title>q1t3&#45;&gt;q1t1</title>
<path fill="none" stroke="#000000" d="M298.1456,-114.9113C263.6711,-122.2202 204.6813,-134.7265 164.8376,-143.1737"/>
<polygon fill="#000000" stroke="#000000" points="163.9532,-139.7833 154.8966,-145.2813 165.4051,-146.6311 163.9532,-139.7833"/>
<text text-anchor="middle" x="226.6168" y="-139.2" font-family="Times,serif" font-size="14.00" fill="#000000">b</text>
</g>
<!-- q2t1 -->
<g id="node4" class="node">
<title>q2t1</title>
<ellipse fill="none" stroke="#000000" cx="524.0649" cy="-169" rx="28.4127" ry="28.4127"/>
<text text-anchor="middle" x="524.0649" y="-164.8" font-family="Times,serif" font-size="14.00" fill="#000000">q2t1</text>
</g>
<!-- q2t1&#45;&gt;q2t2 -->
<g id="edge9" class="edge">
<title>q2t1&#45;&gt;q2t2</title>
<path fill="none" stroke="#000000" d="M544.663,-149.7303C559.2274,-136.1052 578.9398,-117.6641 595.0065,-102.6336"/>
<polygon fill="#000000" stroke="#000000" points="597.6508,-104.9526 602.5624,-95.5649 592.8686,-99.8407 597.6508,-104.9526"/>
<text text-anchor="middle" x="573.7705" y="-129.2" font-family="Times,serif" font-size="14.00" fill="#000000">b</text>
</g>
<!-- q2t1&#45;&gt;q1t1 -->
<g id="edge8" class="edge">
<title>q2t1&#45;&gt;q1t1</title>
<path fill="none" stroke="#000000" d="M495.7959,-170.7428C475.9076,-171.8207 448.663,-173 424.6537,-173 226.6168,-173 226.6168,-173 226.6168,-173 205.6528,-173 182.7678,-168.8039 163.8681,-164.1631"/>
<polygon fill="#000000" stroke="#000000" points="164.656,-160.7518 154.0985,-161.6395 162.9053,-167.5293 164.656,-160.7518"/>
<text text-anchor="middle" x="326.0279" y="-177.2" font-family="Times,serif" font-size="14.00" fill="#000000">a</text>
</g>
<!-- q2t2&#45;&gt;q1t2 -->
<g id="edge10" class="edge">
<title>q2t2&#45;&gt;q1t2</title>
<path fill="none" stroke="#000000" d="M607.3446,-52.7845C589.7199,-30.4343 559.2589,0 524.0649,0 326.0279,0 326.0279,0 326.0279,0 298.5652,0 272.2992,-17.121 253.6699,-33.2221"/>
<polygon fill="#000000" stroke="#000000" points="251.2384,-30.7021 246.1723,-40.0073 255.9354,-35.8924 251.2384,-30.7021"/>
<text text-anchor="middle" x="424.6537" y="-4.2" font-family="Times,serif" font-size="14.00" fill="#000000">a</text>
</g>
<!-- q2t2&#45;&gt;q2t3 -->
<g id="edge11" class="edge">
<title>q2t2&#45;&gt;q2t3</title>
<path fill="none" stroke="#000000" d="M595.7457,-81.7184C560.9333,-88.8972 501.0759,-101.2407 462.1889,-109.2597"/>
<polygon fill="#000000" stroke="#000000" points="461.3862,-105.8515 452.2991,-111.2991 462.8,-112.7073 461.3862,-105.8515"/>
<text text-anchor="middle" x="524.0649" y="-106.2" font-family="Times,serif" font-size="14.00" fill="#000000">b</text>
</g>
<!-- q2t3&#45;&gt;q1t3 -->
<g id="edge12" class="edge">
<title>q2t3&#45;&gt;q1t3</title>
<path fill="none" stroke="#000000" d="M400.6336,-101.2414C393.7476,-97.5342 386.0415,-94.109 378.4481,-92.2 372.57,-90.7222 366.3871,-91.0078 360.4111,-92.2737"/>
<polygon fill="#000000" stroke="#000000" points="359.2203,-88.9764 350.6398,-95.1913 361.2232,-95.6838 359.2203,-88.9764"/>
<text text-anchor="middle" x="375.3408" y="-97.2" font-family="Times,serif" font-size="14.00" fill="#000000">a</text>
</g>
<!-- q2t3&#45;&gt;q2t1 -->
<g id="edge13" class="edge">
<title>q2t3&#45;&gt;q2t1</title>
<path fill="none" stroke="#000000" d="M450.5761,-128.7494C459.3197,-132.8519 469.0837,-137.587 477.8593,-142.2 482.1483,-144.4545 486.6112,-146.9052 490.9986,-149.378"/>
<polygon fill="#000000" stroke="#000000" points="489.4008,-152.4962 499.8179,-154.429 492.8798,-146.4219 489.4008,-152.4962"/>
<text text-anchor="middle" x="474.3593" y="-146.2" font-family="Times,serif" font-size="14.00" fill="#000000">b</text>
</g>
<!-- q1t1&#45;&gt;q1t2 -->
<g id="edge3" class="edge">
<title>q1t1&#45;&gt;q1t2</title>
<path fill="none" stroke="#000000" d="M142.7191,-126.3082C151.4591,-115.7009 162.2922,-103.6941 173.4112,-94.2 179.466,-89.03 186.4029,-84.1047 193.2241,-79.7061"/>
<polygon fill="#000000" stroke="#000000" points="195.07,-82.6797 201.7271,-74.4375 191.3831,-76.7294 195.07,-82.6797"/>
<text text-anchor="middle" x="176.9112" y="-99.2" font-family="Times,serif" font-size="14.00" fill="#000000">b</text>
</g>
<!-- q1t1&#45;&gt;q2t1 -->
<g id="edge2" class="edge">
<title>q1t1&#45;&gt;q2t1</title>
<path fill="none" stroke="#000000" d="M143.1821,-177.8816C162.1026,-199.2211 192.6189,-226 226.6168,-226 226.6168,-226 226.6168,-226 424.6537,-226 451.3421,-226 477.3578,-210.3481 496.0774,-195.4481"/>
<polygon fill="#000000" stroke="#000000" points="498.4484,-198.0282 503.8872,-188.9358 493.9654,-192.6521 498.4484,-198.0282"/>
<text text-anchor="middle" x="326.0279" y="-230.2" font-family="Times,serif" font-size="14.00" fill="#000000">a</text>
</g>
</g>
</svg>
