<?xml version="1.0" encoding="UTF-8" standalone="no"?>
<!DOCTYPE svg PUBLIC "-//W3C//DTD SVG 1.1//EN"
 "http://www.w3.org/Graphics/SVG/1.1/DTD/svg11.dtd">
<!-- Generated by graphviz version 2.40.1 (20161225.0304)
 -->
<!-- Title: G Pages: 1 -->
<svg width="576pt" height="242pt"
 viewBox="0.00 0.00 575.80 241.80" xmlns="http://www.w3.org/2000/svg" xmlns:xlink="http://www.w3.org/1999/xlink">
<g id="graph0" class="graph" transform="scale(1 1) rotate(0) translate(4 237.8)">
<title>G</title>
<polygon fill="#ffffff" stroke="transparent" points="-4,4 -4,-237.8 571.7983,-237.8 571.7983,4 -4,4"/>
<!-- start -->
<g id="node1" class="node">
<title>start</title>
<text text-anchor="middle" x="27" y="-71.8" font-family="Times,serif" font-size="14.00" fill="#000000">start</text>
</g>
<!-- t1 -->
<g id="node2" class="node">
<title>t1</title>
<ellipse fill="none" stroke="#000000" cx="109.5486" cy="-76" rx="18.5974" ry="18.5974"/>
<text text-anchor="middle" x="109.5486" y="-71.8" font-family="Times,serif" font-size="14.00" fill="#000000">t1</text>
</g>
<!-- start&#45;&gt;t1 -->
<g id="edge1" class="edge">
<title>start&#45;&gt;t1</title>
<path fill="none" stroke="#000000" d="M54.0295,-76C62.5873,-76 72.0763,-76 80.7532,-76"/>
<polygon fill="#000000" stroke="#000000" points="80.8171,-79.5001 90.8171,-76 80.817,-72.5001 80.8171,-79.5001"/>
</g>
<!-- t2 -->
<g id="node3" class="node">
<title>t2</title>
<ellipse fill="none" stroke="#000000" cx="193.6459" cy="-160" rx="18.5887" ry="18.5887"/>
<ellipse fill="none" stroke="#000000" cx="193.6459" cy="-160" rx="22.5974" ry="22.5974"/>
<text text-anchor="middle" x="193.6459" y="-155.8" font-family="Times,serif" font-size="14.00" fill="#000000">t2</text>
</g>
<!-- t1&#45;&gt;t2 -->
<g id="edge3" class="edge">
<title>t1&#45;&gt;t2</title>
<path fill="none" stroke="#000000" d="M122.7056,-89.3964C129.6438,-96.4412 138.3094,-105.2095 146.0973,-113 153.8521,-120.7574 162.3608,-129.1921 170.0103,-136.747"/>
<polygon fill="#000000" stroke="#000000" points="167.7363,-139.4201 177.3135,-143.9509 172.6521,-134.4366 167.7363,-139.4201"/>
<text text-anchor="middle" x="149.5973" y="-123.2" font-family="Times,serif" font-size="14.00" fill="#000000">b</text>
</g>
<!-- t4 -->
<g id="node5" class="node">
<title>t4</title>
<ellipse fill="none" stroke="#000000" cx="457.1524" cy="-57" rx="18.5887" ry="18.5887"/>
<ellipse fill="none" stroke="#000000" cx="457.1524" cy="-57" rx="22.5974" ry="22.5974"/>
<text text-anchor="middle" x="457.1524" y="-52.8" font-family="Times,serif" font-size="14.00" fill="#000000">t4</text>
</g>
<!-- t1&#45;&gt;t4 -->
<g id="edge2" class="edge">
<title>t1&#45;&gt;t4</title>
<path fill="none" stroke="#000000" d="M118.2361,-59.5091C131.34,-37.1569 158.4207,0 193.6459,0 193.6459,0 193.6459,0 369.0551,0 394.4164,0 418.2478,-16.8574 434.7128,-32.2373"/>
<polygon fill="#000000" stroke="#000000" points="432.5972,-35.066 442.1784,-39.5884 437.5086,-30.0782 432.5972,-35.066"/>
<text text-anchor="middle" x="281.7432" y="-4.2" font-family="Times,serif" font-size="14.00" fill="#000000">a</text>
</g>
<!-- t3 -->
<g id="node4" class="node">
<title>t3</title>
<ellipse fill="none" stroke="#000000" cx="281.7432" cy="-112" rx="18.5887" ry="18.5887"/>
<ellipse fill="none" stroke="#000000" cx="281.7432" cy="-112" rx="22.5974" ry="22.5974"/>
<text text-anchor="middle" x="281.7432" y="-107.8" font-family="Times,serif" font-size="14.00" fill="#000000">t3</text>
</g>
<!-- t2&#45;&gt;t3 -->
<g id="edge5" class="edge">
<title>t2&#45;&gt;t3</title>
<path fill="none" stroke="#000000" d="M212.2247,-146.7942C218.9906,-142.2353 226.7962,-137.2582 234.1946,-133.2 239.5758,-130.2483 245.4478,-127.3708 251.1716,-124.7359"/>
<polygon fill="#000000" stroke="#000000" points="252.8393,-127.8247 260.5516,-120.5602 249.9925,-121.4297 252.8393,-127.8247"/>
<text text-anchor="middle" x="237.6946" y="-137.2" font-family="Times,serif" font-size="14.00" fill="#000000">b</text>
</g>
<!-- t5 -->
<g id="node6" class="node">
<title>t5</title>
<ellipse fill="none" stroke="#000000" cx="545.2497" cy="-141" rx="18.5887" ry="18.5887"/>
<ellipse fill="none" stroke="#000000" cx="545.2497" cy="-141" rx="22.5974" ry="22.5974"/>
<text text-anchor="middle" x="545.2497" y="-136.8" font-family="Times,serif" font-size="14.00" fill="#000000">t5</text>
</g>
<!-- t2&#45;&gt;t5 -->
<g id="edge4" class="edge">
<title>t2&#45;&gt;t5</title>
<path fill="none" stroke="#000000" d="M208.62,-177.4116C224.7921,-194.1743 252.2319,-217 281.7432,-217 281.7432,-217 281.7432,-217 457.1524,-217 487.6458,-217 512.8104,-190.5721 528.3272,-168.8849"/>
<polygon fill="#000000" stroke="#000000" points="531.2522,-170.8078 533.9864,-160.5719 525.4657,-166.8686 531.2522,-170.8078"/>
<text text-anchor="middle" x="369.0551" y="-221.2" font-family="Times,serif" font-size="14.00" fill="#000000">a</text>
</g>
<!-- t3&#45;&gt;t1 -->
<g id="edge7" class="edge">
<title>t3&#45;&gt;t1</title>
<path fill="none" stroke="#000000" d="M259.3918,-107.3271C228.3735,-100.8422 172.2579,-89.1104 138.1996,-81.9899"/>
<polygon fill="#000000" stroke="#000000" points="138.4811,-78.4732 127.9765,-79.8526 137.0486,-85.3251 138.4811,-78.4732"/>
<text text-anchor="middle" x="193.6459" y="-102.2" font-family="Times,serif" font-size="14.00" fill="#000000">b</text>
</g>
<!-- t6 -->
<g id="node7" class="node">
<title>t6</title>
<ellipse fill="none" stroke="#000000" cx="369.0551" cy="-105" rx="18.5887" ry="18.5887"/>
<ellipse fill="none" stroke="#000000" cx="369.0551" cy="-105" rx="22.5974" ry="22.5974"/>
<text text-anchor="middle" x="369.0551" y="-100.8" font-family="Times,serif" font-size="14.00" fill="#000000">t6</text>
</g>
<!-- t3&#45;&gt;t6 -->
<g id="edge6" class="edge">
<title>t3&#45;&gt;t6</title>
<path fill="none" stroke="#000000" d="M304.2282,-110.1973C313.9294,-109.4196 325.471,-108.4942 336.1085,-107.6414"/>
<polygon fill="#000000" stroke="#000000" points="336.6546,-111.1089 346.3429,-106.8209 336.0951,-104.1313 336.6546,-111.1089"/>
<text text-anchor="middle" x="325.3992" y="-112.2" font-family="Times,serif" font-size="14.00" fill="#000000">a</text>
</g>
<!-- t4&#45;&gt;t1 -->
<g id="edge8" class="edge">
<title>t4&#45;&gt;t1</title>
<path fill="none" stroke="#000000" d="M434.3486,-55.3961C416.5698,-54.2833 391.2552,-53 369.0551,-53 193.6459,-53 193.6459,-53 193.6459,-53 173.8409,-53 152.312,-59.0083 135.9951,-64.8832"/>
<polygon fill="#000000" stroke="#000000" points="134.6727,-61.6415 126.5711,-68.4689 137.1621,-68.1839 134.6727,-61.6415"/>
<text text-anchor="middle" x="281.7432" y="-57.2" font-family="Times,serif" font-size="14.00" fill="#000000">a</text>
</g>
<!-- t4&#45;&gt;t5 -->
<g id="edge9" class="edge">
<title>t4&#45;&gt;t5</title>
<path fill="none" stroke="#000000" d="M477.1978,-68.0803C486.1211,-73.517 496.4523,-80.5417 504.7011,-88.2 512.7689,-95.6904 520.4465,-104.9163 526.9075,-113.5493"/>
<polygon fill="#000000" stroke="#000000" points="524.2424,-115.8373 532.9322,-121.8985 529.9188,-111.7412 524.2424,-115.8373"/>
<text text-anchor="middle" x="501.2011" y="-93.2" font-family="Times,serif" font-size="14.00" fill="#000000">b</text>
</g>
<!-- t5&#45;&gt;t2 -->
<g id="edge10" class="edge">
<title>t5&#45;&gt;t2</title>
<path fill="none" stroke="#000000" d="M524.2878,-149.6953C506.685,-156.2085 480.7053,-164 457.1524,-164 281.7432,-164 281.7432,-164 281.7432,-164 263.5322,-164 243.2254,-163.1365 226.7018,-162.2119"/>
<polygon fill="#000000" stroke="#000000" points="226.6394,-158.7021 216.4498,-161.6039 226.225,-165.6898 226.6394,-158.7021"/>
<text text-anchor="middle" x="369.0551" y="-168.2" font-family="Times,serif" font-size="14.00" fill="#000000">a</text>
</g>
<!-- t5&#45;&gt;t6 -->
<g id="edge11" class="edge">
<title>t5&#45;&gt;t6</title>
<path fill="none" stroke="#000000" d="M523.1157,-136.4776C492.3671,-130.1951 436.5302,-118.7865 401.1921,-111.5662"/>
<polygon fill="#000000" stroke="#000000" points="401.8685,-108.1322 391.3703,-109.5594 400.4672,-114.9905 401.8685,-108.1322"/>
<text text-anchor="middle" x="457.1524" y="-131.2" font-family="Times,serif" font-size="14.00" fill="#000000">b</text>
</g>
<!-- t6&#45;&gt;t3 -->
<g id="edge12" class="edge">
<title>t6&#45;&gt;t3</title>
<path fill="none" stroke="#000000" d="M350.2019,-91.937C341.7785,-87.6405 331.657,-84.5631 322.2919,-87.2 317.5756,-88.5279 312.8659,-90.5739 308.4133,-92.9335"/>
<polygon fill="#000000" stroke="#000000" points="306.534,-89.9787 299.7152,-98.0876 310.1025,-96.0008 306.534,-89.9787"/>
<text text-anchor="middle" x="325.3992" y="-92.2" font-family="Times,serif" font-size="14.00" fill="#000000">a</text>
</g>
<!-- t6&#45;&gt;t4 -->
<g id="edge13" class="edge">
<title>t6&#45;&gt;t4</title>
<path fill="none" stroke="#000000" d="M389.0458,-94.1081C400.6475,-87.7868 415.4611,-79.7156 428.308,-72.7159"/>
<polygon fill="#000000" stroke="#000000" points="430.1343,-75.7068 437.2409,-67.8488 426.7851,-69.5599 430.1343,-75.7068"/>
<text text-anchor="middle" x="413.1038" y="-87.2" font-family="Times,serif" font-size="14.00" fill="#000000">b</text>
</g>
</g>
</svg>
