<?xml version="1.0" encoding="UTF-8" standalone="no"?>
<!DOCTYPE svg PUBLIC "-//W3C//DTD SVG 1.1//EN"
 "http://www.w3.org/Graphics/SVG/1.1/DTD/svg11.dtd">
<!-- Generated by graphviz version 2.40.1 (20161225.0304)
 -->
<!-- Title: G Pages: 1 -->
<svg width="1039pt" height="644pt"
 viewBox="0.00 0.00 1039.33 643.74" xmlns="http://www.w3.org/2000/svg" xmlns:xlink="http://www.w3.org/1999/xlink">
<g id="graph0" class="graph" transform="scale(1 1) rotate(0) translate(4 639.7427)">
<title>G</title>
<polygon fill="#ffffff" stroke="transparent" points="-4,4 -4,-639.7427 1035.3264,-639.7427 1035.3264,4 -4,4"/>
<!-- start -->
<g id="node1" class="node">
<title>start</title>
<text text-anchor="middle" x="27" y="-221.3372" font-family="Times,serif" font-size="14.00" fill="#000000">start</text>
</g>
<!-- q1t1 -->
<g id="node2" class="node">
<title>q1t1</title>
<ellipse fill="none" stroke="#000000" cx="119.2056" cy="-225.5372" rx="28.4127" ry="28.4127"/>
<text text-anchor="middle" x="119.2056" y="-221.3372" font-family="Times,serif" font-size="14.00" fill="#000000">q1t1</text>
</g>
<!-- start&#45;&gt;q1t1 -->
<g id="edge1" class="edge">
<title>start&#45;&gt;q1t1</title>
<path fill="none" stroke="#000000" d="M54.166,-225.5372C62.4895,-225.5372 71.8098,-225.5372 80.7372,-225.5372"/>
<polygon fill="#000000" stroke="#000000" points="80.9536,-229.0372 90.9535,-225.5372 80.9535,-222.0372 80.9536,-229.0372"/>
</g>
<!-- q2t2 -->
<g id="node9" class="node">
<title>q2t2</title>
<ellipse fill="none" stroke="#000000" cx="218.6168" cy="-311.5372" rx="28.4127" ry="28.4127"/>
<text text-anchor="middle" x="218.6168" y="-307.3372" font-family="Times,serif" font-size="14.00" fill="#000000">q2t2</text>
</g>
<!-- q1t1&#45;&gt;q2t2 -->
<g id="edge8" class="edge">
<title>q1t1&#45;&gt;q2t2</title>
<path fill="none" stroke="#000000" d="M140.7763,-244.1979C154.9758,-256.4817 173.7428,-272.7169 189.2916,-286.1682"/>
<polygon fill="#000000" stroke="#000000" points="187.2354,-289.0173 197.0881,-292.9128 191.8152,-283.7233 187.2354,-289.0173"/>
<text text-anchor="middle" x="168.9112" y="-275.7372" font-family="Times,serif" font-size="14.00" fill="#000000">b</text>
</g>
<!-- q2t4 -->
<g id="node11" class="node">
<title>q2t4</title>
<ellipse fill="none" stroke="#000000" cx="318.0279" cy="-163.5372" rx="28.4127" ry="28.4127"/>
<text text-anchor="middle" x="318.0279" y="-159.3372" font-family="Times,serif" font-size="14.00" fill="#000000">q2t4</text>
</g>
<!-- q1t1&#45;&gt;q2t4 -->
<g id="edge2" class="edge">
<title>q1t1&#45;&gt;q2t4</title>
<path fill="none" stroke="#000000" d="M141.2353,-207.6918C154.6513,-197.7987 172.5927,-186.2197 190.4112,-179.7372 219.1873,-169.2681 253.7462,-165.3661 279.6391,-163.9999"/>
<polygon fill="#000000" stroke="#000000" points="279.9674,-167.4893 289.8103,-163.5691 279.6711,-160.4955 279.9674,-167.4893"/>
<text text-anchor="middle" x="218.6168" y="-184.7372" font-family="Times,serif" font-size="14.00" fill="#000000">a</text>
</g>
<!-- q1t2 -->
<g id="node3" class="node">
<title>q1t2</title>
<ellipse fill="none" stroke="#000000" cx="218.6168" cy="-487.5372" rx="28.4127" ry="28.4127"/>
<text text-anchor="middle" x="218.6168" y="-483.3372" font-family="Times,serif" font-size="14.00" fill="#000000">q1t2</text>
</g>
<!-- q2t3 -->
<g id="node10" class="node">
<title>q2t3</title>
<ellipse fill="none" stroke="#000000" cx="318.0279" cy="-241.5372" rx="28.4127" ry="28.4127"/>
<text text-anchor="middle" x="318.0279" y="-237.3372" font-family="Times,serif" font-size="14.00" fill="#000000">q2t3</text>
</g>
<!-- q1t2&#45;&gt;q2t3 -->
<g id="edge9" class="edge">
<title>q1t2&#45;&gt;q2t3</title>
<path fill="none" stroke="#000000" d="M235.1308,-464.0357C239.5483,-456.7876 243.9015,-448.5884 246.8224,-440.5372 264.4353,-391.9877 246.6514,-374.0805 264.8224,-325.7372 271.9425,-306.7941 283.6721,-287.5739 294.3086,-272.2889"/>
<polygon fill="#000000" stroke="#000000" points="297.4276,-273.9447 300.4018,-263.7759 291.7354,-269.8705 297.4276,-273.9447"/>
<text text-anchor="middle" x="268.3224" y="-329.7372" font-family="Times,serif" font-size="14.00" fill="#000000">b</text>
</g>
<!-- q2t5 -->
<g id="node12" class="node">
<title>q2t5</title>
<ellipse fill="none" stroke="#000000" cx="318.0279" cy="-542.5372" rx="28.4127" ry="28.4127"/>
<text text-anchor="middle" x="318.0279" y="-538.3372" font-family="Times,serif" font-size="14.00" fill="#000000">q2t5</text>
</g>
<!-- q1t2&#45;&gt;q2t5 -->
<g id="edge3" class="edge">
<title>q1t2&#45;&gt;q2t5</title>
<path fill="none" stroke="#000000" d="M241.5461,-504.7437C248.7991,-509.8208 256.9739,-515.1793 264.8224,-519.5372 270.3651,-522.6148 276.402,-525.5706 282.3541,-528.2781"/>
<polygon fill="#000000" stroke="#000000" points="280.9907,-531.5018 291.5546,-532.3102 283.8005,-525.0905 280.9907,-531.5018"/>
<text text-anchor="middle" x="268.3224" y="-526.7372" font-family="Times,serif" font-size="14.00" fill="#000000">a</text>
</g>
<!-- q1t3 -->
<g id="node4" class="node">
<title>q1t3</title>
<ellipse fill="none" stroke="#000000" cx="119.2056" cy="-493.5372" rx="28.4127" ry="28.4127"/>
<text text-anchor="middle" x="119.2056" y="-489.3372" font-family="Times,serif" font-size="14.00" fill="#000000">q1t3</text>
</g>
<!-- q2t1 -->
<g id="node8" class="node">
<title>q2t1</title>
<ellipse fill="none" stroke="#000000" cx="218.6168" cy="-566.5372" rx="28.4127" ry="28.4127"/>
<text text-anchor="middle" x="218.6168" y="-562.3372" font-family="Times,serif" font-size="14.00" fill="#000000">q2t1</text>
</g>
<!-- q1t3&#45;&gt;q2t1 -->
<g id="edge10" class="edge">
<title>q1t3&#45;&gt;q2t1</title>
<path fill="none" stroke="#000000" d="M142.2624,-510.4683C155.6876,-520.3268 172.7953,-532.8894 187.4129,-543.6234"/>
<polygon fill="#000000" stroke="#000000" points="185.5532,-546.6 195.685,-549.6978 189.6964,-540.9579 185.5532,-546.6"/>
<text text-anchor="middle" x="168.9112" y="-535.7372" font-family="Times,serif" font-size="14.00" fill="#000000">b</text>
</g>
<!-- q2t6 -->
<g id="node13" class="node">
<title>q2t6</title>
<ellipse fill="none" stroke="#000000" cx="218.6168" cy="-403.5372" rx="28.4127" ry="28.4127"/>
<text text-anchor="middle" x="218.6168" y="-399.3372" font-family="Times,serif" font-size="14.00" fill="#000000">q2t6</text>
</g>
<!-- q1t3&#45;&gt;q2t6 -->
<g id="edge4" class="edge">
<title>q1t3&#45;&gt;q2t6</title>
<path fill="none" stroke="#000000" d="M140.2881,-474.4505C154.7862,-461.325 174.2125,-443.7377 190.0915,-429.3619"/>
<polygon fill="#000000" stroke="#000000" points="192.5003,-431.9025 197.5646,-422.5963 187.8023,-426.7132 192.5003,-431.9025"/>
<text text-anchor="middle" x="168.9112" y="-454.7372" font-family="Times,serif" font-size="14.00" fill="#000000">a</text>
</g>
<!-- q1t4 -->
<g id="node5" class="node">
<title>q1t4</title>
<ellipse fill="none" stroke="#000000" cx="119.2056" cy="-607.5372" rx="28.4127" ry="28.4127"/>
<text text-anchor="middle" x="119.2056" y="-603.3372" font-family="Times,serif" font-size="14.00" fill="#000000">q1t4</text>
</g>
<!-- q1t4&#45;&gt;q2t1 -->
<g id="edge5" class="edge">
<title>q1t4&#45;&gt;q2t1</title>
<path fill="none" stroke="#000000" d="M145.3247,-596.7649C156.7636,-592.0472 170.3721,-586.4346 182.7396,-581.3339"/>
<polygon fill="#000000" stroke="#000000" points="184.4168,-584.4282 192.3269,-577.3798 181.7478,-577.957 184.4168,-584.4282"/>
<text text-anchor="middle" x="168.9112" y="-591.7372" font-family="Times,serif" font-size="14.00" fill="#000000">a</text>
</g>
<!-- q1t4&#45;&gt;q2t5 -->
<g id="edge11" class="edge">
<title>q1t4&#45;&gt;q2t5</title>
<path fill="none" stroke="#000000" d="M147.2453,-612.1085C173.9051,-615.2184 214.6041,-616.695 246.8224,-603.5372 263.9195,-596.5547 279.8477,-583.7805 292.2851,-571.7194"/>
<polygon fill="#000000" stroke="#000000" points="295.018,-573.9332 299.5572,-564.36 290.0388,-569.013 295.018,-573.9332"/>
<text text-anchor="middle" x="218.6168" y="-617.7372" font-family="Times,serif" font-size="14.00" fill="#000000">b</text>
</g>
<!-- q1t5 -->
<g id="node6" class="node">
<title>q1t5</title>
<ellipse fill="none" stroke="#000000" cx="119.2056" cy="-383.5372" rx="28.4127" ry="28.4127"/>
<text text-anchor="middle" x="119.2056" y="-379.3372" font-family="Times,serif" font-size="14.00" fill="#000000">q1t5</text>
</g>
<!-- q1t5&#45;&gt;q2t2 -->
<g id="edge6" class="edge">
<title>q1t5&#45;&gt;q2t2</title>
<path fill="none" stroke="#000000" d="M142.2624,-366.8379C155.6876,-357.1145 172.7953,-344.724 187.4129,-334.137"/>
<polygon fill="#000000" stroke="#000000" points="189.6391,-336.8463 195.685,-328.1458 185.533,-331.177 189.6391,-336.8463"/>
<text text-anchor="middle" x="168.9112" y="-353.7372" font-family="Times,serif" font-size="14.00" fill="#000000">a</text>
</g>
<!-- q1t5&#45;&gt;q2t6 -->
<g id="edge12" class="edge">
<title>q1t5&#45;&gt;q2t6</title>
<path fill="none" stroke="#000000" d="M146.8971,-389.1083C157.3658,-391.2144 169.4671,-393.649 180.713,-395.9115"/>
<polygon fill="#000000" stroke="#000000" points="180.235,-399.3854 190.7289,-397.9265 181.6157,-392.5229 180.235,-399.3854"/>
<text text-anchor="middle" x="168.9112" y="-397.7372" font-family="Times,serif" font-size="14.00" fill="#000000">b</text>
</g>
<!-- q1t6 -->
<g id="node7" class="node">
<title>q1t6</title>
<ellipse fill="none" stroke="#000000" cx="218.6168" cy="-233.5372" rx="28.4127" ry="28.4127"/>
<text text-anchor="middle" x="218.6168" y="-229.3372" font-family="Times,serif" font-size="14.00" fill="#000000">q1t6</text>
</g>
<!-- q1t6&#45;&gt;q2t3 -->
<g id="edge7" class="edge">
<title>q1t6&#45;&gt;q2t3</title>
<path fill="none" stroke="#000000" d="M246.7829,-235.7432C254.8679,-236.3812 263.6948,-237.0822 271.8224,-237.7372 274.3496,-237.9408 276.9544,-238.1519 279.5795,-238.3655"/>
<polygon fill="#000000" stroke="#000000" points="279.4318,-241.865 289.6837,-239.1913 280.002,-234.8882 279.4318,-241.865"/>
<text text-anchor="middle" x="268.3224" y="-242.7372" font-family="Times,serif" font-size="14.00" fill="#000000">a</text>
</g>
<!-- q1t6&#45;&gt;q2t4 -->
<g id="edge13" class="edge">
<title>q1t6&#45;&gt;q2t4</title>
<path fill="none" stroke="#000000" d="M241.9243,-217.1253C255.2608,-207.7344 272.1692,-195.8284 286.6595,-185.6251"/>
<polygon fill="#000000" stroke="#000000" points="288.7052,-188.4653 294.8665,-179.8462 284.675,-182.7419 288.7052,-188.4653"/>
<text text-anchor="middle" x="268.3224" y="-205.7372" font-family="Times,serif" font-size="14.00" fill="#000000">b</text>
</g>
<!-- q3t2 -->
<g id="node15" class="node">
<title>q3t2</title>
<ellipse fill="none" stroke="#000000" cx="491.8503" cy="-575.5372" rx="28.4127" ry="28.4127"/>
<text text-anchor="middle" x="491.8503" y="-571.3372" font-family="Times,serif" font-size="14.00" fill="#000000">q3t2</text>
</g>
<!-- q2t1&#45;&gt;q3t2 -->
<g id="edge20" class="edge">
<title>q2t1&#45;&gt;q3t2</title>
<path fill="none" stroke="#000000" d="M246.186,-572.7692C259.3236,-575.4304 275.3047,-578.2228 289.8224,-579.5372 346.711,-584.6877 412.9625,-581.6681 453.6524,-578.7879"/>
<polygon fill="#000000" stroke="#000000" points="453.9607,-582.2747 463.6743,-578.0444 453.4428,-575.2939 453.9607,-582.2747"/>
<text text-anchor="middle" x="318.0279" y="-585.7372" font-family="Times,serif" font-size="14.00" fill="#000000">b</text>
</g>
<!-- q3t4 -->
<g id="node17" class="node">
<title>q3t4</title>
<ellipse fill="none" stroke="#000000" cx="318.0279" cy="-465.5372" rx="28.4127" ry="28.4127"/>
<text text-anchor="middle" x="318.0279" y="-461.3372" font-family="Times,serif" font-size="14.00" fill="#000000">q3t4</text>
</g>
<!-- q2t1&#45;&gt;q3t4 -->
<g id="edge14" class="edge">
<title>q2t1&#45;&gt;q3t4</title>
<path fill="none" stroke="#000000" d="M234.5601,-542.9007C247.5275,-523.7141 263.84,-499.6807 264.8224,-498.7372 270.5645,-493.222 277.3675,-488.1487 284.1566,-483.7148"/>
<polygon fill="#000000" stroke="#000000" points="286.0009,-486.6896 292.668,-478.4554 282.3212,-480.7347 286.0009,-486.6896"/>
<text text-anchor="middle" x="268.3224" y="-502.7372" font-family="Times,serif" font-size="14.00" fill="#000000">a</text>
</g>
<!-- q3t3 -->
<g id="node16" class="node">
<title>q3t3</title>
<ellipse fill="none" stroke="#000000" cx="318.0279" cy="-386.5372" rx="28.4127" ry="28.4127"/>
<text text-anchor="middle" x="318.0279" y="-382.3372" font-family="Times,serif" font-size="14.00" fill="#000000">q3t3</text>
</g>
<!-- q2t2&#45;&gt;q3t3 -->
<g id="edge21" class="edge">
<title>q2t2&#45;&gt;q3t3</title>
<path fill="none" stroke="#000000" d="M241.1747,-328.5558C254.679,-338.744 272.0398,-351.8417 286.8432,-363.01"/>
<polygon fill="#000000" stroke="#000000" points="285.1243,-366.0976 295.2152,-369.3262 289.3402,-360.5095 285.1243,-366.0976"/>
<text text-anchor="middle" x="268.3224" y="-354.7372" font-family="Times,serif" font-size="14.00" fill="#000000">b</text>
</g>
<!-- q3t5 -->
<g id="node18" class="node">
<title>q3t5</title>
<ellipse fill="none" stroke="#000000" cx="417.4391" cy="-160.5372" rx="28.4127" ry="28.4127"/>
<text text-anchor="middle" x="417.4391" y="-156.3372" font-family="Times,serif" font-size="14.00" fill="#000000">q3t5</text>
</g>
<!-- q2t2&#45;&gt;q3t5 -->
<g id="edge15" class="edge">
<title>q2t2&#45;&gt;q3t5</title>
<path fill="none" stroke="#000000" d="M246.8703,-310.3027C274.6295,-307.7909 316.9663,-300.3483 346.2335,-278.5372 373.9144,-257.9082 393.0114,-223.0503 404.4077,-196.5548"/>
<polygon fill="#000000" stroke="#000000" points="407.6831,-197.7927 408.2595,-187.2135 401.2117,-195.1242 407.6831,-197.7927"/>
<text text-anchor="middle" x="318.0279" y="-306.7372" font-family="Times,serif" font-size="14.00" fill="#000000">a</text>
</g>
<!-- q3t1 -->
<g id="node14" class="node">
<title>q3t1</title>
<ellipse fill="none" stroke="#000000" cx="417.4391" cy="-83.5372" rx="28.4127" ry="28.4127"/>
<text text-anchor="middle" x="417.4391" y="-79.3372" font-family="Times,serif" font-size="14.00" fill="#000000">q3t1</text>
</g>
<!-- q2t3&#45;&gt;q3t1 -->
<g id="edge22" class="edge">
<title>q2t3&#45;&gt;q3t1</title>
<path fill="none" stroke="#000000" d="M335.4303,-218.8722C339.3468,-213.0994 343.2282,-206.7614 346.2335,-200.5372 358.117,-175.9255 350.6813,-165.4709 364.2335,-141.7372 370.8756,-130.105 380.2126,-118.8628 389.2143,-109.4116"/>
<polygon fill="#000000" stroke="#000000" points="391.7608,-111.8142 396.3037,-102.2427 386.7835,-106.8921 391.7608,-111.8142"/>
<text text-anchor="middle" x="367.7335" y="-146.7372" font-family="Times,serif" font-size="14.00" fill="#000000">b</text>
</g>
<!-- q3t6 -->
<g id="node19" class="node">
<title>q3t6</title>
<ellipse fill="none" stroke="#000000" cx="491.8503" cy="-378.5372" rx="28.4127" ry="28.4127"/>
<text text-anchor="middle" x="491.8503" y="-374.3372" font-family="Times,serif" font-size="14.00" fill="#000000">q3t6</text>
</g>
<!-- q2t3&#45;&gt;q3t6 -->
<g id="edge16" class="edge">
<title>q2t3&#45;&gt;q3t6</title>
<path fill="none" stroke="#000000" d="M339.1956,-260.3581C353.1867,-272.6261 372.0486,-288.8406 389.2335,-302.5372 412.5947,-321.1562 439.794,-341.231 460.3184,-356.0705"/>
<polygon fill="#000000" stroke="#000000" points="458.5155,-359.0853 468.6753,-362.0903 462.6069,-353.4055 458.5155,-359.0853"/>
<text text-anchor="middle" x="367.7335" y="-290.7372" font-family="Times,serif" font-size="14.00" fill="#000000">a</text>
</g>
<!-- q2t4&#45;&gt;q3t1 -->
<g id="edge17" class="edge">
<title>q2t4&#45;&gt;q3t1</title>
<path fill="none" stroke="#000000" d="M326.2522,-136.2047C333.2416,-118.181 345.2307,-95.9098 364.2335,-84.7372 368.7959,-82.0548 373.9803,-80.5127 379.2801,-79.7349"/>
<polygon fill="#000000" stroke="#000000" points="379.7244,-83.2137 389.4805,-79.0824 379.2774,-76.228 379.7244,-83.2137"/>
<text text-anchor="middle" x="367.7335" y="-89.7372" font-family="Times,serif" font-size="14.00" fill="#000000">a</text>
</g>
<!-- q2t4&#45;&gt;q3t5 -->
<g id="edge23" class="edge">
<title>q2t4&#45;&gt;q3t5</title>
<path fill="none" stroke="#000000" d="M346.2493,-162.6855C356.4284,-162.3783 368.0961,-162.0262 379.0002,-161.6971"/>
<polygon fill="#000000" stroke="#000000" points="379.2574,-165.1911 389.1472,-161.3909 379.0462,-158.1943 379.2574,-165.1911"/>
<text text-anchor="middle" x="367.7335" y="-166.7372" font-family="Times,serif" font-size="14.00" fill="#000000">b</text>
</g>
<!-- q2t5&#45;&gt;q3t2 -->
<g id="edge18" class="edge">
<title>q2t5&#45;&gt;q3t2</title>
<path fill="none" stroke="#000000" d="M345.9555,-547.8392C375.225,-553.3959 421.3934,-562.161 453.9417,-568.3402"/>
<polygon fill="#000000" stroke="#000000" points="453.5147,-571.8216 463.992,-570.2483 454.8204,-564.9445 453.5147,-571.8216"/>
<text text-anchor="middle" x="367.7335" y="-555.7372" font-family="Times,serif" font-size="14.00" fill="#000000">a</text>
</g>
<!-- q2t5&#45;&gt;q3t6 -->
<g id="edge24" class="edge">
<title>q2t5&#45;&gt;q3t6</title>
<path fill="none" stroke="#000000" d="M338.6502,-523.0802C369.7517,-493.7362 428.7368,-438.0842 463.7456,-405.0538"/>
<polygon fill="#000000" stroke="#000000" points="466.3831,-407.3772 471.2549,-397.9688 461.5793,-402.2856 466.3831,-407.3772"/>
<text text-anchor="middle" x="367.7335" y="-501.7372" font-family="Times,serif" font-size="14.00" fill="#000000">b</text>
</g>
<!-- q2t6&#45;&gt;q3t3 -->
<g id="edge19" class="edge">
<title>q2t6&#45;&gt;q3t3</title>
<path fill="none" stroke="#000000" d="M246.5729,-398.7565C256.9495,-396.982 268.9013,-394.9381 280.0243,-393.036"/>
<polygon fill="#000000" stroke="#000000" points="280.6703,-396.4765 289.9372,-391.3409 279.4903,-389.5766 280.6703,-396.4765"/>
<text text-anchor="middle" x="268.3224" y="-399.7372" font-family="Times,serif" font-size="14.00" fill="#000000">a</text>
</g>
<!-- q2t6&#45;&gt;q3t4 -->
<g id="edge25" class="edge">
<title>q2t6&#45;&gt;q3t4</title>
<path fill="none" stroke="#000000" d="M242.6814,-418.5456C255.4086,-426.4832 271.2242,-436.347 285.0746,-444.9851"/>
<polygon fill="#000000" stroke="#000000" points="283.5031,-448.1298 293.8403,-450.452 287.2074,-442.1903 283.5031,-448.1298"/>
<text text-anchor="middle" x="268.3224" y="-439.7372" font-family="Times,serif" font-size="14.00" fill="#000000">b</text>
</g>
<!-- q4t2 -->
<g id="node21" class="node">
<title>q4t2</title>
<ellipse fill="none" stroke="#000000" cx="570.2615" cy="-98.5372" rx="28.3868" ry="28.3868"/>
<ellipse fill="none" stroke="#000000" cx="570.2615" cy="-98.5372" rx="32.4125" ry="32.4125"/>
<text text-anchor="middle" x="570.2615" y="-94.3372" font-family="Times,serif" font-size="14.00" fill="#000000">q4t2</text>
</g>
<!-- q3t1&#45;&gt;q4t2 -->
<g id="edge32" class="edge">
<title>q3t1&#45;&gt;q4t2</title>
<path fill="none" stroke="#000000" d="M445.8983,-81.9243C466.5768,-81.2243 495.1801,-81.2324 520.0559,-84.7372 523.1342,-85.1709 526.2916,-85.7371 529.4511,-86.3924"/>
<polygon fill="#000000" stroke="#000000" points="528.9213,-89.863 539.456,-88.7356 530.5176,-83.0474 528.9213,-89.863"/>
<text text-anchor="middle" x="491.8503" y="-89.7372" font-family="Times,serif" font-size="14.00" fill="#000000">b</text>
</g>
<!-- q4t4 -->
<g id="node23" class="node">
<title>q4t4</title>
<ellipse fill="none" stroke="#000000" cx="891.7096" cy="-226.5372" rx="28.3868" ry="28.3868"/>
<ellipse fill="none" stroke="#000000" cx="891.7096" cy="-226.5372" rx="32.4125" ry="32.4125"/>
<text text-anchor="middle" x="891.7096" y="-222.3372" font-family="Times,serif" font-size="14.00" fill="#000000">q4t4</text>
</g>
<!-- q3t1&#45;&gt;q4t4 -->
<g id="edge26" class="edge">
<title>q3t1&#45;&gt;q4t4</title>
<path fill="none" stroke="#000000" d="M444.032,-73.8494C480.1937,-62.0236 546.757,-45.053 602.4671,-57.5372 705.1083,-80.5382 728.9839,-100.1892 816.504,-158.5372 832.665,-169.3113 848.8664,-183.431 862.071,-196.0105"/>
<polygon fill="#000000" stroke="#000000" points="859.8641,-198.7462 869.4763,-203.2022 864.7409,-193.7245 859.8641,-198.7462"/>
<text text-anchor="middle" x="677.6727" y="-96.7372" font-family="Times,serif" font-size="14.00" fill="#000000">a</text>
</g>
<!-- q4t3 -->
<g id="node22" class="node">
<title>q4t3</title>
<ellipse fill="none" stroke="#000000" cx="677.6727" cy="-337.5372" rx="28.3868" ry="28.3868"/>
<ellipse fill="none" stroke="#000000" cx="677.6727" cy="-337.5372" rx="32.4125" ry="32.4125"/>
<text text-anchor="middle" x="677.6727" y="-333.3372" font-family="Times,serif" font-size="14.00" fill="#000000">q4t3</text>
</g>
<!-- q3t2&#45;&gt;q4t3 -->
<g id="edge33" class="edge">
<title>q3t2&#45;&gt;q4t3</title>
<path fill="none" stroke="#000000" d="M497.2063,-547.5131C505.3601,-507.1664 521.6754,-435.2964 538.0559,-414.7372 538.966,-413.5949 599.3339,-380.4183 640.3829,-357.9335"/>
<polygon fill="#000000" stroke="#000000" points="642.2408,-360.9066 649.3309,-353.0338 638.8788,-354.7668 642.2408,-360.9066"/>
<text text-anchor="middle" x="570.2615" y="-418.7372" font-family="Times,serif" font-size="14.00" fill="#000000">b</text>
</g>
<!-- q4t5 -->
<g id="node24" class="node">
<title>q4t5</title>
<ellipse fill="none" stroke="#000000" cx="999.1208" cy="-281.5372" rx="28.3868" ry="28.3868"/>
<ellipse fill="none" stroke="#000000" cx="999.1208" cy="-281.5372" rx="32.4125" ry="32.4125"/>
<text text-anchor="middle" x="999.1208" y="-277.3372" font-family="Times,serif" font-size="14.00" fill="#000000">q4t5</text>
</g>
<!-- q3t2&#45;&gt;q4t5 -->
<g id="edge27" class="edge">
<title>q3t2&#45;&gt;q4t5</title>
<path fill="none" stroke="#000000" d="M520.1826,-577.5685C546.9239,-579.3091 588.1486,-581.5372 623.9671,-581.5372 623.9671,-581.5372 623.9671,-581.5372 891.7096,-581.5372 920.6275,-581.5372 931.8936,-573.9146 948.9152,-550.5372 974.7957,-514.9931 989.4977,-390.2196 995.6563,-323.8311"/>
<polygon fill="#000000" stroke="#000000" points="999.1575,-323.9745 996.5717,-313.7 992.1859,-323.3444 999.1575,-323.9745"/>
<text text-anchor="middle" x="730.9856" y="-585.7372" font-family="Times,serif" font-size="14.00" fill="#000000">a</text>
</g>
<!-- q4t1 -->
<g id="node20" class="node">
<title>q4t1</title>
<ellipse fill="none" stroke="#000000" cx="417.4391" cy="-265.5372" rx="28.4127" ry="28.4127"/>
<text text-anchor="middle" x="417.4391" y="-261.3372" font-family="Times,serif" font-size="14.00" fill="#000000">q4t1</text>
</g>
<!-- q3t3&#45;&gt;q4t1 -->
<g id="edge34" class="edge">
<title>q3t3&#45;&gt;q4t1</title>
<path fill="none" stroke="#000000" d="M344.8393,-377.0165C354.0509,-372.7549 363.8831,-366.9819 371.2335,-359.5372 387.0091,-343.5593 398.316,-321.1263 405.7949,-302.1822"/>
<polygon fill="#000000" stroke="#000000" points="409.1364,-303.2389 409.3603,-292.6464 402.5797,-300.7873 409.1364,-303.2389"/>
<text text-anchor="middle" x="367.7335" y="-368.7372" font-family="Times,serif" font-size="14.00" fill="#000000">b</text>
</g>
<!-- q4t6 -->
<g id="node25" class="node">
<title>q4t6</title>
<ellipse fill="none" stroke="#000000" cx="784.2984" cy="-301.5372" rx="28.3868" ry="28.3868"/>
<ellipse fill="none" stroke="#000000" cx="784.2984" cy="-301.5372" rx="32.4125" ry="32.4125"/>
<text text-anchor="middle" x="784.2984" y="-297.3372" font-family="Times,serif" font-size="14.00" fill="#000000">q4t6</text>
</g>
<!-- q3t3&#45;&gt;q4t6 -->
<g id="edge28" class="edge">
<title>q3t3&#45;&gt;q4t6</title>
<path fill="none" stroke="#000000" d="M339.7316,-405.0856C347.0604,-410.3494 355.5869,-415.4767 364.2335,-418.5372 464.196,-453.918 499.2008,-455.628 602.4671,-431.5372 654.3086,-419.4431 666.8768,-409.9169 709.8783,-378.5372 727.1112,-365.9616 743.8477,-349.1889 757.0703,-334.5085"/>
<polygon fill="#000000" stroke="#000000" points="760.0478,-336.4236 764.0355,-326.6079 754.797,-331.7945 760.0478,-336.4236"/>
<text text-anchor="middle" x="570.2615" y="-447.7372" font-family="Times,serif" font-size="14.00" fill="#000000">a</text>
</g>
<!-- q3t4&#45;&gt;q4t1 -->
<g id="edge29" class="edge">
<title>q3t4&#45;&gt;q4t1</title>
<path fill="none" stroke="#000000" d="M333.8801,-442.0171C337.9198,-436.0001 342.2465,-429.5353 346.2335,-423.5372 357.4246,-406.7011 361.9928,-403.5177 371.2335,-385.5372 385.135,-358.4877 397.3258,-326.2449 405.6899,-301.996"/>
<polygon fill="#000000" stroke="#000000" points="409.0258,-303.0572 408.9237,-292.4629 402.3968,-300.8086 409.0258,-303.0572"/>
<text text-anchor="middle" x="367.7335" y="-401.7372" font-family="Times,serif" font-size="14.00" fill="#000000">a</text>
</g>
<!-- q3t4&#45;&gt;q4t5 -->
<g id="edge35" class="edge">
<title>q3t4&#45;&gt;q4t5</title>
<path fill="none" stroke="#000000" d="M344.5567,-476.0134C397.035,-495.7633 518.1867,-536.5372 623.9671,-536.5372 623.9671,-536.5372 623.9671,-536.5372 891.7096,-536.5372 937.3813,-536.5372 974.4652,-395.8528 990.5216,-323.4756"/>
<polygon fill="#000000" stroke="#000000" points="994.0257,-323.8336 992.7365,-313.3175 987.1864,-322.3423 994.0257,-323.8336"/>
<text text-anchor="middle" x="677.6727" y="-540.7372" font-family="Times,serif" font-size="14.00" fill="#000000">b</text>
</g>
<!-- q3t5&#45;&gt;q4t2 -->
<g id="edge30" class="edge">
<title>q3t5&#45;&gt;q4t2</title>
<path fill="none" stroke="#000000" d="M438.2824,-141.4034C445.8202,-135.3238 454.6902,-129.0635 463.6447,-124.7372 483.9057,-114.9481 508.1531,-108.6158 528.4015,-104.6338"/>
<polygon fill="#000000" stroke="#000000" points="529.0841,-108.0671 538.2835,-102.8115 527.8145,-101.1832 529.0841,-108.0671"/>
<text text-anchor="middle" x="491.8503" y="-129.7372" font-family="Times,serif" font-size="14.00" fill="#000000">a</text>
</g>
<!-- q3t5&#45;&gt;q4t6 -->
<g id="edge36" class="edge">
<title>q3t5&#45;&gt;q4t6</title>
<path fill="none" stroke="#000000" d="M446.018,-159.5629C467.007,-159.6736 495.9426,-161.5714 520.0559,-169.5372 582.1607,-190.0532 586.9742,-217.2711 645.4671,-246.5372 677.7174,-262.6731 715.9091,-277.512 744.064,-287.6993"/>
<polygon fill="#000000" stroke="#000000" points="742.9834,-291.0299 753.578,-291.1032 745.3415,-284.4391 742.9834,-291.0299"/>
<text text-anchor="middle" x="623.9671" y="-240.7372" font-family="Times,serif" font-size="14.00" fill="#000000">b</text>
</g>
<!-- q3t6&#45;&gt;q4t3 -->
<g id="edge31" class="edge">
<title>q3t6&#45;&gt;q4t3</title>
<path fill="none" stroke="#000000" d="M518.4701,-367.9497C524.8196,-365.6785 531.6222,-363.4499 538.0559,-361.7372 570.2022,-353.1794 607.3433,-346.9102 635.2331,-342.8996"/>
<polygon fill="#000000" stroke="#000000" points="636.0203,-346.3237 645.4395,-341.473 635.0512,-339.391 636.0203,-346.3237"/>
<text text-anchor="middle" x="570.2615" y="-365.7372" font-family="Times,serif" font-size="14.00" fill="#000000">a</text>
</g>
<!-- q3t6&#45;&gt;q4t4 -->
<g id="edge37" class="edge">
<title>q3t6&#45;&gt;q4t4</title>
<path fill="none" stroke="#000000" d="M496.9732,-406.6904C502.7392,-429.3519 514.5651,-459.7734 538.0559,-474.5372 575.1011,-497.8198 713.2864,-464.2424 734.0929,-451.5372 771.7644,-428.5333 837.3595,-321.1685 870.8045,-263.461"/>
<polygon fill="#000000" stroke="#000000" points="873.924,-265.0576 875.887,-254.6462 867.8598,-261.5611 873.924,-265.0576"/>
<text text-anchor="middle" x="677.6727" y="-479.7372" font-family="Times,serif" font-size="14.00" fill="#000000">b</text>
</g>
<!-- q4t1&#45;&gt;q4t2 -->
<g id="edge44" class="edge">
<title>q4t1&#45;&gt;q4t2</title>
<path fill="none" stroke="#000000" d="M429.8854,-240.061C438.183,-224.5451 450.0426,-204.865 463.6447,-189.7372 484.7588,-166.2548 496.0715,-167.0792 520.0559,-146.5372 526.6388,-140.899 533.4828,-134.6432 539.9224,-128.5608"/>
<polygon fill="#000000" stroke="#000000" points="542.4478,-130.9887 547.2563,-121.5479 537.6099,-125.9295 542.4478,-130.9887"/>
<text text-anchor="middle" x="491.8503" y="-194.7372" font-family="Times,serif" font-size="14.00" fill="#000000">b</text>
</g>
<!-- q4t1&#45;&gt;q4t4 -->
<g id="edge38" class="edge">
<title>q4t1&#45;&gt;q4t4</title>
<path fill="none" stroke="#000000" d="M444.9273,-258.5896C487.5322,-248.3114 572.2404,-229.8251 645.4671,-225.7372 674.0498,-224.1415 681.2511,-225.6742 709.8783,-225.7372 757.4297,-225.8418 811.9755,-226.1002 848.8215,-226.2953"/>
<polygon fill="#000000" stroke="#000000" points="849.1732,-229.7971 859.1919,-226.351 849.2108,-222.7972 849.1732,-229.7971"/>
<text text-anchor="middle" x="677.6727" y="-230.7372" font-family="Times,serif" font-size="14.00" fill="#000000">a</text>
</g>
<!-- q4t2&#45;&gt;q4t3 -->
<g id="edge45" class="edge">
<title>q4t2&#45;&gt;q4t3</title>
<path fill="none" stroke="#000000" d="M575.9181,-130.2792C582.9848,-165.1441 597.0813,-222.0854 620.4671,-266.5372 627.8925,-280.6514 638.3336,-294.653 648.2666,-306.4446"/>
<polygon fill="#000000" stroke="#000000" points="645.8224,-308.9683 655.0189,-314.2291 651.1104,-304.3816 645.8224,-308.9683"/>
<text text-anchor="middle" x="623.9671" y="-281.7372" font-family="Times,serif" font-size="14.00" fill="#000000">b</text>
</g>
<!-- q4t2&#45;&gt;q4t5 -->
<g id="edge39" class="edge">
<title>q4t2&#45;&gt;q4t5</title>
<path fill="none" stroke="#000000" d="M595.0545,-77.627C602.7881,-71.9935 611.6199,-66.3979 620.4671,-62.5372 754.2624,-4.1515 843.7377,40.694 948.9152,-60.5372 974.1347,-84.8104 988.5501,-182.0982 994.9971,-239.1817"/>
<polygon fill="#000000" stroke="#000000" points="991.5423,-239.7858 996.109,-249.3459 998.5007,-239.0245 991.5423,-239.7858"/>
<text text-anchor="middle" x="784.2984" y="-14.7372" font-family="Times,serif" font-size="14.00" fill="#000000">a</text>
</g>
<!-- q4t3&#45;&gt;q4t1 -->
<g id="edge46" class="edge">
<title>q4t3&#45;&gt;q4t1</title>
<path fill="none" stroke="#000000" d="M646.2632,-328.847C598.0363,-315.5038 505.9456,-290.0246 454.5156,-275.7953"/>
<polygon fill="#000000" stroke="#000000" points="455.3681,-272.3997 444.7968,-273.1063 453.5014,-279.1462 455.3681,-272.3997"/>
<text text-anchor="middle" x="570.2615" y="-320.7372" font-family="Times,serif" font-size="14.00" fill="#000000">b</text>
</g>
<!-- q4t3&#45;&gt;q4t6 -->
<g id="edge40" class="edge">
<title>q4t3&#45;&gt;q4t6</title>
<path fill="none" stroke="#000000" d="M702.9143,-317.3975C710.5222,-312.3692 719.1746,-307.5991 727.8783,-304.7372 732.2426,-303.3021 736.8982,-302.2849 741.5924,-301.5809"/>
<polygon fill="#000000" stroke="#000000" points="742.2555,-305.0304 751.8323,-300.4989 741.5198,-298.0691 742.2555,-305.0304"/>
<text text-anchor="middle" x="730.9856" y="-308.7372" font-family="Times,serif" font-size="14.00" fill="#000000">a</text>
</g>
<!-- q4t4&#45;&gt;q4t1 -->
<g id="edge41" class="edge">
<title>q4t4&#45;&gt;q4t1</title>
<path fill="none" stroke="#000000" d="M866.9822,-205.8138C846.2619,-190.5855 815.1886,-172.5372 784.2984,-172.5372 623.9671,-172.5372 623.9671,-172.5372 623.9671,-172.5372 588.3178,-172.5372 499.5655,-219.1889 450.8144,-246.4093"/>
<polygon fill="#000000" stroke="#000000" points="448.9147,-243.462 441.9119,-251.4125 452.3443,-249.5643 448.9147,-243.462"/>
<text text-anchor="middle" x="677.6727" y="-176.7372" font-family="Times,serif" font-size="14.00" fill="#000000">a</text>
</g>
<!-- q4t4&#45;&gt;q4t5 -->
<g id="edge47" class="edge">
<title>q4t4&#45;&gt;q4t5</title>
<path fill="none" stroke="#000000" d="M920.4939,-241.2761C933.0154,-247.6878 947.8593,-255.2886 961.2581,-262.1495"/>
<polygon fill="#000000" stroke="#000000" points="959.7609,-265.315 970.2571,-266.7575 962.9514,-259.0843 959.7609,-265.315"/>
<text text-anchor="middle" x="945.4152" y="-260.7372" font-family="Times,serif" font-size="14.00" fill="#000000">b</text>
</g>
<!-- q4t5&#45;&gt;q4t2 -->
<g id="edge42" class="edge">
<title>q4t5&#45;&gt;q4t2</title>
<path fill="none" stroke="#000000" d="M982.4297,-253.5143C954.5317,-209.8168 893.7948,-127.196 816.504,-95.7372 748.8942,-68.2186 661.9363,-78.6521 611.5122,-88.6546"/>
<polygon fill="#000000" stroke="#000000" points="610.7105,-85.2463 601.629,-90.7032 612.1313,-92.1006 610.7105,-85.2463"/>
<text text-anchor="middle" x="784.2984" y="-100.7372" font-family="Times,serif" font-size="14.00" fill="#000000">a</text>
</g>
<!-- q4t5&#45;&gt;q4t6 -->
<g id="edge48" class="edge">
<title>q4t5&#45;&gt;q4t6</title>
<path fill="none" stroke="#000000" d="M966.7399,-284.5518C929.31,-288.0365 867.5929,-293.7824 826.4492,-297.6129"/>
<polygon fill="#000000" stroke="#000000" points="826.092,-294.1309 816.4595,-298.5429 826.7409,-301.1008 826.092,-294.1309"/>
<text text-anchor="middle" x="891.7096" y="-297.7372" font-family="Times,serif" font-size="14.00" fill="#000000">b</text>
</g>
<!-- q4t6&#45;&gt;q4t3 -->
<g id="edge43" class="edge">
<title>q4t6&#45;&gt;q4t3</title>
<path fill="none" stroke="#000000" d="M754.4868,-313.9964C747.823,-316.6177 740.7552,-319.2722 734.0929,-321.5372 729.1586,-323.2147 723.9419,-324.861 718.7529,-326.4216"/>
<polygon fill="#000000" stroke="#000000" points="717.5074,-323.1391 708.89,-329.3026 719.4702,-329.8583 717.5074,-323.1391"/>
<text text-anchor="middle" x="730.9856" y="-326.7372" font-family="Times,serif" font-size="14.00" fill="#000000">a</text>
</g>
<!-- q4t6&#45;&gt;q4t4 -->
<g id="edge49" class="edge">
<title>q4t6&#45;&gt;q4t4</title>
<path fill="none" stroke="#000000" d="M810.5498,-282.6786C818.2479,-277.1862 826.6952,-271.196 834.504,-265.7372 841.5963,-260.7792 849.2155,-255.5152 856.5066,-250.5079"/>
<polygon fill="#000000" stroke="#000000" points="858.593,-253.3211 864.8638,-244.7813 854.6362,-247.5467 858.593,-253.3211"/>
<text text-anchor="middle" x="838.004" y="-270.7372" font-family="Times,serif" font-size="14.00" fill="#000000">b</text>
</g>
</g>
</svg>
