<?xml version="1.0" encoding="UTF-8" standalone="no"?>
<!DOCTYPE svg PUBLIC "-//W3C//DTD SVG 1.1//EN"
 "http://www.w3.org/Graphics/SVG/1.1/DTD/svg11.dtd">
<!-- Generated by graphviz version 2.40.1 (20161225.0304)
 -->
<!-- Title: G Pages: 1 -->
<svg width="561pt" height="281pt"
 viewBox="0.00 0.00 561.06 281.21" xmlns="http://www.w3.org/2000/svg" xmlns:xlink="http://www.w3.org/1999/xlink">
<g id="graph0" class="graph" transform="scale(1 1) rotate(0) translate(4 277.2112)">
<title>G</title>
<polygon fill="#ffffff" stroke="transparent" points="-4,4 -4,-277.2112 557.0559,-277.2112 557.0559,4 -4,4"/>
<!-- start -->
<g id="node1" class="node">
<title>start</title>
<text text-anchor="middle" x="27" y="-116.0056" font-family="Times,serif" font-size="14.00" fill="#000000">start</text>
</g>
<!-- q1t1 -->
<g id="node2" class="node">
<title>q1t1</title>
<ellipse fill="none" stroke="#000000" cx="119.2056" cy="-120.2056" rx="28.4127" ry="28.4127"/>
<text text-anchor="middle" x="119.2056" y="-116.0056" font-family="Times,serif" font-size="14.00" fill="#000000">q1t1</text>
</g>
<!-- start&#45;&gt;q1t1 -->
<g id="edge1" class="edge">
<title>start&#45;&gt;q1t1</title>
<path fill="none" stroke="#000000" d="M54.166,-120.2056C62.4895,-120.2056 71.8098,-120.2056 80.7372,-120.2056"/>
<polygon fill="#000000" stroke="#000000" points="80.9536,-123.7057 90.9535,-120.2056 80.9535,-116.7057 80.9536,-123.7057"/>
</g>
<!-- q1t2 -->
<g id="node3" class="node">
<title>q1t2</title>
<ellipse fill="none" stroke="#000000" cx="218.6168" cy="-157.2056" rx="28.4127" ry="28.4127"/>
<text text-anchor="middle" x="218.6168" y="-153.0056" font-family="Times,serif" font-size="14.00" fill="#000000">q1t2</text>
</g>
<!-- q1t1&#45;&gt;q1t2 -->
<g id="edge3" class="edge">
<title>q1t1&#45;&gt;q1t2</title>
<path fill="none" stroke="#000000" d="M145.846,-130.1209C157.1006,-134.3098 170.3824,-139.2532 182.4977,-143.7624"/>
<polygon fill="#000000" stroke="#000000" points="181.3101,-147.0549 191.9029,-147.2629 183.7518,-140.4945 181.3101,-147.0549"/>
<text text-anchor="middle" x="168.9112" y="-143.4056" font-family="Times,serif" font-size="14.00" fill="#000000">b</text>
</g>
<!-- q2t1 -->
<g id="node5" class="node">
<title>q2t1</title>
<ellipse fill="none" stroke="#000000" cx="218.6168" cy="-83.2056" rx="28.4127" ry="28.4127"/>
<text text-anchor="middle" x="218.6168" y="-79.0056" font-family="Times,serif" font-size="14.00" fill="#000000">q2t1</text>
</g>
<!-- q1t1&#45;&gt;q2t1 -->
<g id="edge2" class="edge">
<title>q1t1&#45;&gt;q2t1</title>
<path fill="none" stroke="#000000" d="M145.846,-110.2903C157.1006,-106.1014 170.3824,-101.158 182.4977,-96.6488"/>
<polygon fill="#000000" stroke="#000000" points="183.7518,-99.9167 191.9029,-93.1483 181.3101,-93.3563 183.7518,-99.9167"/>
<text text-anchor="middle" x="168.9112" y="-107.4056" font-family="Times,serif" font-size="14.00" fill="#000000">a</text>
</g>
<!-- q1t3 -->
<g id="node4" class="node">
<title>q1t3</title>
<ellipse fill="none" stroke="#000000" cx="318.0279" cy="-210.2056" rx="28.4127" ry="28.4127"/>
<text text-anchor="middle" x="318.0279" y="-206.0056" font-family="Times,serif" font-size="14.00" fill="#000000">q1t3</text>
</g>
<!-- q1t2&#45;&gt;q1t3 -->
<g id="edge5" class="edge">
<title>q1t2&#45;&gt;q1t3</title>
<path fill="none" stroke="#000000" d="M243.7024,-170.5797C255.9468,-177.1077 270.8578,-185.0573 284.1014,-192.118"/>
<polygon fill="#000000" stroke="#000000" points="282.4795,-195.2196 292.9503,-196.8357 285.7727,-189.0426 282.4795,-195.2196"/>
<text text-anchor="middle" x="268.3224" y="-189.4056" font-family="Times,serif" font-size="14.00" fill="#000000">b</text>
</g>
<!-- q2t2 -->
<g id="node6" class="node">
<title>q2t2</title>
<ellipse fill="none" stroke="#000000" cx="318.0279" cy="-136.2056" rx="28.4127" ry="28.4127"/>
<text text-anchor="middle" x="318.0279" y="-132.0056" font-family="Times,serif" font-size="14.00" fill="#000000">q2t2</text>
</g>
<!-- q1t2&#45;&gt;q2t2 -->
<g id="edge4" class="edge">
<title>q1t2&#45;&gt;q2t2</title>
<path fill="none" stroke="#000000" d="M246.3083,-151.3559C256.777,-149.1445 268.8783,-146.5882 280.1242,-144.2125"/>
<polygon fill="#000000" stroke="#000000" points="281.0794,-147.5881 290.1401,-142.0967 279.6326,-140.7392 281.0794,-147.5881"/>
<text text-anchor="middle" x="268.3224" y="-151.4056" font-family="Times,serif" font-size="14.00" fill="#000000">a</text>
</g>
<!-- q1t3&#45;&gt;q1t3 -->
<g id="edge7" class="edge">
<title>q1t3&#45;&gt;q1t3</title>
<path fill="none" stroke="#000000" d="M309.0631,-237.258C308.6647,-247.7175 311.6529,-256.4112 318.0279,-256.4112 322.1119,-256.4112 324.806,-252.8433 326.1102,-247.529"/>
<polygon fill="#000000" stroke="#000000" points="329.6237,-247.521 326.9928,-237.258 322.6494,-246.9216 329.6237,-247.521"/>
<text text-anchor="middle" x="318.0279" y="-260.6112" font-family="Times,serif" font-size="14.00" fill="#000000">b</text>
</g>
<!-- q2t3 -->
<g id="node7" class="node">
<title>q2t3</title>
<ellipse fill="none" stroke="#000000" cx="417.4391" cy="-157.2056" rx="28.4127" ry="28.4127"/>
<text text-anchor="middle" x="417.4391" y="-153.0056" font-family="Times,serif" font-size="14.00" fill="#000000">q2t3</text>
</g>
<!-- q1t3&#45;&gt;q2t3 -->
<g id="edge6" class="edge">
<title>q1t3&#45;&gt;q2t3</title>
<path fill="none" stroke="#000000" d="M343.1136,-196.8315C355.358,-190.3035 370.269,-182.3539 383.5125,-175.2932"/>
<polygon fill="#000000" stroke="#000000" points="385.1839,-178.3685 392.3615,-170.5754 381.8907,-172.1916 385.1839,-178.3685"/>
<text text-anchor="middle" x="367.7335" y="-189.4056" font-family="Times,serif" font-size="14.00" fill="#000000">a</text>
</g>
<!-- q2t1&#45;&gt;q2t2 -->
<g id="edge9" class="edge">
<title>q2t1&#45;&gt;q2t2</title>
<path fill="none" stroke="#000000" d="M243.7024,-96.5797C255.9468,-103.1077 270.8578,-111.0573 284.1014,-118.118"/>
<polygon fill="#000000" stroke="#000000" points="282.4795,-121.2196 292.9503,-122.8357 285.7727,-115.0426 282.4795,-121.2196"/>
<text text-anchor="middle" x="268.3224" y="-116.4056" font-family="Times,serif" font-size="14.00" fill="#000000">b</text>
</g>
<!-- q3t1 -->
<g id="node8" class="node">
<title>q3t1</title>
<ellipse fill="none" stroke="#000000" cx="318.0279" cy="-28.2056" rx="28.4127" ry="28.4127"/>
<text text-anchor="middle" x="318.0279" y="-24.0056" font-family="Times,serif" font-size="14.00" fill="#000000">q3t1</text>
</g>
<!-- q2t1&#45;&gt;q3t1 -->
<g id="edge8" class="edge">
<title>q2t1&#45;&gt;q3t1</title>
<path fill="none" stroke="#000000" d="M243.446,-69.4686C255.7818,-62.6438 270.8718,-54.2951 284.2432,-46.8973"/>
<polygon fill="#000000" stroke="#000000" points="286.115,-49.8617 293.1707,-41.958 282.7262,-43.7366 286.115,-49.8617"/>
<text text-anchor="middle" x="268.3224" y="-62.4056" font-family="Times,serif" font-size="14.00" fill="#000000">a</text>
</g>
<!-- q2t2&#45;&gt;q2t3 -->
<g id="edge11" class="edge">
<title>q2t2&#45;&gt;q2t3</title>
<path fill="none" stroke="#000000" d="M345.7195,-142.0553C356.1882,-144.2667 368.2895,-146.823 379.5353,-149.1986"/>
<polygon fill="#000000" stroke="#000000" points="379.0438,-152.672 389.5513,-151.3145 380.4906,-145.8231 379.0438,-152.672"/>
<text text-anchor="middle" x="367.7335" y="-151.4056" font-family="Times,serif" font-size="14.00" fill="#000000">b</text>
</g>
<!-- q3t2 -->
<g id="node9" class="node">
<title>q3t2</title>
<ellipse fill="none" stroke="#000000" cx="417.4391" cy="-49.2056" rx="28.4127" ry="28.4127"/>
<text text-anchor="middle" x="417.4391" y="-45.0056" font-family="Times,serif" font-size="14.00" fill="#000000">q3t2</text>
</g>
<!-- q2t2&#45;&gt;q3t2 -->
<g id="edge10" class="edge">
<title>q2t2&#45;&gt;q3t2</title>
<path fill="none" stroke="#000000" d="M339.5987,-117.3279C353.7981,-104.9012 372.5651,-88.4772 388.114,-74.8696"/>
<polygon fill="#000000" stroke="#000000" points="390.6903,-77.266 395.9105,-68.0465 386.0803,-71.9984 390.6903,-77.266"/>
<text text-anchor="middle" x="367.7335" y="-100.4056" font-family="Times,serif" font-size="14.00" fill="#000000">a</text>
</g>
<!-- q2t3&#45;&gt;q2t3 -->
<g id="edge13" class="edge">
<title>q2t3&#45;&gt;q2t3</title>
<path fill="none" stroke="#000000" d="M408.4743,-184.258C408.0758,-194.7175 411.0641,-203.4112 417.4391,-203.4112 421.5231,-203.4112 424.2172,-199.8433 425.5214,-194.529"/>
<polygon fill="#000000" stroke="#000000" points="429.0348,-194.521 426.404,-184.258 422.0606,-193.9216 429.0348,-194.521"/>
<text text-anchor="middle" x="417.4391" y="-207.6112" font-family="Times,serif" font-size="14.00" fill="#000000">b</text>
</g>
<!-- q3t3 -->
<g id="node10" class="node">
<title>q3t3</title>
<ellipse fill="none" stroke="#000000" cx="520.8503" cy="-103.2056" rx="28.3868" ry="28.3868"/>
<ellipse fill="none" stroke="#000000" cx="520.8503" cy="-103.2056" rx="32.4125" ry="32.4125"/>
<text text-anchor="middle" x="520.8503" y="-99.0056" font-family="Times,serif" font-size="14.00" fill="#000000">q3t3</text>
</g>
<!-- q2t3&#45;&gt;q3t3 -->
<g id="edge12" class="edge">
<title>q2t3&#45;&gt;q3t3</title>
<path fill="none" stroke="#000000" d="M442.4721,-144.1337C454.6139,-137.7934 469.4579,-130.042 482.949,-122.9972"/>
<polygon fill="#000000" stroke="#000000" points="484.7789,-125.9901 492.0231,-118.2588 481.5387,-119.7852 484.7789,-125.9901"/>
<text text-anchor="middle" x="467.1447" y="-135.4056" font-family="Times,serif" font-size="14.00" fill="#000000">a</text>
</g>
<!-- q3t1&#45;&gt;q3t1 -->
<g id="edge14" class="edge">
<title>q3t1&#45;&gt;q3t1</title>
<path fill="none" stroke="#000000" d="M309.0631,-55.258C308.6647,-65.7175 311.6529,-74.4112 318.0279,-74.4112 322.1119,-74.4112 324.806,-70.8433 326.1102,-65.529"/>
<polygon fill="#000000" stroke="#000000" points="329.6237,-65.521 326.9928,-55.258 322.6494,-64.9216 329.6237,-65.521"/>
<text text-anchor="middle" x="318.0279" y="-78.6112" font-family="Times,serif" font-size="14.00" fill="#000000">a</text>
</g>
<!-- q3t1&#45;&gt;q3t2 -->
<g id="edge17" class="edge">
<title>q3t1&#45;&gt;q3t2</title>
<path fill="none" stroke="#000000" d="M345.7195,-34.0553C356.1882,-36.2667 368.2895,-38.823 379.5353,-41.1986"/>
<polygon fill="#000000" stroke="#000000" points="379.0438,-44.672 389.5513,-43.3145 380.4906,-37.8231 379.0438,-44.672"/>
<text text-anchor="middle" x="367.7335" y="-44.4056" font-family="Times,serif" font-size="14.00" fill="#000000">b</text>
</g>
<!-- q3t2&#45;&gt;q3t2 -->
<g id="edge15" class="edge">
<title>q3t2&#45;&gt;q3t2</title>
<path fill="none" stroke="#000000" d="M408.4743,-76.258C408.0758,-86.7175 411.0641,-95.4112 417.4391,-95.4112 421.5231,-95.4112 424.2172,-91.8433 425.5214,-86.529"/>
<polygon fill="#000000" stroke="#000000" points="429.0348,-86.521 426.404,-76.258 422.0606,-85.9216 429.0348,-86.521"/>
<text text-anchor="middle" x="417.4391" y="-99.6112" font-family="Times,serif" font-size="14.00" fill="#000000">a</text>
</g>
<!-- q3t2&#45;&gt;q3t3 -->
<g id="edge18" class="edge">
<title>q3t2&#45;&gt;q3t3</title>
<path fill="none" stroke="#000000" d="M442.4721,-62.2775C454.6139,-68.6178 469.4579,-76.3691 482.949,-83.414"/>
<polygon fill="#000000" stroke="#000000" points="481.5387,-86.626 492.0231,-88.1524 484.7789,-80.4211 481.5387,-86.626"/>
<text text-anchor="middle" x="467.1447" y="-80.4056" font-family="Times,serif" font-size="14.00" fill="#000000">b</text>
</g>
<!-- q3t3&#45;&gt;q3t3 -->
<g id="edge16" class="edge">
<title>q3t3&#45;&gt;q3t3</title>
<path fill="none" stroke="#000000" d="M511.1027,-134.0923C510.9995,-144.7801 514.2487,-153.4112 520.8503,-153.4112 525.1826,-153.4112 528.0711,-149.6941 529.5159,-144.1179"/>
<polygon fill="#000000" stroke="#000000" points="533.0046,-144.4101 530.5979,-134.0923 526.045,-143.659 533.0046,-144.4101"/>
<text text-anchor="middle" x="520.8503" y="-157.6112" font-family="Times,serif" font-size="14.00" fill="#000000">a, b</text>
</g>
</g>
</svg>
