<?xml version="1.0" encoding="UTF-8" standalone="no"?>
<!DOCTYPE svg PUBLIC "-//W3C//DTD SVG 1.1//EN"
 "http://www.w3.org/Graphics/SVG/1.1/DTD/svg11.dtd">
<!-- Generated by graphviz version 2.40.1 (20161225.0304)
 -->
<!-- Title: G Pages: 1 -->
<svg width="237pt" height="53pt"
 viewBox="0.00 0.00 237.41 53.23" xmlns="http://www.w3.org/2000/svg" xmlns:xlink="http://www.w3.org/1999/xlink">
<g id="graph0" class="graph" transform="scale(1 1) rotate(0) translate(4 49.2312)">
<title>G</title>
<polygon fill="#ffffff" stroke="transparent" points="-4,4 -4,-49.2312 233.4092,-49.2312 233.4092,4 -4,4"/>
<!-- start -->
<g id="node1" class="node">
<title>start</title>
<text text-anchor="middle" x="27" y="-18.4826" font-family="Times,serif" font-size="14.00" fill="#000000">start</text>
</g>
<!-- t1 -->
<g id="node2" class="node">
<title>t1</title>
<ellipse fill="none" stroke="#000000" cx="109.5486" cy="-22.6826" rx="18.5974" ry="18.5974"/>
<text text-anchor="middle" x="109.5486" y="-18.4826" font-family="Times,serif" font-size="14.00" fill="#000000">t1</text>
</g>
<!-- start&#45;&gt;t1 -->
<g id="edge1" class="edge">
<title>start&#45;&gt;t1</title>
<path fill="none" stroke="#000000" d="M54.0295,-22.6826C62.5873,-22.6826 72.0763,-22.6826 80.7532,-22.6826"/>
<polygon fill="#000000" stroke="#000000" points="80.8171,-26.1827 90.8171,-22.6826 80.817,-19.1827 80.8171,-26.1827"/>
</g>
<!-- t2 -->
<g id="node3" class="node">
<title>t2</title>
<ellipse fill="none" stroke="#000000" cx="206.8605" cy="-22.6826" rx="18.5887" ry="18.5887"/>
<ellipse fill="none" stroke="#000000" cx="206.8605" cy="-22.6826" rx="22.5974" ry="22.5974"/>
<text text-anchor="middle" x="206.8605" y="-18.4826" font-family="Times,serif" font-size="14.00" fill="#000000">t2</text>
</g>
<!-- t1&#45;&gt;t2 -->
<g id="edge2" class="edge">
<title>t1&#45;&gt;t2</title>
<path fill="none" stroke="#000000" d="M128.3114,-22.6826C141.2352,-22.6826 158.753,-22.6826 173.9661,-22.6826"/>
<polygon fill="#000000" stroke="#000000" points="174.0453,-26.1827 184.0452,-22.6826 174.0452,-19.1827 174.0453,-26.1827"/>
<text text-anchor="middle" x="156.2046" y="-26.8826" font-family="Times,serif" font-size="14.00" fill="#000000">a, b</text>
</g>
<!-- t2&#45;&gt;t1 -->
<g id="edge3" class="edge">
<title>t2&#45;&gt;t1</title>
<path fill="none" stroke="#000000" d="M187.9174,-10.1198C176.0361,-3.7651 160.3257,1.8826 146.0973,-1.8826 141.889,-2.9962 137.6584,-4.7194 133.6441,-6.7079"/>
<polygon fill="#000000" stroke="#000000" points="131.7997,-3.7292 124.7823,-11.6669 135.2181,-9.8378 131.7997,-3.7292"/>
<text text-anchor="middle" x="156.2046" y="-5.8826" font-family="Times,serif" font-size="14.00" fill="#000000">a, b</text>
</g>
</g>
</svg>
