<?xml version="1.0" encoding="UTF-8" standalone="no"?>
<!DOCTYPE svg PUBLIC "-//W3C//DTD SVG 1.1//EN"
 "http://www.w3.org/Graphics/SVG/1.1/DTD/svg11.dtd">
<!-- Generated by graphviz version 2.40.1 (20161225.0304)
 -->
<!-- Title: G Pages: 1 -->
<svg width="232pt" height="92pt"
 viewBox="0.00 0.00 231.99 92.19" xmlns="http://www.w3.org/2000/svg" xmlns:xlink="http://www.w3.org/1999/xlink">
<g id="graph0" class="graph" transform="scale(1 1) rotate(0) translate(4 88.1869)">
<title>G</title>
<polygon fill="#ffffff" stroke="transparent" points="-4,4 -4,-88.1869 227.9884,-88.1869 227.9884,4 -4,4"/>
<!-- start -->
<g id="node1" class="node">
<title>start</title>
<text text-anchor="middle" x="27" y="-20.4935" font-family="Times,serif" font-size="14.00" fill="#000000">start</text>
</g>
<!-- q1 -->
<g id="node3" class="node">
<title>q1</title>
<ellipse fill="none" stroke="#000000" cx="115.6935" cy="-24.6935" rx="20.8568" ry="20.8568"/>
<ellipse fill="none" stroke="#000000" cx="115.6935" cy="-24.6935" rx="24.8884" ry="24.8884"/>
<text text-anchor="middle" x="115.6935" y="-20.4935" font-family="Times,serif" font-size="14.00" fill="#000000">q1</text>
</g>
<!-- start&#45;&gt;q1 -->
<g id="edge1" class="edge">
<title>start&#45;&gt;q1</title>
<path fill="none" stroke="#000000" d="M54.0929,-24.6935C62.5145,-24.6935 71.9196,-24.6935 80.7952,-24.6935"/>
<polygon fill="#000000" stroke="#000000" points="80.8805,-28.1936 90.8805,-24.6935 80.8805,-21.1936 80.8805,-28.1936"/>
</g>
<!-- q2 -->
<g id="node2" class="node">
<title>q2</title>
<ellipse fill="none" stroke="#000000" cx="203.295" cy="-24.6935" rx="20.8887" ry="20.8887"/>
<text text-anchor="middle" x="203.295" y="-20.4935" font-family="Times,serif" font-size="14.00" fill="#000000">q2</text>
</g>
<!-- q2&#45;&gt;q2 -->
<g id="edge4" class="edge">
<title>q2&#45;&gt;q2</title>
<path fill="none" stroke="#000000" d="M196.0586,-44.2043C194.9453,-54.2929 197.3575,-63.3869 203.295,-63.3869 207.0987,-63.3869 209.4556,-59.6547 210.3656,-54.3198"/>
<polygon fill="#000000" stroke="#000000" points="213.867,-54.2603 210.5313,-44.2043 206.8679,-54.1456 213.867,-54.2603"/>
<text text-anchor="middle" x="203.295" y="-67.5869" font-family="Times,serif" font-size="14.00" fill="#000000">b</text>
</g>
<!-- q2&#45;&gt;q1 -->
<g id="edge5" class="edge">
<title>q2&#45;&gt;q1</title>
<path fill="none" stroke="#000000" d="M185.9405,-13.0096C179.5195,-9.3365 171.9974,-5.7553 164.6015,-3.8935 158.1423,-2.2674 151.437,-3.2123 145.138,-5.4074"/>
<polygon fill="#000000" stroke="#000000" points="143.3331,-2.3826 135.6677,-9.6964 146.221,-8.7591 143.3331,-2.3826"/>
<text text-anchor="middle" x="161.4942" y="-7.8935" font-family="Times,serif" font-size="14.00" fill="#000000">a</text>
</g>
<!-- q1&#45;&gt;q2 -->
<g id="edge3" class="edge">
<title>q1&#45;&gt;q2</title>
<path fill="none" stroke="#000000" d="M140.5622,-24.6935C150.3984,-24.6935 161.8118,-24.6935 172.1857,-24.6935"/>
<polygon fill="#000000" stroke="#000000" points="172.5104,-28.1935 182.5103,-24.6935 172.5103,-21.1935 172.5104,-28.1935"/>
<text text-anchor="middle" x="161.4942" y="-28.8935" font-family="Times,serif" font-size="14.00" fill="#000000">a</text>
</g>
<!-- q1&#45;&gt;q1 -->
<g id="edge2" class="edge">
<title>q1&#45;&gt;q1</title>
<path fill="none" stroke="#000000" d="M107.9127,-48.4015C107.2756,-58.6297 109.8692,-67.3869 115.6935,-67.3869 119.4246,-67.3869 121.8299,-63.7929 122.9093,-58.5207"/>
<polygon fill="#000000" stroke="#000000" points="126.4113,-58.5811 123.4742,-48.4015 119.4222,-58.1908 126.4113,-58.5811"/>
<text text-anchor="middle" x="115.6935" y="-71.5869" font-family="Times,serif" font-size="14.00" fill="#000000">b</text>
</g>
</g>
</svg>
