<?xml version="1.0" encoding="UTF-8" standalone="no"?>
<!DOCTYPE svg PUBLIC "-//W3C//DTD SVG 1.1//EN"
 "http://www.w3.org/Graphics/SVG/1.1/DTD/svg11.dtd">
<!-- Generated by graphviz version 2.40.1 (20161225.0304)
 -->
<!-- Title: G Pages: 1 -->
<svg width="614pt" height="147pt"
 viewBox="0.00 0.00 613.91 147.41" xmlns="http://www.w3.org/2000/svg" xmlns:xlink="http://www.w3.org/1999/xlink">
<g id="graph0" class="graph" transform="scale(1 1) rotate(0) translate(4 143.4112)">
<title>G</title>
<polygon fill="#ffffff" stroke="transparent" points="-4,4 -4,-143.4112 609.9143,-143.4112 609.9143,4 -4,4"/>
<!-- start -->
<g id="node1" class="node">
<title>start</title>
<text text-anchor="middle" x="27" y="-103.0056" font-family="Times,serif" font-size="14.00" fill="#000000">start</text>
</g>
<!-- q1t1 -->
<g id="node2" class="node">
<title>q1t1</title>
<ellipse fill="none" stroke="#000000" cx="119.2056" cy="-107.2056" rx="28.4127" ry="28.4127"/>
<text text-anchor="middle" x="119.2056" y="-103.0056" font-family="Times,serif" font-size="14.00" fill="#000000">q1t1</text>
</g>
<!-- start&#45;&gt;q1t1 -->
<g id="edge1" class="edge">
<title>start&#45;&gt;q1t1</title>
<path fill="none" stroke="#000000" d="M54.166,-107.2056C62.4895,-107.2056 71.8098,-107.2056 80.7372,-107.2056"/>
<polygon fill="#000000" stroke="#000000" points="80.9536,-110.7057 90.9535,-107.2056 80.9535,-103.7057 80.9536,-110.7057"/>
</g>
<!-- q2t2 -->
<g id="node5" class="node">
<title>q2t2</title>
<ellipse fill="none" stroke="#000000" cx="231.8314" cy="-107.2056" rx="28.4127" ry="28.4127"/>
<text text-anchor="middle" x="231.8314" y="-103.0056" font-family="Times,serif" font-size="14.00" fill="#000000">q2t2</text>
</g>
<!-- q1t1&#45;&gt;q2t2 -->
<g id="edge2" class="edge">
<title>q1t1&#45;&gt;q2t2</title>
<path fill="none" stroke="#000000" d="M147.6258,-107.2056C161.4978,-107.2056 178.3909,-107.2056 193.395,-107.2056"/>
<polygon fill="#000000" stroke="#000000" points="193.4203,-110.7057 203.4202,-107.2056 193.4202,-103.7057 193.4203,-110.7057"/>
<text text-anchor="middle" x="175.5185" y="-111.4056" font-family="Times,serif" font-size="14.00" fill="#000000">a, b</text>
</g>
<!-- q1t2 -->
<g id="node3" class="node">
<title>q1t2</title>
<ellipse fill="none" stroke="#000000" cx="231.8314" cy="-28.2056" rx="28.4127" ry="28.4127"/>
<text text-anchor="middle" x="231.8314" y="-24.0056" font-family="Times,serif" font-size="14.00" fill="#000000">q1t2</text>
</g>
<!-- q2t1 -->
<g id="node4" class="node">
<title>q2t1</title>
<ellipse fill="none" stroke="#000000" cx="344.4571" cy="-28.2056" rx="28.4127" ry="28.4127"/>
<text text-anchor="middle" x="344.4571" y="-24.0056" font-family="Times,serif" font-size="14.00" fill="#000000">q2t1</text>
</g>
<!-- q1t2&#45;&gt;q2t1 -->
<g id="edge7" class="edge">
<title>q1t2&#45;&gt;q2t1</title>
<path fill="none" stroke="#000000" d="M260.2516,-28.2056C274.1236,-28.2056 291.0167,-28.2056 306.0207,-28.2056"/>
<polygon fill="#000000" stroke="#000000" points="306.046,-31.7057 316.046,-28.2056 306.046,-24.7057 306.046,-31.7057"/>
<text text-anchor="middle" x="288.1443" y="-32.4056" font-family="Times,serif" font-size="14.00" fill="#000000">a, b</text>
</g>
<!-- q3t2 -->
<g id="node7" class="node">
<title>q3t2</title>
<ellipse fill="none" stroke="#000000" cx="461.0829" cy="-28.2056" rx="28.4127" ry="28.4127"/>
<text text-anchor="middle" x="461.0829" y="-24.0056" font-family="Times,serif" font-size="14.00" fill="#000000">q3t2</text>
</g>
<!-- q2t1&#45;&gt;q3t2 -->
<g id="edge8" class="edge">
<title>q2t1&#45;&gt;q3t2</title>
<path fill="none" stroke="#000000" d="M372.689,-28.2056C387.62,-28.2056 406.1744,-28.2056 422.4232,-28.2056"/>
<polygon fill="#000000" stroke="#000000" points="422.7069,-31.7057 432.7068,-28.2056 422.7068,-24.7057 422.7069,-31.7057"/>
<text text-anchor="middle" x="400.77" y="-32.4056" font-family="Times,serif" font-size="14.00" fill="#000000">a, b</text>
</g>
<!-- q3t1 -->
<g id="node6" class="node">
<title>q3t1</title>
<ellipse fill="none" stroke="#000000" cx="344.4571" cy="-107.2056" rx="28.4127" ry="28.4127"/>
<text text-anchor="middle" x="344.4571" y="-103.0056" font-family="Times,serif" font-size="14.00" fill="#000000">q3t1</text>
</g>
<!-- q2t2&#45;&gt;q3t1 -->
<g id="edge3" class="edge">
<title>q2t2&#45;&gt;q3t1</title>
<path fill="none" stroke="#000000" d="M260.2516,-107.2056C274.1236,-107.2056 291.0167,-107.2056 306.0207,-107.2056"/>
<polygon fill="#000000" stroke="#000000" points="306.046,-110.7057 316.046,-107.2056 306.046,-103.7057 306.046,-110.7057"/>
<text text-anchor="middle" x="288.1443" y="-111.4056" font-family="Times,serif" font-size="14.00" fill="#000000">a, b</text>
</g>
<!-- q4t2 -->
<g id="node9" class="node">
<title>q4t2</title>
<ellipse fill="none" stroke="#000000" cx="461.0829" cy="-107.2056" rx="28.3868" ry="28.3868"/>
<ellipse fill="none" stroke="#000000" cx="461.0829" cy="-107.2056" rx="32.4125" ry="32.4125"/>
<text text-anchor="middle" x="461.0829" y="-103.0056" font-family="Times,serif" font-size="14.00" fill="#000000">q4t2</text>
</g>
<!-- q3t1&#45;&gt;q4t2 -->
<g id="edge4" class="edge">
<title>q3t1&#45;&gt;q4t2</title>
<path fill="none" stroke="#000000" d="M372.689,-107.2056C386.3824,-107.2056 403.1233,-107.2056 418.3384,-107.2056"/>
<polygon fill="#000000" stroke="#000000" points="418.572,-110.7057 428.5719,-107.2056 418.5719,-103.7057 418.572,-110.7057"/>
<text text-anchor="middle" x="400.77" y="-111.4056" font-family="Times,serif" font-size="14.00" fill="#000000">a, b</text>
</g>
<!-- q4t1 -->
<g id="node8" class="node">
<title>q4t1</title>
<ellipse fill="none" stroke="#000000" cx="577.7087" cy="-68.2056" rx="28.4127" ry="28.4127"/>
<text text-anchor="middle" x="577.7087" y="-64.0056" font-family="Times,serif" font-size="14.00" fill="#000000">q4t1</text>
</g>
<!-- q3t2&#45;&gt;q4t1 -->
<g id="edge9" class="edge">
<title>q3t2&#45;&gt;q4t1</title>
<path fill="none" stroke="#000000" d="M489.4342,-31.2772C502.5202,-33.2582 518.0928,-36.4275 531.5031,-41.4056 536.0456,-43.0918 540.6587,-45.2062 545.1243,-47.5036"/>
<polygon fill="#000000" stroke="#000000" points="543.5654,-50.6407 554.0135,-52.398 546.9417,-44.5088 543.5654,-50.6407"/>
<text text-anchor="middle" x="521.3958" y="-46.4056" font-family="Times,serif" font-size="14.00" fill="#000000">a, b</text>
</g>
<!-- q4t1&#45;&gt;q4t2 -->
<g id="edge6" class="edge">
<title>q4t1&#45;&gt;q4t2</title>
<path fill="none" stroke="#000000" d="M549.8423,-62.37C537.6766,-60.994 523.4439,-61.0078 511.2885,-65.4056 504.1028,-68.0054 497.2219,-72.132 490.9831,-76.8017"/>
<polygon fill="#000000" stroke="#000000" points="488.4266,-74.3713 482.9053,-83.4138 492.8604,-79.7881 488.4266,-74.3713"/>
<text text-anchor="middle" x="521.3958" y="-70.4056" font-family="Times,serif" font-size="14.00" fill="#000000">a, b</text>
</g>
<!-- q4t2&#45;&gt;q4t1 -->
<g id="edge5" class="edge">
<title>q4t2&#45;&gt;q4t1</title>
<path fill="none" stroke="#000000" d="M492.1072,-98.5471C504.4406,-94.9509 518.7124,-90.596 531.5031,-86.2056 534.862,-85.0527 538.3381,-83.804 541.8064,-82.5202"/>
<polygon fill="#000000" stroke="#000000" points="543.3477,-85.679 551.4566,-78.8603 540.8653,-79.1339 543.3477,-85.679"/>
<text text-anchor="middle" x="521.3958" y="-97.4056" font-family="Times,serif" font-size="14.00" fill="#000000">a, b</text>
</g>
</g>
</svg>
