<?xml version="1.0" encoding="UTF-8" standalone="no"?>
<!DOCTYPE svg PUBLIC "-//W3C//DTD SVG 1.1//EN"
 "http://www.w3.org/Graphics/SVG/1.1/DTD/svg11.dtd">
<!-- Generated by graphviz version 2.40.1 (20161225.0304)
 -->
<!-- Title: G Pages: 1 -->
<svg width="692pt" height="259pt"
 viewBox="0.00 0.00 691.68 258.80" xmlns="http://www.w3.org/2000/svg" xmlns:xlink="http://www.w3.org/1999/xlink">
<g id="graph0" class="graph" transform="scale(1 1) rotate(0) translate(4 254.8)">
<title>G</title>
<polygon fill="#ffffff" stroke="transparent" points="-4,4 -4,-254.8 687.6817,-254.8 687.6817,4 -4,4"/>
<!-- start -->
<g id="node1" class="node">
<title>start</title>
<text text-anchor="middle" x="27" y="-71.8" font-family="Times,serif" font-size="14.00" fill="#000000">start</text>
</g>
<!-- q1t1 -->
<g id="node2" class="node">
<title>q1t1</title>
<ellipse fill="none" stroke="#000000" cx="119.2056" cy="-76" rx="28.4127" ry="28.4127"/>
<text text-anchor="middle" x="119.2056" y="-71.8" font-family="Times,serif" font-size="14.00" fill="#000000">q1t1</text>
</g>
<!-- start&#45;&gt;q1t1 -->
<g id="edge1" class="edge">
<title>start&#45;&gt;q1t1</title>
<path fill="none" stroke="#000000" d="M54.166,-76C62.4895,-76 71.8098,-76 80.7372,-76"/>
<polygon fill="#000000" stroke="#000000" points="80.9536,-79.5001 90.9535,-76 80.9535,-72.5001 80.9536,-79.5001"/>
</g>
<!-- q1t2 -->
<g id="node3" class="node">
<title>q1t2</title>
<ellipse fill="none" stroke="#000000" cx="222.6168" cy="-177" rx="28.3868" ry="28.3868"/>
<ellipse fill="none" stroke="#000000" cx="222.6168" cy="-177" rx="32.4125" ry="32.4125"/>
<text text-anchor="middle" x="222.6168" y="-172.8" font-family="Times,serif" font-size="14.00" fill="#000000">q1t2</text>
</g>
<!-- q1t1&#45;&gt;q1t2 -->
<g id="edge3" class="edge">
<title>q1t1&#45;&gt;q1t2</title>
<path fill="none" stroke="#000000" d="M139.6363,-95.9543C154.5412,-110.5117 174.9999,-130.4934 191.8733,-146.9734"/>
<polygon fill="#000000" stroke="#000000" points="189.7413,-149.7835 199.3408,-154.2668 194.6323,-144.7756 189.7413,-149.7835"/>
<text text-anchor="middle" x="168.9112" y="-130.2" font-family="Times,serif" font-size="14.00" fill="#000000">b</text>
</g>
<!-- q2t1 -->
<g id="node5" class="node">
<title>q2t1</title>
<ellipse fill="none" stroke="#000000" cx="544.0649" cy="-57" rx="28.3868" ry="28.3868"/>
<ellipse fill="none" stroke="#000000" cx="544.0649" cy="-57" rx="32.4125" ry="32.4125"/>
<text text-anchor="middle" x="544.0649" y="-52.8" font-family="Times,serif" font-size="14.00" fill="#000000">q2t1</text>
</g>
<!-- q1t1&#45;&gt;q2t1 -->
<g id="edge2" class="edge">
<title>q1t1&#45;&gt;q2t1</title>
<path fill="none" stroke="#000000" d="M135.8537,-53.1975C154.3062,-30.8112 186.2997,0 222.6168,0 222.6168,0 222.6168,0 436.6537,0 464.177,0 491.5248,-14.7837 511.7374,-29.2931"/>
<polygon fill="#000000" stroke="#000000" points="509.8436,-32.2479 519.9428,-35.4507 514.0452,-26.6491 509.8436,-32.2479"/>
<text text-anchor="middle" x="330.0279" y="-4.2" font-family="Times,serif" font-size="14.00" fill="#000000">a</text>
</g>
<!-- q1t3 -->
<g id="node4" class="node">
<title>q1t3</title>
<ellipse fill="none" stroke="#000000" cx="330.0279" cy="-121" rx="28.3868" ry="28.3868"/>
<ellipse fill="none" stroke="#000000" cx="330.0279" cy="-121" rx="32.4125" ry="32.4125"/>
<text text-anchor="middle" x="330.0279" y="-116.8" font-family="Times,serif" font-size="14.00" fill="#000000">q1t3</text>
</g>
<!-- q1t2&#45;&gt;q1t3 -->
<g id="edge5" class="edge">
<title>q1t2&#45;&gt;q1t3</title>
<path fill="none" stroke="#000000" d="M251.2425,-161.6028C258.285,-157.847 265.8155,-153.8581 272.8224,-150.2 278.9987,-146.9756 285.568,-143.5856 291.9705,-140.3029"/>
<polygon fill="#000000" stroke="#000000" points="293.8553,-143.2703 301.1663,-135.6021 290.6691,-137.0374 293.8553,-143.2703"/>
<text text-anchor="middle" x="276.3224" y="-154.2" font-family="Times,serif" font-size="14.00" fill="#000000">b</text>
</g>
<!-- q2t2 -->
<g id="node6" class="node">
<title>q2t2</title>
<ellipse fill="none" stroke="#000000" cx="651.4761" cy="-154" rx="28.3868" ry="28.3868"/>
<ellipse fill="none" stroke="#000000" cx="651.4761" cy="-154" rx="32.4125" ry="32.4125"/>
<text text-anchor="middle" x="651.4761" y="-149.8" font-family="Times,serif" font-size="14.00" fill="#000000">q2t2</text>
</g>
<!-- q1t2&#45;&gt;q2t2 -->
<g id="edge4" class="edge">
<title>q1t2&#45;&gt;q2t2</title>
<path fill="none" stroke="#000000" d="M246.7389,-198.5493C267.3468,-214.6907 298.5728,-234 330.0279,-234 330.0279,-234 330.0279,-234 544.0649,-234 576.9279,-234 606.2437,-209.6154 625.9122,-187.7714"/>
<polygon fill="#000000" stroke="#000000" points="628.5685,-190.0505 632.4569,-180.195 623.2712,-185.4746 628.5685,-190.0505"/>
<text text-anchor="middle" x="436.6537" y="-238.2" font-family="Times,serif" font-size="14.00" fill="#000000">a</text>
</g>
<!-- q1t3&#45;&gt;q1t1 -->
<g id="edge7" class="edge">
<title>q1t3&#45;&gt;q1t1</title>
<path fill="none" stroke="#000000" d="M298.4746,-114.2649C260.7297,-106.2083 197.5889,-92.7309 157.1997,-84.1098"/>
<polygon fill="#000000" stroke="#000000" points="157.7115,-80.6403 147.2012,-81.9757 156.2502,-87.4861 157.7115,-80.6403"/>
<text text-anchor="middle" x="222.6168" y="-109.2" font-family="Times,serif" font-size="14.00" fill="#000000">b</text>
</g>
<!-- q2t3 -->
<g id="node7" class="node">
<title>q2t3</title>
<ellipse fill="none" stroke="#000000" cx="436.6537" cy="-113" rx="28.3868" ry="28.3868"/>
<ellipse fill="none" stroke="#000000" cx="436.6537" cy="-113" rx="32.4125" ry="32.4125"/>
<text text-anchor="middle" x="436.6537" y="-108.8" font-family="Times,serif" font-size="14.00" fill="#000000">q2t3</text>
</g>
<!-- q1t3&#45;&gt;q2t3 -->
<g id="edge6" class="edge">
<title>q1t3&#45;&gt;q2t3</title>
<path fill="none" stroke="#000000" d="M362.3086,-118.578C372.4346,-117.8183 383.7662,-116.9681 394.4711,-116.1649"/>
<polygon fill="#000000" stroke="#000000" points="394.7728,-119.6522 404.4828,-115.4137 394.249,-112.6718 394.7728,-119.6522"/>
<text text-anchor="middle" x="383.3408" y="-121.2" font-family="Times,serif" font-size="14.00" fill="#000000">a</text>
</g>
<!-- q2t1&#45;&gt;q1t1 -->
<g id="edge8" class="edge">
<title>q2t1&#45;&gt;q1t1</title>
<path fill="none" stroke="#000000" d="M511.6444,-55.1639C490.3381,-54.1124 461.8457,-53 436.6537,-53 222.6168,-53 222.6168,-53 222.6168,-53 200.0636,-53 175.3893,-58.2772 155.8008,-63.7761"/>
<polygon fill="#000000" stroke="#000000" points="154.6629,-60.4625 146.059,-66.645 156.6404,-67.1773 154.6629,-60.4625"/>
<text text-anchor="middle" x="330.0279" y="-57.2" font-family="Times,serif" font-size="14.00" fill="#000000">a</text>
</g>
<!-- q2t1&#45;&gt;q2t2 -->
<g id="edge9" class="edge">
<title>q2t1&#45;&gt;q2t2</title>
<path fill="none" stroke="#000000" d="M570.3699,-75.9936C580.3227,-83.5202 591.5807,-92.4547 601.2705,-101.2 608.5112,-107.735 615.945,-115.1235 622.7986,-122.2586"/>
<polygon fill="#000000" stroke="#000000" points="620.559,-124.9845 629.9712,-129.8489 625.6469,-120.1768 620.559,-124.9845"/>
<text text-anchor="middle" x="597.7705" y="-106.2" font-family="Times,serif" font-size="14.00" fill="#000000">b</text>
</g>
<!-- q2t2&#45;&gt;q1t2 -->
<g id="edge10" class="edge">
<title>q2t2&#45;&gt;q1t2</title>
<path fill="none" stroke="#000000" d="M621.4243,-165.764C600.1613,-173.04 570.7917,-181 544.0649,-181 330.0279,-181 330.0279,-181 330.0279,-181 308.6738,-181 284.9483,-180.2007 265.2382,-179.3168"/>
<polygon fill="#000000" stroke="#000000" points="265.191,-175.8108 255.0373,-178.8361 264.8614,-182.803 265.191,-175.8108"/>
<text text-anchor="middle" x="436.6537" y="-185.2" font-family="Times,serif" font-size="14.00" fill="#000000">a</text>
</g>
<!-- q2t2&#45;&gt;q2t3 -->
<g id="edge11" class="edge">
<title>q2t2&#45;&gt;q2t3</title>
<path fill="none" stroke="#000000" d="M619.6483,-147.9255C582.1479,-140.7683 519.7262,-128.8548 478.3809,-120.9639"/>
<polygon fill="#000000" stroke="#000000" points="478.8304,-117.4865 468.3515,-119.0497 477.518,-124.3624 478.8304,-117.4865"/>
<text text-anchor="middle" x="544.0649" y="-143.2" font-family="Times,serif" font-size="14.00" fill="#000000">b</text>
</g>
<!-- q2t3&#45;&gt;q1t3 -->
<g id="edge12" class="edge">
<title>q2t3&#45;&gt;q1t3</title>
<path fill="none" stroke="#000000" d="M407.8396,-98.4235C399.0374,-95.5966 389.2903,-94.0851 380.2335,-96.2 375.8551,-97.2224 371.42,-98.6849 367.0916,-100.395"/>
<polygon fill="#000000" stroke="#000000" points="365.5947,-97.2298 357.8501,-104.4597 368.413,-103.6374 365.5947,-97.2298"/>
<text text-anchor="middle" x="383.3408" y="-101.2" font-family="Times,serif" font-size="14.00" fill="#000000">a</text>
</g>
<!-- q2t3&#45;&gt;q2t1 -->
<g id="edge13" class="edge">
<title>q2t3&#45;&gt;q2t1</title>
<path fill="none" stroke="#000000" d="M465.438,-97.993C477.9595,-91.4648 492.8034,-83.7258 506.2022,-76.7401"/>
<polygon fill="#000000" stroke="#000000" points="507.9521,-79.775 515.2012,-72.0484 504.7159,-73.5679 507.9521,-79.775"/>
<text text-anchor="middle" x="490.3593" y="-91.2" font-family="Times,serif" font-size="14.00" fill="#000000">b</text>
</g>
</g>
</svg>
