<?xml version="1.0" encoding="UTF-8" standalone="no"?>
<!DOCTYPE svg PUBLIC "-//W3C//DTD SVG 1.1//EN"
 "http://www.w3.org/Graphics/SVG/1.1/DTD/svg11.dtd">
<!-- Generated by graphviz version 2.40.1 (20161225.0304)
 -->
<!-- Title: G Pages: 1 -->
<svg width="2648pt" height="716pt"
 viewBox="0.00 0.00 2648.33 715.52" xmlns="http://www.w3.org/2000/svg" xmlns:xlink="http://www.w3.org/1999/xlink">
<g id="graph0" class="graph" transform="scale(1 1) rotate(0) translate(4 711.5199)">
<title>G</title>
<polygon fill="#ffffff" stroke="transparent" points="-4,4 -4,-711.5199 2644.3263,-711.5199 2644.3263,4 -4,4"/>
<!-- start -->
<g id="node1" class="node">
<title>start</title>
<text text-anchor="middle" x="27" y="-365.5199" font-family="Times,serif" font-size="14.00" fill="#000000">start</text>
</g>
<!-- q1 -->
<g id="node2" class="node">
<title>q1</title>
<ellipse fill="none" stroke="#000000" cx="111.6935" cy="-369.7199" rx="20.8887" ry="20.8887"/>
<text text-anchor="middle" x="111.6935" y="-365.5199" font-family="Times,serif" font-size="14.00" fill="#000000">q1</text>
</g>
<!-- start&#45;&gt;q1 -->
<g id="edge1" class="edge">
<title>start&#45;&gt;q1</title>
<path fill="none" stroke="#000000" d="M54.2637,-369.7199C62.7209,-369.7199 72.1012,-369.7199 80.7873,-369.7199"/>
<polygon fill="#000000" stroke="#000000" points="80.9294,-373.22 90.9294,-369.7199 80.9293,-366.22 80.9294,-373.22"/>
</g>
<!-- q2 -->
<g id="node3" class="node">
<title>q2</title>
<ellipse fill="none" stroke="#000000" cx="209.295" cy="-369.7199" rx="20.8887" ry="20.8887"/>
<text text-anchor="middle" x="209.295" y="-365.5199" font-family="Times,serif" font-size="14.00" fill="#000000">q2</text>
</g>
<!-- q1&#45;&gt;q2 -->
<g id="edge2" class="edge">
<title>q1&#45;&gt;q2</title>
<path fill="none" stroke="#000000" d="M132.3922,-369.7199C145.6304,-369.7199 163.054,-369.7199 177.9685,-369.7199"/>
<polygon fill="#000000" stroke="#000000" points="178.2896,-373.22 188.2895,-369.7199 178.2895,-366.22 178.2896,-373.22"/>
<text text-anchor="middle" x="160.4942" y="-373.9199" font-family="Times,serif" font-size="14.00" fill="#000000">a, b</text>
</g>
<!-- {q1, q3} -->
<g id="node4" class="node">
<title>{q1, q3}</title>
<ellipse fill="none" stroke="#000000" cx="316.6506" cy="-314.7199" rx="44.3953" ry="44.3953"/>
<text text-anchor="middle" x="316.6506" y="-310.5199" font-family="Times,serif" font-size="14.00" fill="#000000">{q1, q3}</text>
</g>
<!-- q2&#45;&gt;{q1, q3} -->
<g id="edge3" class="edge">
<title>q2&#45;&gt;{q1, q3}</title>
<path fill="none" stroke="#000000" d="M227.9949,-360.1396C239.0336,-354.4843 253.5678,-347.0382 267.6668,-339.8151"/>
<polygon fill="#000000" stroke="#000000" points="269.5238,-342.7964 276.8279,-335.1217 266.332,-336.5664 269.5238,-342.7964"/>
<text text-anchor="middle" x="251.0957" y="-353.9199" font-family="Times,serif" font-size="14.00" fill="#000000">a</text>
</g>
<!-- {q1, q4} -->
<g id="node5" class="node">
<title>{q1, q4}</title>
<ellipse fill="none" stroke="#000000" cx="580.441" cy="-366.7199" rx="44.3953" ry="44.3953"/>
<text text-anchor="middle" x="580.441" y="-362.5199" font-family="Times,serif" font-size="14.00" fill="#000000">{q1, q4}</text>
</g>
<!-- q2&#45;&gt;{q1, q4} -->
<g id="edge4" class="edge">
<title>q2&#45;&gt;{q1, q4}</title>
<path fill="none" stroke="#000000" d="M230.3118,-370.4346C237.8464,-370.6256 246.4047,-370.7677 254.203,-370.7199 349.5744,-370.1352 460.6197,-368.5893 525.4635,-367.5995"/>
<polygon fill="#000000" stroke="#000000" points="525.9079,-371.0931 535.8529,-367.4396 525.8002,-364.094 525.9079,-371.0931"/>
<text text-anchor="middle" x="382.5982" y="-373.9199" font-family="Times,serif" font-size="14.00" fill="#000000">b</text>
</g>
<!-- {q2, q9} -->
<g id="node6" class="node">
<title>{q2, q9}</title>
<ellipse fill="none" stroke="#000000" cx="1027.626" cy="-246.7199" rx="44.3953" ry="44.3953"/>
<text text-anchor="middle" x="1027.626" y="-242.5199" font-family="Times,serif" font-size="14.00" fill="#000000">{q2, q9}</text>
</g>
<!-- {q1, q3}&#45;&gt;{q2, q9} -->
<g id="edge5" class="edge">
<title>{q1, q3}&#45;&gt;{q2, q9}</title>
<path fill="none" stroke="#000000" d="M337.7478,-275.4468C360.0821,-239.7823 398.9502,-192.7199 448.5458,-192.7199 448.5458,-192.7199 448.5458,-192.7199 857.9315,-192.7199 899.9991,-192.7199 945.2879,-207.9755 978.489,-222.2694"/>
<polygon fill="#000000" stroke="#000000" points="977.3922,-225.6114 987.9531,-226.4587 980.2256,-219.2104 977.3922,-225.6114"/>
<text text-anchor="middle" x="645.9959" y="-196.9199" font-family="Times,serif" font-size="14.00" fill="#000000">a</text>
</g>
<!-- {q2, q5} -->
<g id="node8" class="node">
<title>{q2, q5}</title>
<ellipse fill="none" stroke="#000000" cx="448.5458" cy="-295.7199" rx="44.3953" ry="44.3953"/>
<text text-anchor="middle" x="448.5458" y="-291.5199" font-family="Times,serif" font-size="14.00" fill="#000000">{q2, q5}</text>
</g>
<!-- {q1, q3}&#45;&gt;{q2, q5} -->
<g id="edge7" class="edge">
<title>{q1, q3}&#45;&gt;{q2, q5}</title>
<path fill="none" stroke="#000000" d="M360.9367,-308.3403C371.5941,-306.8051 383.1005,-305.1475 394.1592,-303.5545"/>
<polygon fill="#000000" stroke="#000000" points="394.7533,-307.0051 404.1521,-302.115 393.7552,-300.0766 394.7533,-307.0051"/>
<text text-anchor="middle" x="382.5982" y="-309.9199" font-family="Times,serif" font-size="14.00" fill="#000000">b</text>
</g>
<!-- {q2, q6} -->
<g id="node7" class="node">
<title>{q2, q6}</title>
<ellipse fill="none" stroke="#000000" cx="711.5508" cy="-438.7199" rx="44.3953" ry="44.3953"/>
<text text-anchor="middle" x="711.5508" y="-434.5199" font-family="Times,serif" font-size="14.00" fill="#000000">{q2, q6}</text>
</g>
<!-- {q1, q4}&#45;&gt;{q2, q6} -->
<g id="edge6" class="edge">
<title>{q1, q4}&#45;&gt;{q2, q6}</title>
<path fill="none" stroke="#000000" d="M619.4233,-388.1273C633.3005,-395.7481 649.09,-404.419 663.6294,-412.4034"/>
<polygon fill="#000000" stroke="#000000" points="662.0423,-415.5249 672.4924,-417.2706 665.4118,-409.3892 662.0423,-415.5249"/>
<text text-anchor="middle" x="645.9959" y="-406.9199" font-family="Times,serif" font-size="14.00" fill="#000000">a</text>
</g>
<!-- {q2, q10} -->
<g id="node13" class="node">
<title>{q2, q10}</title>
<ellipse fill="none" stroke="#000000" cx="1027.626" cy="-370.7199" rx="49.0698" ry="49.0698"/>
<ellipse fill="none" stroke="#000000" cx="1027.626" cy="-370.7199" rx="53.0531" ry="53.0531"/>
<text text-anchor="middle" x="1027.626" y="-366.5199" font-family="Times,serif" font-size="14.00" fill="#000000">{q2, q10}</text>
</g>
<!-- {q1, q4}&#45;&gt;{q2, q10} -->
<g id="edge8" class="edge">
<title>{q1, q4}&#45;&gt;{q2, q10}</title>
<path fill="none" stroke="#000000" d="M624.9537,-367.1181C704.6982,-367.8314 872.1478,-369.3292 963.9986,-370.1508"/>
<polygon fill="#000000" stroke="#000000" points="963.97,-373.6505 974.001,-370.2402 964.0327,-366.6508 963.97,-373.6505"/>
<text text-anchor="middle" x="777.4985" y="-372.9199" font-family="Times,serif" font-size="14.00" fill="#000000">b</text>
</g>
<!-- {q1, q3, q11} -->
<g id="node14" class="node">
<title>{q1, q3, q11}</title>
<ellipse fill="none" stroke="#000000" cx="1206.149" cy="-513.7199" rx="63.5379" ry="63.5379"/>
<ellipse fill="none" stroke="#000000" cx="1206.149" cy="-513.7199" rx="67.5238" ry="67.5238"/>
<text text-anchor="middle" x="1206.149" y="-509.5199" font-family="Times,serif" font-size="14.00" fill="#000000">{q1, q3, q11}</text>
</g>
<!-- {q2, q9}&#45;&gt;{q1, q3, q11} -->
<g id="edge9" class="edge">
<title>{q2, q9}&#45;&gt;{q1, q3, q11}</title>
<path fill="none" stroke="#000000" d="M1062.5635,-274.6491C1073.8402,-284.6707 1085.873,-296.5254 1095.3875,-308.7199 1127.3133,-349.6385 1155.0582,-401.0316 1174.7943,-442.1233"/>
<polygon fill="#000000" stroke="#000000" points="1171.6821,-443.7288 1179.1332,-451.2608 1178.0054,-440.7262 1171.6821,-443.7288"/>
<text text-anchor="middle" x="1116.8875" y="-343.9199" font-family="Times,serif" font-size="14.00" fill="#000000">a</text>
</g>
<!-- {q1, q4, q11} -->
<g id="node15" class="node">
<title>{q1, q4, q11}</title>
<ellipse fill="none" stroke="#000000" cx="1978.1826" cy="-361.7199" rx="63.5379" ry="63.5379"/>
<ellipse fill="none" stroke="#000000" cx="1978.1826" cy="-361.7199" rx="67.5238" ry="67.5238"/>
<text text-anchor="middle" x="1978.1826" y="-357.5199" font-family="Times,serif" font-size="14.00" fill="#000000">{q1, q4, q11}</text>
</g>
<!-- {q2, q9}&#45;&gt;{q1, q4, q11} -->
<g id="edge10" class="edge">
<title>{q2, q9}&#45;&gt;{q1, q4, q11}</title>
<path fill="none" stroke="#000000" d="M1072.11,-244.9855C1152.9831,-242.3322 1329.4306,-238.8459 1477.4335,-251.9199 1652.4562,-267.3807 1698.3323,-268.9604 1867.4211,-316.7199 1880.4403,-320.3972 1894.0101,-325.1191 1907.0061,-330.1153"/>
<polygon fill="#000000" stroke="#000000" points="1905.7646,-333.3879 1916.3517,-333.7908 1908.3266,-326.8736 1905.7646,-333.3879"/>
<text text-anchor="middle" x="1473.9335" y="-256.9199" font-family="Times,serif" font-size="14.00" fill="#000000">b</text>
</g>
<!-- {q2, q6}&#45;&gt;{q1, q3} -->
<g id="edge13" class="edge">
<title>{q2, q6}&#45;&gt;{q1, q3}</title>
<path fill="none" stroke="#000000" d="M666.7475,-438.0255C630.7911,-436.4845 579.3392,-432.0499 535.9934,-419.7199 473.4401,-401.9262 406.7477,-367.5282 363.5468,-342.9512"/>
<polygon fill="#000000" stroke="#000000" points="365.1091,-339.8123 354.6946,-337.8653 361.6218,-345.8819 365.1091,-339.8123"/>
<text text-anchor="middle" x="514.4934" y="-418.9199" font-family="Times,serif" font-size="14.00" fill="#000000">a</text>
</g>
<!-- {q1, q4, q8} -->
<g id="node10" class="node">
<title>{q1, q4, q8}</title>
<ellipse fill="none" stroke="#000000" cx="857.9315" cy="-453.7199" rx="58.8661" ry="58.8661"/>
<text text-anchor="middle" x="857.9315" y="-449.5199" font-family="Times,serif" font-size="14.00" fill="#000000">{q1, q4, q8}</text>
</g>
<!-- {q2, q6}&#45;&gt;{q1, q4, q8} -->
<g id="edge14" class="edge">
<title>{q2, q6}&#45;&gt;{q1, q4, q8}</title>
<path fill="none" stroke="#000000" d="M755.8671,-443.2611C766.304,-444.3306 777.6739,-445.4957 788.9122,-446.6473"/>
<polygon fill="#000000" stroke="#000000" points="788.8608,-450.1603 799.1655,-447.698 789.5745,-443.1968 788.8608,-450.1603"/>
<text text-anchor="middle" x="777.4985" y="-450.9199" font-family="Times,serif" font-size="14.00" fill="#000000">b</text>
</g>
<!-- {q2, q5}&#45;&gt;{q1, q4} -->
<g id="edge12" class="edge">
<title>{q2, q5}&#45;&gt;{q1, q4}</title>
<path fill="none" stroke="#000000" d="M487.7616,-316.83C501.7219,-324.3449 517.6061,-332.8954 532.2325,-340.769"/>
<polygon fill="#000000" stroke="#000000" points="530.6843,-343.9104 541.1486,-345.5685 534.0023,-337.7467 530.6843,-343.9104"/>
<text text-anchor="middle" x="514.4934" y="-335.9199" font-family="Times,serif" font-size="14.00" fill="#000000">b</text>
</g>
<!-- {q1, q3, q7} -->
<g id="node9" class="node">
<title>{q1, q3, q7}</title>
<ellipse fill="none" stroke="#000000" cx="857.9315" cy="-279.7199" rx="58.8661" ry="58.8661"/>
<text text-anchor="middle" x="857.9315" y="-275.5199" font-family="Times,serif" font-size="14.00" fill="#000000">{q1, q3, q7}</text>
</g>
<!-- {q2, q5}&#45;&gt;{q1, q3, q7} -->
<g id="edge11" class="edge">
<title>{q2, q5}&#45;&gt;{q1, q3, q7}</title>
<path fill="none" stroke="#000000" d="M493.1366,-293.9772C564.4283,-291.1909 704.6066,-285.7123 788.9158,-282.4172"/>
<polygon fill="#000000" stroke="#000000" points="789.0565,-285.9145 798.9121,-282.0265 788.783,-278.9198 789.0565,-285.9145"/>
<text text-anchor="middle" x="645.9959" y="-292.9199" font-family="Times,serif" font-size="14.00" fill="#000000">a</text>
</g>
<!-- {q1, q3, q7}&#45;&gt;{q2, q9} -->
<g id="edge21" class="edge">
<title>{q1, q3, q7}&#45;&gt;{q2, q9}</title>
<path fill="none" stroke="#000000" d="M915.8561,-268.4555C934.6508,-264.8005 955.4118,-260.7632 973.8883,-257.1701"/>
<polygon fill="#000000" stroke="#000000" points="974.743,-260.5695 983.891,-255.2249 973.4067,-253.6983 974.743,-260.5695"/>
<text text-anchor="middle" x="938.3645" y="-268.9199" font-family="Times,serif" font-size="14.00" fill="#000000">a</text>
</g>
<!-- {q2, q5, q9} -->
<g id="node11" class="node">
<title>{q2, q5, q9}</title>
<ellipse fill="none" stroke="#000000" cx="1384.672" cy="-148.7199" rx="58.8661" ry="58.8661"/>
<text text-anchor="middle" x="1384.672" y="-144.5199" font-family="Times,serif" font-size="14.00" fill="#000000">{q2, q5, q9}</text>
</g>
<!-- {q1, q3, q7}&#45;&gt;{q2, q5, q9} -->
<g id="edge22" class="edge">
<title>{q1, q3, q7}&#45;&gt;{q2, q5, q9}</title>
<path fill="none" stroke="#000000" d="M898.1689,-236.1112C915.5303,-220.0587 937.0765,-203.44 959.8645,-193.7199 1077.2037,-143.6695 1228.6435,-140.5618 1315.3855,-143.9103"/>
<polygon fill="#000000" stroke="#000000" points="1315.4962,-147.4181 1325.6365,-144.3479 1315.7949,-140.4245 1315.4962,-147.4181"/>
<text text-anchor="middle" x="1116.8875" y="-157.9199" font-family="Times,serif" font-size="14.00" fill="#000000">b</text>
</g>
<!-- {q1, q4, q8}&#45;&gt;{q2, q10} -->
<g id="edge24" class="edge">
<title>{q1, q4, q8}&#45;&gt;{q2, q10}</title>
<path fill="none" stroke="#000000" d="M911.1583,-427.6859C930.0361,-418.4525 951.351,-408.0271 970.5375,-398.6427"/>
<polygon fill="#000000" stroke="#000000" points="972.3202,-401.667 979.7654,-394.1292 969.2445,-395.3789 972.3202,-401.667"/>
<text text-anchor="middle" x="938.3645" y="-418.9199" font-family="Times,serif" font-size="14.00" fill="#000000">b</text>
</g>
<!-- {q2, q6, q10} -->
<g id="node22" class="node">
<title>{q2, q6, q10}</title>
<ellipse fill="none" stroke="#000000" cx="1027.626" cy="-513.7199" rx="63.5379" ry="63.5379"/>
<ellipse fill="none" stroke="#000000" cx="1027.626" cy="-513.7199" rx="67.5238" ry="67.5238"/>
<text text-anchor="middle" x="1027.626" y="-509.5199" font-family="Times,serif" font-size="14.00" fill="#000000">{q2, q6, q10}</text>
</g>
<!-- {q1, q4, q8}&#45;&gt;{q2, q6, q10} -->
<g id="edge23" class="edge">
<title>{q1, q4, q8}&#45;&gt;{q2, q6, q10}</title>
<path fill="none" stroke="#000000" d="M913.4958,-473.3661C926.4075,-477.9314 940.3504,-482.8613 953.9076,-487.6548"/>
<polygon fill="#000000" stroke="#000000" points="953.0961,-491.0802 963.6909,-491.1139 955.4296,-484.4805 953.0961,-491.0802"/>
<text text-anchor="middle" x="938.3645" y="-486.9199" font-family="Times,serif" font-size="14.00" fill="#000000">a</text>
</g>
<!-- {q2, q5, q9}&#45;&gt;{q1, q4, q11} -->
<g id="edge34" class="edge">
<title>{q2, q5, q9}&#45;&gt;{q1, q4, q11}</title>
<path fill="none" stroke="#000000" d="M1424.1931,-104.8538C1443.6192,-86.5446 1468.6061,-67.3271 1495.4335,-57.7199 1651.0818,-1.9805 1731.9767,37.0857 1867.4211,-57.7199 1905.5945,-84.4397 1940.8086,-204.2031 1960.8668,-285.1919"/>
<polygon fill="#000000" stroke="#000000" points="1957.5786,-286.4796 1963.3563,-295.3604 1964.3778,-284.8149 1957.5786,-286.4796"/>
<text text-anchor="middle" x="1681.4273" y="-6.9199" font-family="Times,serif" font-size="14.00" fill="#000000">b</text>
</g>
<!-- {q1, q3, q7, q11} -->
<g id="node23" class="node">
<title>{q1, q3, q7, q11}</title>
<ellipse fill="none" stroke="#000000" cx="1577.6804" cy="-148.7199" rx="78.4825" ry="78.4825"/>
<ellipse fill="none" stroke="#000000" cx="1577.6804" cy="-148.7199" rx="82.4946" ry="82.4946"/>
<text text-anchor="middle" x="1577.6804" y="-144.5199" font-family="Times,serif" font-size="14.00" fill="#000000">{q1, q3, q7, q11}</text>
</g>
<!-- {q2, q5, q9}&#45;&gt;{q1, q3, q7, q11} -->
<g id="edge33" class="edge">
<title>{q2, q5, q9}&#45;&gt;{q1, q3, q7, q11}</title>
<path fill="none" stroke="#000000" d="M1443.6296,-148.7199C1456.7431,-148.7199 1470.9524,-148.7199 1485.0513,-148.7199"/>
<polygon fill="#000000" stroke="#000000" points="1485.2807,-152.22 1495.2807,-148.7199 1485.2807,-145.22 1485.2807,-152.22"/>
<text text-anchor="middle" x="1473.9335" y="-152.9199" font-family="Times,serif" font-size="14.00" fill="#000000">a</text>
</g>
<!-- {q1, q4, q8, q11} -->
<g id="node12" class="node">
<title>{q1, q4, q8, q11}</title>
<ellipse fill="none" stroke="#000000" cx="2344.9286" cy="-566.7199" rx="78.4946" ry="78.4946"/>
<text text-anchor="middle" x="2344.9286" y="-562.5199" font-family="Times,serif" font-size="14.00" fill="#000000">{q1, q4, q8, q11}</text>
</g>
<!-- {q2, q6, q10, q11} -->
<g id="node18" class="node">
<title>{q2, q6, q10, q11}</title>
<ellipse fill="none" stroke="#000000" cx="2553.2509" cy="-606.7199" rx="83.1474" ry="83.1474"/>
<ellipse fill="none" stroke="#000000" cx="2553.2509" cy="-606.7199" rx="87.1508" ry="87.1508"/>
<text text-anchor="middle" x="2553.2509" y="-602.5199" font-family="Times,serif" font-size="14.00" fill="#000000">{q2, q6, q10, q11}</text>
</g>
<!-- {q1, q4, q8, q11}&#45;&gt;{q2, q6, q10, q11} -->
<g id="edge39" class="edge">
<title>{q1, q4, q8, q11}&#45;&gt;{q2, q6, q10, q11}</title>
<path fill="none" stroke="#000000" d="M2421.9082,-581.5008C2433.4987,-583.7263 2445.572,-586.0445 2457.4973,-588.3342"/>
<polygon fill="#000000" stroke="#000000" points="2456.9854,-591.7998 2467.466,-590.2483 2458.3054,-584.9254 2456.9854,-591.7998"/>
<text text-anchor="middle" x="2444.6755" y="-589.9199" font-family="Times,serif" font-size="14.00" fill="#000000">a</text>
</g>
<!-- {q2, q10, q11} -->
<g id="node21" class="node">
<title>{q2, q10, q11}</title>
<ellipse fill="none" stroke="#000000" cx="2553.2509" cy="-425.7199" rx="68.6751" ry="68.6751"/>
<ellipse fill="none" stroke="#000000" cx="2553.2509" cy="-425.7199" rx="72.68" ry="72.68"/>
<text text-anchor="middle" x="2553.2509" y="-421.5199" font-family="Times,serif" font-size="14.00" fill="#000000">{q2, q10, q11}</text>
</g>
<!-- {q1, q4, q8, q11}&#45;&gt;{q2, q10, q11} -->
<g id="edge40" class="edge">
<title>{q1, q4, q8, q11}&#45;&gt;{q2, q10, q11}</title>
<path fill="none" stroke="#000000" d="M2409.9862,-522.6866C2433.694,-506.6403 2460.5634,-488.4541 2484.5754,-472.2019"/>
<polygon fill="#000000" stroke="#000000" points="2486.6201,-475.0444 2492.9397,-466.5406 2482.6965,-469.2474 2486.6201,-475.0444"/>
<text text-anchor="middle" x="2444.6755" y="-504.9199" font-family="Times,serif" font-size="14.00" fill="#000000">b</text>
</g>
<!-- {q2, q10}&#45;&gt;{q1, q3, q11} -->
<g id="edge15" class="edge">
<title>{q2, q10}&#45;&gt;{q1, q3, q11}</title>
<path fill="none" stroke="#000000" d="M1069.4817,-404.247C1091.9863,-422.2736 1120.1545,-444.8368 1145.0616,-464.7878"/>
<polygon fill="#000000" stroke="#000000" points="1143.0294,-467.6444 1153.0224,-471.1646 1147.4057,-462.1811 1143.0294,-467.6444"/>
<text text-anchor="middle" x="1116.8875" y="-446.9199" font-family="Times,serif" font-size="14.00" fill="#000000">a</text>
</g>
<!-- {q2, q10}&#45;&gt;{q1, q4, q11} -->
<g id="edge16" class="edge">
<title>{q2, q10}&#45;&gt;{q1, q4, q11}</title>
<path fill="none" stroke="#000000" d="M1074.6923,-345.5938C1086.9972,-339.9154 1100.4468,-334.4654 1113.3875,-330.7199 1200.982,-305.3667 1225.9047,-310.5094 1316.9105,-304.7199 1528.5922,-291.2535 1777.7506,-326.6233 1901.0464,-347.561"/>
<polygon fill="#000000" stroke="#000000" points="1900.6953,-351.0518 1911.1428,-349.2913 1901.8777,-344.1524 1900.6953,-351.0518"/>
<text text-anchor="middle" x="1473.9335" y="-306.9199" font-family="Times,serif" font-size="14.00" fill="#000000">b</text>
</g>
<!-- {q2, q9, q11} -->
<g id="node16" class="node">
<title>{q2, q9, q11}</title>
<ellipse fill="none" stroke="#000000" cx="1785.1742" cy="-457.7199" rx="63.5379" ry="63.5379"/>
<ellipse fill="none" stroke="#000000" cx="1785.1742" cy="-457.7199" rx="67.5238" ry="67.5238"/>
<text text-anchor="middle" x="1785.1742" y="-453.5199" font-family="Times,serif" font-size="14.00" fill="#000000">{q2, q9, q11}</text>
</g>
<!-- {q1, q3, q11}&#45;&gt;{q2, q9, q11} -->
<g id="edge17" class="edge">
<title>{q1, q3, q11}&#45;&gt;{q2, q9, q11}</title>
<path fill="none" stroke="#000000" d="M1273.5628,-504.2808C1279.7658,-503.4142 1285.9544,-502.5503 1291.9105,-501.7199 1371.2486,-490.6586 1390.724,-484.8757 1470.4335,-476.9199 1550.8017,-468.8983 1643.0727,-463.7456 1706.8336,-460.8193"/>
<polygon fill="#000000" stroke="#000000" points="1707.3783,-464.2983 1717.2103,-460.3511 1707.0627,-457.3055 1707.3783,-464.2983"/>
<text text-anchor="middle" x="1473.9335" y="-481.9199" font-family="Times,serif" font-size="14.00" fill="#000000">a</text>
</g>
<!-- {q2, q5, q11} -->
<g id="node17" class="node">
<title>{q2, q5, q11}</title>
<ellipse fill="none" stroke="#000000" cx="1384.672" cy="-381.7199" rx="63.5379" ry="63.5379"/>
<ellipse fill="none" stroke="#000000" cx="1384.672" cy="-381.7199" rx="67.5238" ry="67.5238"/>
<text text-anchor="middle" x="1384.672" y="-377.5199" font-family="Times,serif" font-size="14.00" fill="#000000">{q2, q5, q11}</text>
</g>
<!-- {q1, q3, q11}&#45;&gt;{q2, q5, q11} -->
<g id="edge18" class="edge">
<title>{q1, q3, q11}&#45;&gt;{q2, q5, q11}</title>
<path fill="none" stroke="#000000" d="M1259.3642,-471.6195C1270.0682,-463.3357 1281.292,-454.7797 1291.9105,-446.9199 1300.966,-440.217 1310.609,-433.2523 1320.1242,-426.4779"/>
<polygon fill="#000000" stroke="#000000" points="1322.3021,-429.2242 1328.4351,-420.585 1318.2532,-423.514 1322.3021,-429.2242"/>
<text text-anchor="middle" x="1295.4105" y="-451.9199" font-family="Times,serif" font-size="14.00" fill="#000000">b</text>
</g>
<!-- {q2, q6, q11} -->
<g id="node20" class="node">
<title>{q2, q6, q11}</title>
<ellipse fill="none" stroke="#000000" cx="2155.9202" cy="-556.7199" rx="63.5379" ry="63.5379"/>
<ellipse fill="none" stroke="#000000" cx="2155.9202" cy="-556.7199" rx="67.5238" ry="67.5238"/>
<text text-anchor="middle" x="2155.9202" y="-552.5199" font-family="Times,serif" font-size="14.00" fill="#000000">{q2, q6, q11}</text>
</g>
<!-- {q1, q4, q11}&#45;&gt;{q2, q6, q11} -->
<g id="edge19" class="edge">
<title>{q1, q4, q11}&#45;&gt;{q2, q6, q11}</title>
<path fill="none" stroke="#000000" d="M2023.9544,-411.9372C2048.1168,-438.4463 2077.8875,-471.1084 2103.0335,-498.6967"/>
<polygon fill="#000000" stroke="#000000" points="2100.6718,-501.3013 2109.9949,-506.3342 2105.8452,-496.5858 2100.6718,-501.3013"/>
<text text-anchor="middle" x="2067.0514" y="-463.9199" font-family="Times,serif" font-size="14.00" fill="#000000">a</text>
</g>
<!-- {q1, q4, q11}&#45;&gt;{q2, q10, q11} -->
<g id="edge20" class="edge">
<title>{q1, q4, q11}&#45;&gt;{q2, q10, q11}</title>
<path fill="none" stroke="#000000" d="M2042.9032,-382.9545C2049.9519,-384.783 2057.0635,-386.4256 2063.9441,-387.7199 2205.0696,-414.2663 2372.4501,-422.3292 2470.3501,-424.74"/>
<polygon fill="#000000" stroke="#000000" points="2470.4,-428.242 2480.4786,-424.9752 2470.5627,-421.2439 2470.4,-428.242"/>
<text text-anchor="middle" x="2245.1817" y="-416.9199" font-family="Times,serif" font-size="14.00" fill="#000000">b</text>
</g>
<!-- {q2, q9, q11}&#45;&gt;{q1, q3, q11} -->
<g id="edge25" class="edge">
<title>{q2, q9, q11}&#45;&gt;{q1, q3, q11}</title>
<path fill="none" stroke="#000000" d="M1719.1336,-472.9518C1700.1056,-476.926 1679.2634,-480.8843 1659.9273,-483.7199 1529.047,-502.9129 1375.1156,-509.8334 1284.3645,-512.3243"/>
<polygon fill="#000000" stroke="#000000" points="1284.0629,-508.8309 1274.1585,-512.593 1284.2472,-515.8285 1284.0629,-508.8309"/>
<text text-anchor="middle" x="1473.9335" y="-507.9199" font-family="Times,serif" font-size="14.00" fill="#000000">a</text>
</g>
<!-- {q2, q9, q11}&#45;&gt;{q1, q4, q11} -->
<g id="edge26" class="edge">
<title>{q2, q9, q11}&#45;&gt;{q1, q4, q11}</title>
<path fill="none" stroke="#000000" d="M1845.9783,-427.4767C1865.7176,-417.6586 1887.7766,-406.6867 1908.1336,-396.5614"/>
<polygon fill="#000000" stroke="#000000" points="1909.9577,-399.5632 1917.3526,-391.976 1906.8403,-393.2957 1909.9577,-399.5632"/>
<text text-anchor="middle" x="1888.9211" y="-411.9199" font-family="Times,serif" font-size="14.00" fill="#000000">b</text>
</g>
<!-- {q2, q5, q11}&#45;&gt;{q1, q4, q11} -->
<g id="edge28" class="edge">
<title>{q2, q5, q11}&#45;&gt;{q1, q4, q11}</title>
<path fill="none" stroke="#000000" d="M1452.466,-379.4354C1563.3305,-375.6995 1782.7865,-368.3043 1900.0306,-364.3534"/>
<polygon fill="#000000" stroke="#000000" points="1900.4848,-367.8402 1910.3612,-364.0053 1900.2489,-360.8442 1900.4848,-367.8402"/>
<text text-anchor="middle" x="1681.4273" y="-375.9199" font-family="Times,serif" font-size="14.00" fill="#000000">b</text>
</g>
<!-- {q2, q5, q11}&#45;&gt;{q1, q3, q7, q11} -->
<g id="edge27" class="edge">
<title>{q2, q5, q11}&#45;&gt;{q1, q3, q7, q11}</title>
<path fill="none" stroke="#000000" d="M1427.9868,-329.4301C1454.6455,-297.2477 1489.1795,-255.5583 1518.3592,-220.3325"/>
<polygon fill="#000000" stroke="#000000" points="1521.1983,-222.3917 1524.8822,-212.458 1515.8075,-217.9262 1521.1983,-222.3917"/>
<text text-anchor="middle" x="1473.9335" y="-276.9199" font-family="Times,serif" font-size="14.00" fill="#000000">a</text>
</g>
<!-- {q2, q6, q10, q11}&#45;&gt;{q1, q4, q8, q11} -->
<g id="edge44" class="edge">
<title>{q2, q6, q10, q11}&#45;&gt;{q1, q4, q8, q11}</title>
<path fill="none" stroke="#000000" d="M2473.5841,-571.4525C2465.1342,-568.7948 2456.5632,-566.527 2448.1755,-564.9199 2443.4188,-564.0085 2438.5162,-563.3095 2433.5515,-562.7882"/>
<polygon fill="#000000" stroke="#000000" points="2433.5508,-559.2768 2423.3005,-561.9568 2432.9848,-566.2538 2433.5508,-559.2768"/>
<text text-anchor="middle" x="2444.6755" y="-569.9199" font-family="Times,serif" font-size="14.00" fill="#000000">b</text>
</g>
<!-- {q2, q6, q10, q11}&#45;&gt;{q1, q3, q11} -->
<g id="edge43" class="edge">
<title>{q2, q6, q10, q11}&#45;&gt;{q1, q3, q11}</title>
<path fill="none" stroke="#000000" d="M2472.9036,-640.6251C2456.713,-646.0615 2439.6133,-650.8412 2423.1755,-653.7199 2267.2701,-681.0226 2225.3294,-652.7199 2067.0514,-652.7199 1384.672,-652.7199 1384.672,-652.7199 1384.672,-652.7199 1331.3143,-652.7199 1284.3176,-613.5839 1251.9546,-576.8443"/>
<polygon fill="#000000" stroke="#000000" points="1254.4411,-574.3672 1245.2738,-569.0558 1249.128,-578.9247 1254.4411,-574.3672"/>
<text text-anchor="middle" x="1888.9211" y="-656.9199" font-family="Times,serif" font-size="14.00" fill="#000000">a</text>
</g>
<!-- {q2, q5, q9, q11} -->
<g id="node19" class="node">
<title>{q2, q5, q9, q11}</title>
<ellipse fill="none" stroke="#000000" cx="1785.1742" cy="-148.7199" rx="78.4825" ry="78.4825"/>
<ellipse fill="none" stroke="#000000" cx="1785.1742" cy="-148.7199" rx="82.4946" ry="82.4946"/>
<text text-anchor="middle" x="1785.1742" y="-144.5199" font-family="Times,serif" font-size="14.00" fill="#000000">{q2, q5, q9, q11}</text>
</g>
<!-- {q2, q5, q9, q11}&#45;&gt;{q1, q4, q11} -->
<g id="edge42" class="edge">
<title>{q2, q5, q9, q11}&#45;&gt;{q1, q4, q11}</title>
<path fill="none" stroke="#000000" d="M1854.0932,-193.793C1867.5671,-204.1651 1881.0328,-215.753 1892.4211,-227.9199 1910.5644,-247.3037 1927.1853,-271.0199 1940.8649,-293.0728"/>
<polygon fill="#000000" stroke="#000000" points="1937.9615,-295.0344 1946.1537,-301.753 1943.9393,-291.3921 1937.9615,-295.0344"/>
<text text-anchor="middle" x="1888.9211" y="-232.9199" font-family="Times,serif" font-size="14.00" fill="#000000">b</text>
</g>
<!-- {q2, q5, q9, q11}&#45;&gt;{q1, q3, q7, q11} -->
<g id="edge41" class="edge">
<title>{q2, q5, q9, q11}&#45;&gt;{q1, q3, q7, q11}</title>
<path fill="none" stroke="#000000" d="M1705.468,-127.9718C1696.2176,-127.1375 1686.8891,-127 1677.9273,-127.9199 1674.7004,-128.2511 1671.4241,-128.6409 1668.1218,-129.079"/>
<polygon fill="#000000" stroke="#000000" points="1667.5523,-125.625 1658.1607,-130.529 1668.5606,-132.552 1667.5523,-125.625"/>
<text text-anchor="middle" x="1681.4273" y="-132.9199" font-family="Times,serif" font-size="14.00" fill="#000000">a</text>
</g>
<!-- {q2, q6, q11}&#45;&gt;{q1, q4, q8, q11} -->
<g id="edge30" class="edge">
<title>{q2, q6, q11}&#45;&gt;{q1, q4, q8, q11}</title>
<path fill="none" stroke="#000000" d="M2223.6227,-560.3019C2234.3278,-560.8683 2245.5331,-561.4611 2256.6241,-562.0479"/>
<polygon fill="#000000" stroke="#000000" points="2256.5889,-565.5508 2266.7598,-562.5842 2256.9588,-558.5606 2256.5889,-565.5508"/>
<text text-anchor="middle" x="2245.1817" y="-565.9199" font-family="Times,serif" font-size="14.00" fill="#000000">b</text>
</g>
<!-- {q2, q6, q11}&#45;&gt;{q1, q3, q11} -->
<g id="edge29" class="edge">
<title>{q2, q6, q11}&#45;&gt;{q1, q3, q11}</title>
<path fill="none" stroke="#000000" d="M2090.6843,-575.8584C2057.3348,-584.0295 2015.9224,-591.7199 1978.1826,-591.7199 1384.672,-591.7199 1384.672,-591.7199 1384.672,-591.7199 1344.7902,-591.7199 1303.7733,-575.1719 1271.128,-557.3199"/>
<polygon fill="#000000" stroke="#000000" points="1272.5808,-554.1213 1262.1503,-552.2629 1269.1453,-560.2202 1272.5808,-554.1213"/>
<text text-anchor="middle" x="1681.4273" y="-595.9199" font-family="Times,serif" font-size="14.00" fill="#000000">a</text>
</g>
<!-- {q2, q10, q11}&#45;&gt;{q1, q3, q11} -->
<g id="edge31" class="edge">
<title>{q2, q10, q11}&#45;&gt;{q1, q3, q11}</title>
<path fill="none" stroke="#000000" d="M2481.195,-434.7285C2470.1383,-436.0837 2458.8535,-437.4514 2448.1755,-438.7199 2288.2583,-457.7179 2246.6333,-451.0798 2088.1587,-479.7199 1988.6653,-497.7007 1967.017,-517.3162 1867.4211,-534.7199 1785.5673,-549.0233 1764.5214,-553.7199 1681.4273,-553.7199 1384.672,-553.7199 1384.672,-553.7199 1384.672,-553.7199 1349.8429,-553.7199 1312.0963,-546.3807 1280.3219,-537.9898"/>
<polygon fill="#000000" stroke="#000000" points="1281.2308,-534.6099 1270.6625,-535.3589 1279.3912,-541.3639 1281.2308,-534.6099"/>
<text text-anchor="middle" x="1888.9211" y="-535.9199" font-family="Times,serif" font-size="14.00" fill="#000000">a</text>
</g>
<!-- {q2, q10, q11}&#45;&gt;{q1, q4, q11} -->
<g id="edge32" class="edge">
<title>{q2, q10, q11}&#45;&gt;{q1, q4, q11}</title>
<path fill="none" stroke="#000000" d="M2481.0156,-417.3252C2462.1889,-415.155 2441.9243,-412.8347 2423.1755,-410.7199 2294.335,-396.187 2144.4491,-379.7873 2055.6568,-370.125"/>
<polygon fill="#000000" stroke="#000000" points="2055.9876,-366.6404 2045.6677,-369.0384 2055.2305,-373.5994 2055.9876,-366.6404"/>
<text text-anchor="middle" x="2245.1817" y="-395.9199" font-family="Times,serif" font-size="14.00" fill="#000000">b</text>
</g>
<!-- {q2, q6, q10}&#45;&gt;{q1, q4, q8, q11} -->
<g id="edge36" class="edge">
<title>{q2, q6, q10}&#45;&gt;{q1, q4, q8, q11}</title>
<path fill="none" stroke="#000000" d="M1057.4734,-574.6333C1087.324,-625.833 1138.4993,-690.7199 1206.149,-690.7199 1206.149,-690.7199 1206.149,-690.7199 2067.0514,-690.7199 2142.0186,-690.7199 2219.2591,-652.6171 2273.2166,-618.6545"/>
<polygon fill="#000000" stroke="#000000" points="2275.1344,-621.5826 2281.6726,-613.2457 2271.3625,-615.6857 2275.1344,-621.5826"/>
<text text-anchor="middle" x="1681.4273" y="-694.9199" font-family="Times,serif" font-size="14.00" fill="#000000">b</text>
</g>
<!-- {q2, q6, q10}&#45;&gt;{q1, q3, q11} -->
<g id="edge35" class="edge">
<title>{q2, q6, q10}&#45;&gt;{q1, q3, q11}</title>
<path fill="none" stroke="#000000" d="M1095.6271,-513.7199C1106.2306,-513.7199 1117.259,-513.7199 1128.0653,-513.7199"/>
<polygon fill="#000000" stroke="#000000" points="1128.3369,-517.22 1138.3369,-513.7199 1128.3368,-510.22 1128.3369,-517.22"/>
<text text-anchor="middle" x="1116.8875" y="-517.9199" font-family="Times,serif" font-size="14.00" fill="#000000">a</text>
</g>
<!-- {q1, q3, q7, q11}&#45;&gt;{q2, q9, q11} -->
<g id="edge37" class="edge">
<title>{q1, q3, q7, q11}&#45;&gt;{q2, q9, q11}</title>
<path fill="none" stroke="#000000" d="M1623.73,-217.297C1658.9032,-269.677 1707.0497,-341.3768 1741.5952,-392.8219"/>
<polygon fill="#000000" stroke="#000000" points="1738.7531,-394.8679 1747.2336,-401.2187 1744.5644,-390.9655 1738.7531,-394.8679"/>
<text text-anchor="middle" x="1681.4273" y="-307.9199" font-family="Times,serif" font-size="14.00" fill="#000000">a</text>
</g>
<!-- {q1, q3, q7, q11}&#45;&gt;{q2, q5, q9, q11} -->
<g id="edge38" class="edge">
<title>{q1, q3, q7, q11}&#45;&gt;{q2, q5, q9, q11}</title>
<path fill="none" stroke="#000000" d="M1659.9854,-148.7199C1670.6177,-148.7199 1681.5641,-148.7199 1692.3512,-148.7199"/>
<polygon fill="#000000" stroke="#000000" points="1692.6292,-152.22 1702.6292,-148.7199 1692.6292,-145.22 1692.6292,-152.22"/>
<text text-anchor="middle" x="1681.4273" y="-152.9199" font-family="Times,serif" font-size="14.00" fill="#000000">b</text>
</g>
</g>
</svg>
