<?xml version="1.0" encoding="UTF-8" standalone="no"?>
<!DOCTYPE svg PUBLIC "-//W3C//DTD SVG 1.1//EN"
 "http://www.w3.org/Graphics/SVG/1.1/DTD/svg11.dtd">
<!-- Generated by graphviz version 2.40.1 (20161225.0304)
 -->
<!-- Title: G Pages: 1 -->
<svg width="631pt" height="410pt"
 viewBox="0.00 0.00 631.43 410.35" xmlns="http://www.w3.org/2000/svg" xmlns:xlink="http://www.w3.org/1999/xlink">
<g id="graph0" class="graph" transform="scale(1 1) rotate(0) translate(4 406.3545)">
<title>G</title>
<polygon fill="#ffffff" stroke="transparent" points="-4,4 -4,-406.3545 627.4303,-406.3545 627.4303,4 -4,4"/>
<!-- start -->
<g id="node1" class="node">
<title>start</title>
<text text-anchor="middle" x="27" y="-341.3545" font-family="Times,serif" font-size="14.00" fill="#000000">start</text>
</g>
<!-- q1 -->
<g id="node5" class="node">
<title>q1</title>
<ellipse fill="none" stroke="#000000" cx="115.6935" cy="-345.5545" rx="20.8568" ry="20.8568"/>
<ellipse fill="none" stroke="#000000" cx="115.6935" cy="-345.5545" rx="24.8884" ry="24.8884"/>
<text text-anchor="middle" x="115.6935" y="-341.3545" font-family="Times,serif" font-size="14.00" fill="#000000">q1</text>
</g>
<!-- start&#45;&gt;q1 -->
<g id="edge1" class="edge">
<title>start&#45;&gt;q1</title>
<path fill="none" stroke="#000000" d="M54.0929,-345.5545C62.5145,-345.5545 71.9196,-345.5545 80.7952,-345.5545"/>
<polygon fill="#000000" stroke="#000000" points="80.8805,-349.0546 90.8805,-345.5545 80.8805,-342.0546 80.8805,-349.0546"/>
</g>
<!-- q2 -->
<g id="node2" class="node">
<title>q2</title>
<ellipse fill="none" stroke="#000000" cx="318.9756" cy="-345.5545" rx="20.8887" ry="20.8887"/>
<text text-anchor="middle" x="318.9756" y="-341.3545" font-family="Times,serif" font-size="14.00" fill="#000000">q2</text>
</g>
<!-- q3 -->
<g id="node4" class="node">
<title>q3</title>
<ellipse fill="none" stroke="#000000" cx="574.9827" cy="-345.5545" rx="20.8887" ry="20.8887"/>
<text text-anchor="middle" x="574.9827" y="-341.3545" font-family="Times,serif" font-size="14.00" fill="#000000">q3</text>
</g>
<!-- q2&#45;&gt;q3 -->
<g id="edge6" class="edge">
<title>q2&#45;&gt;q3</title>
<path fill="none" stroke="#000000" d="M339.9257,-345.5545C384.9493,-345.5545 491.1243,-345.5545 543.9755,-345.5545"/>
<polygon fill="#000000" stroke="#000000" points="544.1021,-349.0546 554.1021,-345.5545 544.1021,-342.0546 544.1021,-349.0546"/>
<text text-anchor="middle" x="420.602" y="-349.7545" font-family="Times,serif" font-size="14.00" fill="#000000">a, b</text>
</g>
<!-- {q2, q3} -->
<g id="node3" class="node">
<title>{q2, q3}</title>
<ellipse fill="none" stroke="#000000" cx="420.602" cy="-265.5545" rx="44.3953" ry="44.3953"/>
<text text-anchor="middle" x="420.602" y="-261.3545" font-family="Times,serif" font-size="14.00" fill="#000000">{q2, q3}</text>
</g>
<!-- {q2, q3}&#45;&gt;q3 -->
<g id="edge8" class="edge">
<title>{q2, q3}&#45;&gt;q3</title>
<path fill="none" stroke="#000000" d="M460.3589,-286.1565C487.648,-300.2977 523.173,-318.7067 547.3943,-331.2582"/>
<polygon fill="#000000" stroke="#000000" points="545.9077,-334.4298 556.3967,-335.9233 549.1284,-328.2147 545.9077,-334.4298"/>
<text text-anchor="middle" x="505.0351" y="-313.7545" font-family="Times,serif" font-size="14.00" fill="#000000">a</text>
</g>
<!-- {q1, q3} -->
<g id="node8" class="node">
<title>{q1, q3}</title>
<ellipse fill="none" stroke="#000000" cx="574.9827" cy="-133.5545" rx="44.3996" ry="44.3996"/>
<ellipse fill="none" stroke="#000000" cx="574.9827" cy="-133.5545" rx="48.3953" ry="48.3953"/>
<text text-anchor="middle" x="574.9827" y="-129.3545" font-family="Times,serif" font-size="14.00" fill="#000000">{q1, q3}</text>
</g>
<!-- {q2, q3}&#45;&gt;{q1, q3} -->
<g id="edge9" class="edge">
<title>{q2, q3}&#45;&gt;{q1, q3}</title>
<path fill="none" stroke="#000000" d="M454.9632,-236.7503C464.2561,-228.9239 474.2974,-220.4339 483.5351,-212.5545 498.895,-199.4531 515.6283,-185.039 530.5325,-172.1502"/>
<polygon fill="#000000" stroke="#000000" points="532.8714,-174.7548 538.1426,-165.5643 528.2907,-169.4616 532.8714,-174.7548"/>
<text text-anchor="middle" x="505.0351" y="-198.7545" font-family="Times,serif" font-size="14.00" fill="#000000">b</text>
</g>
<!-- q3&#45;&gt;q1 -->
<g id="edge10" class="edge">
<title>q3&#45;&gt;q1</title>
<path fill="none" stroke="#000000" d="M554.8604,-351.4713C536.4749,-356.5657 508.4411,-363.5561 483.5351,-366.5545 340.0608,-383.8274 298.9012,-400.3028 158.3869,-366.5545 154.4338,-365.6051 150.4226,-364.2444 146.5217,-362.6659"/>
<polygon fill="#000000" stroke="#000000" points="147.7004,-359.357 137.1486,-358.4029 144.8024,-365.7289 147.7004,-359.357"/>
<text text-anchor="middle" x="318.9756" y="-389.7545" font-family="Times,serif" font-size="14.00" fill="#000000">b</text>
</g>
<!-- q1&#45;&gt;q2 -->
<g id="edge3" class="edge">
<title>q1&#45;&gt;q2</title>
<path fill="none" stroke="#000000" d="M140.6198,-345.5545C177.7972,-345.5545 247.712,-345.5545 288.0821,-345.5545"/>
<polygon fill="#000000" stroke="#000000" points="288.1525,-349.0546 298.1525,-345.5545 288.1524,-342.0546 288.1525,-349.0546"/>
<text text-anchor="middle" x="161.8869" y="-349.7545" font-family="Times,serif" font-size="14.00" fill="#000000">b</text>
</g>
<!-- {q1, q2} -->
<g id="node6" class="node">
<title>{q1, q2}</title>
<ellipse fill="none" stroke="#000000" cx="231.8345" cy="-156.5545" rx="44.3996" ry="44.3996"/>
<ellipse fill="none" stroke="#000000" cx="231.8345" cy="-156.5545" rx="48.3953" ry="48.3953"/>
<text text-anchor="middle" x="231.8345" y="-152.3545" font-family="Times,serif" font-size="14.00" fill="#000000">{q1, q2}</text>
</g>
<!-- q1&#45;&gt;{q1, q2} -->
<g id="edge2" class="edge">
<title>q1&#45;&gt;{q1, q2}</title>
<path fill="none" stroke="#000000" d="M128.7905,-324.2412C146.1456,-295.9988 177.3093,-245.2851 200.8357,-206.9999"/>
<polygon fill="#000000" stroke="#000000" points="204.0821,-208.402 206.3356,-198.0496 198.1181,-204.7371 204.0821,-208.402"/>
<text text-anchor="middle" x="161.8869" y="-276.7545" font-family="Times,serif" font-size="14.00" fill="#000000">a</text>
</g>
<!-- {q1, q2}&#45;&gt;{q2, q3} -->
<g id="edge5" class="edge">
<title>{q1, q2}&#45;&gt;{q2, q3}</title>
<path fill="none" stroke="#000000" d="M274.1976,-181.0162C303.5813,-197.9833 342.7474,-220.5989 373.1758,-238.1692"/>
<polygon fill="#000000" stroke="#000000" points="371.5034,-241.2451 381.9136,-243.2147 375.0038,-235.1831 371.5034,-241.2451"/>
<text text-anchor="middle" x="318.9756" y="-221.7545" font-family="Times,serif" font-size="14.00" fill="#000000">b</text>
</g>
<!-- {q1, q2, q3} -->
<g id="node7" class="node">
<title>{q1, q2, q3}</title>
<ellipse fill="none" stroke="#000000" cx="420.602" cy="-106.5545" rx="58.8704" ry="58.8704"/>
<ellipse fill="none" stroke="#000000" cx="420.602" cy="-106.5545" rx="62.8661" ry="62.8661"/>
<text text-anchor="middle" x="420.602" y="-102.3545" font-family="Times,serif" font-size="14.00" fill="#000000">{q1, q2, q3}</text>
</g>
<!-- {q1, q2}&#45;&gt;{q1, q2, q3} -->
<g id="edge4" class="edge">
<title>{q1, q2}&#45;&gt;{q1, q2, q3}</title>
<path fill="none" stroke="#000000" d="M278.9816,-144.0664C300.2897,-138.4224 325.9256,-131.632 349.4957,-125.3889"/>
<polygon fill="#000000" stroke="#000000" points="350.6817,-128.6955 359.4521,-122.7517 348.8893,-121.9289 350.6817,-128.6955"/>
<text text-anchor="middle" x="318.9756" y="-141.7545" font-family="Times,serif" font-size="14.00" fill="#000000">a</text>
</g>
<!-- {q1, q2, q3}&#45;&gt;{q1, q2, q3} -->
<g id="edge7" class="edge">
<title>{q1, q2, q3}&#45;&gt;{q1, q2, q3}</title>
<path fill="none" stroke="#000000" d="M405.6605,-167.9609C407.5004,-179.4184 412.4809,-187.4875 420.602,-187.4875 426.0584,-187.4875 430.0971,-183.845 432.718,-177.9796"/>
<polygon fill="#000000" stroke="#000000" points="436.1977,-178.5356 435.5436,-167.9609 429.4605,-176.6354 436.1977,-178.5356"/>
<text text-anchor="middle" x="420.602" y="-191.6875" font-family="Times,serif" font-size="14.00" fill="#000000">a, b</text>
</g>
<!-- {q1, q3}&#45;&gt;{q1, q2} -->
<g id="edge11" class="edge">
<title>{q1, q3}&#45;&gt;{q1, q2}</title>
<path fill="none" stroke="#000000" d="M553.5192,-89.9206C538.0343,-63.7481 514.4269,-32.7221 483.5351,-17.7545 433.1925,6.6372 408.8118,4.9115 357.669,-17.7545 316.9964,-35.7802 283.8644,-74.1663 261.8259,-106.0105"/>
<polygon fill="#000000" stroke="#000000" points="258.8766,-104.124 256.186,-114.3716 264.6798,-108.0386 258.8766,-104.124"/>
<text text-anchor="middle" x="420.602" y="-22.7545" font-family="Times,serif" font-size="14.00" fill="#000000">a, b</text>
</g>
</g>
</svg>
