<?xml version="1.0" encoding="UTF-8" standalone="no"?>
<!DOCTYPE svg PUBLIC "-//W3C//DTD SVG 1.1//EN"
 "http://www.w3.org/Graphics/SVG/1.1/DTD/svg11.dtd">
<!-- Generated by graphviz version 2.40.1 (20161225.0304)
 -->
<!-- Title: G Pages: 1 -->
<svg width="727pt" height="200pt"
 viewBox="0.00 0.00 727.28 200.39" xmlns="http://www.w3.org/2000/svg" xmlns:xlink="http://www.w3.org/1999/xlink">
<g id="graph0" class="graph" transform="scale(1 1) rotate(0) translate(4 196.3869)">
<title>G</title>
<polygon fill="#ffffff" stroke="transparent" points="-4,4 -4,-196.3869 723.2755,-196.3869 723.2755,4 -4,4"/>
<!-- start -->
<g id="node1" class="node">
<title>start</title>
<text text-anchor="middle" x="27" y="-72.4935" font-family="Times,serif" font-size="14.00" fill="#000000">start</text>
</g>
<!-- q1 -->
<g id="node2" class="node">
<title>q1</title>
<ellipse fill="none" stroke="#000000" cx="111.6935" cy="-76.6935" rx="20.8887" ry="20.8887"/>
<text text-anchor="middle" x="111.6935" y="-72.4935" font-family="Times,serif" font-size="14.00" fill="#000000">q1</text>
</g>
<!-- start&#45;&gt;q1 -->
<g id="edge1" class="edge">
<title>start&#45;&gt;q1</title>
<path fill="none" stroke="#000000" d="M54.2637,-76.6935C62.7209,-76.6935 72.1012,-76.6935 80.7873,-76.6935"/>
<polygon fill="#000000" stroke="#000000" points="80.9294,-80.1936 90.9294,-76.6935 80.9293,-73.1936 80.9294,-80.1936"/>
</g>
<!-- {q2, q8} -->
<g id="node7" class="node">
<title>{q2, q8}</title>
<ellipse fill="none" stroke="#000000" cx="223.0491" cy="-76.6935" rx="44.3996" ry="44.3996"/>
<ellipse fill="none" stroke="#000000" cx="223.0491" cy="-76.6935" rx="48.3953" ry="48.3953"/>
<text text-anchor="middle" x="223.0491" y="-72.4935" font-family="Times,serif" font-size="14.00" fill="#000000">{q2, q8}</text>
</g>
<!-- q1&#45;&gt;{q2, q8} -->
<g id="edge2" class="edge">
<title>q1&#45;&gt;{q2, q8}</title>
<path fill="none" stroke="#000000" d="M132.6386,-76.6935C141.7995,-76.6935 153.049,-76.6935 164.462,-76.6935"/>
<polygon fill="#000000" stroke="#000000" points="164.4853,-80.1936 174.4853,-76.6935 164.4853,-73.1936 164.4853,-80.1936"/>
<text text-anchor="middle" x="153.4942" y="-80.8935" font-family="Times,serif" font-size="14.00" fill="#000000">a</text>
</g>
<!-- {q3, q7} -->
<g id="node3" class="node">
<title>{q3, q7}</title>
<ellipse fill="none" stroke="#000000" cx="358.1589" cy="-76.6935" rx="44.3953" ry="44.3953"/>
<text text-anchor="middle" x="358.1589" y="-72.4935" font-family="Times,serif" font-size="14.00" fill="#000000">{q3, q7}</text>
</g>
<!-- q4 -->
<g id="node4" class="node">
<title>q4</title>
<ellipse fill="none" stroke="#000000" cx="494.0541" cy="-171.6935" rx="20.8887" ry="20.8887"/>
<text text-anchor="middle" x="494.0541" y="-167.4935" font-family="Times,serif" font-size="14.00" fill="#000000">q4</text>
</g>
<!-- {q3, q7}&#45;&gt;q4 -->
<g id="edge4" class="edge">
<title>{q3, q7}&#45;&gt;q4</title>
<path fill="none" stroke="#000000" d="M393.4042,-103.953C409.1541,-115.8566 428.0826,-129.7864 445.6065,-141.6935 452.5108,-146.3847 460.1267,-151.2425 467.2352,-155.6474"/>
<polygon fill="#000000" stroke="#000000" points="465.5202,-158.7012 475.8762,-160.9381 469.1754,-152.7313 465.5202,-158.7012"/>
<text text-anchor="middle" x="424.1065" y="-131.8935" font-family="Times,serif" font-size="14.00" fill="#000000">a</text>
</g>
<!-- {q6, q8} -->
<g id="node8" class="node">
<title>{q6, q8}</title>
<ellipse fill="none" stroke="#000000" cx="494.0541" cy="-84.6935" rx="44.3996" ry="44.3996"/>
<ellipse fill="none" stroke="#000000" cx="494.0541" cy="-84.6935" rx="48.3953" ry="48.3953"/>
<text text-anchor="middle" x="494.0541" y="-80.4935" font-family="Times,serif" font-size="14.00" fill="#000000">{q6, q8}</text>
</g>
<!-- {q3, q7}&#45;&gt;{q6, q8} -->
<g id="edge5" class="edge">
<title>{q3, q7}&#45;&gt;{q6, q8}</title>
<path fill="none" stroke="#000000" d="M402.6561,-79.313C412.9804,-79.9207 424.1279,-80.577 434.9692,-81.2152"/>
<polygon fill="#000000" stroke="#000000" points="435.0444,-84.7256 445.2328,-81.8194 435.4558,-77.7377 435.0444,-84.7256"/>
<text text-anchor="middle" x="424.1065" y="-84.8935" font-family="Times,serif" font-size="14.00" fill="#000000">b</text>
</g>
<!-- q5 -->
<g id="node5" class="node">
<title>q5</title>
<ellipse fill="none" stroke="#000000" cx="606.1952" cy="-131.6935" rx="20.8887" ry="20.8887"/>
<text text-anchor="middle" x="606.1952" y="-127.4935" font-family="Times,serif" font-size="14.00" fill="#000000">q5</text>
</g>
<!-- q4&#45;&gt;q5 -->
<g id="edge6" class="edge">
<title>q4&#45;&gt;q5</title>
<path fill="none" stroke="#000000" d="M514.2658,-166.4861C529.1675,-162.4434 549.8332,-156.409 567.5017,-149.6935 571.0338,-148.351 574.6942,-146.829 578.2916,-145.2523"/>
<polygon fill="#000000" stroke="#000000" points="579.8894,-148.3705 587.5358,-141.0368 576.985,-142.0015 579.8894,-148.3705"/>
<text text-anchor="middle" x="564.0017" y="-155.8935" font-family="Times,serif" font-size="14.00" fill="#000000">b</text>
</g>
<!-- q5&#45;&gt;q4 -->
<g id="edge8" class="edge">
<title>q5&#45;&gt;q4</title>
<path fill="none" stroke="#000000" d="M585.7822,-127.2967C577.7406,-126.3705 568.5272,-126.3309 560.5017,-128.8935 551.1504,-131.8794 550.6789,-136.2622 542.5017,-141.6935 535.5485,-146.3118 527.9158,-151.1447 520.807,-155.549"/>
<polygon fill="#000000" stroke="#000000" points="518.8636,-152.6351 512.1731,-160.8503 522.5263,-158.6004 518.8636,-152.6351"/>
<text text-anchor="middle" x="564.0017" y="-132.8935" font-family="Times,serif" font-size="14.00" fill="#000000">a</text>
</g>
<!-- q6 -->
<g id="node6" class="node">
<title>q6</title>
<ellipse fill="none" stroke="#000000" cx="694.5821" cy="-24.6935" rx="20.8568" ry="20.8568"/>
<ellipse fill="none" stroke="#000000" cx="694.5821" cy="-24.6935" rx="24.8884" ry="24.8884"/>
<text text-anchor="middle" x="694.5821" y="-20.4935" font-family="Times,serif" font-size="14.00" fill="#000000">q6</text>
</g>
<!-- q5&#45;&gt;q6 -->
<g id="edge9" class="edge">
<title>q5&#45;&gt;q6</title>
<path fill="none" stroke="#000000" d="M619.6193,-115.4425C633.5412,-98.5887 655.5507,-71.9443 672.1268,-51.8775"/>
<polygon fill="#000000" stroke="#000000" points="674.9632,-53.9395 678.6335,-44.0006 669.5664,-49.4814 674.9632,-53.9395"/>
<text text-anchor="middle" x="648.3886" y="-88.8935" font-family="Times,serif" font-size="14.00" fill="#000000">b</text>
</g>
<!-- q6&#45;&gt;{q3, q7} -->
<g id="edge10" class="edge">
<title>q6&#45;&gt;{q3, q7}</title>
<path fill="none" stroke="#000000" d="M670.006,-21.0487C624.7038,-15.1881 525.3674,-6.3561 445.6065,-27.6935 431.1275,-31.5668 416.4932,-38.3799 403.4469,-45.7164"/>
<polygon fill="#000000" stroke="#000000" points="401.5471,-42.7729 394.6899,-50.8494 405.087,-48.8119 401.5471,-42.7729"/>
<text text-anchor="middle" x="564.0017" y="-18.8935" font-family="Times,serif" font-size="14.00" fill="#000000">a</text>
</g>
<!-- {q2, q8}&#45;&gt;{q3, q7} -->
<g id="edge3" class="edge">
<title>{q2, q8}&#45;&gt;{q3, q7}</title>
<path fill="none" stroke="#000000" d="M271.8269,-76.6935C282.0311,-76.6935 292.8563,-76.6935 303.2655,-76.6935"/>
<polygon fill="#000000" stroke="#000000" points="303.4976,-80.1936 313.4976,-76.6935 303.4976,-73.1936 303.4976,-80.1936"/>
<text text-anchor="middle" x="292.604" y="-80.8935" font-family="Times,serif" font-size="14.00" fill="#000000">a</text>
</g>
<!-- {q6, q8}&#45;&gt;{q3, q7} -->
<g id="edge7" class="edge">
<title>{q6, q8}&#45;&gt;{q3, q7}</title>
<path fill="none" stroke="#000000" d="M449.2689,-65.531C442.1392,-63.1971 434.7558,-61.1841 427.6065,-59.8935 421.8195,-58.8487 415.7943,-58.767 409.8175,-59.3275"/>
<polygon fill="#000000" stroke="#000000" points="409.2263,-55.8769 399.8554,-60.8204 410.2637,-62.7996 409.2263,-55.8769"/>
<text text-anchor="middle" x="424.1065" y="-64.8935" font-family="Times,serif" font-size="14.00" fill="#000000">a</text>
</g>
</g>
</svg>
