<?xml version="1.0" encoding="UTF-8" standalone="no"?>
<!DOCTYPE svg PUBLIC "-//W3C//DTD SVG 1.1//EN"
 "http://www.w3.org/Graphics/SVG/1.1/DTD/svg11.dtd">
<!-- Generated by graphviz version 2.40.1 (20161225.0304)
 -->
<!-- Title: G Pages: 1 -->
<svg width="682pt" height="221pt"
 viewBox="0.00 0.00 682.35 220.80" xmlns="http://www.w3.org/2000/svg" xmlns:xlink="http://www.w3.org/1999/xlink">
<g id="graph0" class="graph" transform="scale(1 1) rotate(0) translate(4 216.8)">
<title>G</title>
<polygon fill="#ffffff" stroke="transparent" points="-4,4 -4,-216.8 678.3521,-216.8 678.3521,4 -4,4"/>
<!-- start -->
<g id="node1" class="node">
<title>start</title>
<text text-anchor="middle" x="27" y="-40.8" font-family="Times,serif" font-size="14.00" fill="#000000">start</text>
</g>
<!-- q1 -->
<g id="node2" class="node">
<title>q1</title>
<ellipse fill="none" stroke="#000000" cx="111.6935" cy="-45" rx="20.8887" ry="20.8887"/>
<text text-anchor="middle" x="111.6935" y="-40.8" font-family="Times,serif" font-size="14.00" fill="#000000">q1</text>
</g>
<!-- start&#45;&gt;q1 -->
<g id="edge1" class="edge">
<title>start&#45;&gt;q1</title>
<path fill="none" stroke="#000000" d="M54.2637,-45C62.7209,-45 72.1012,-45 80.7873,-45"/>
<polygon fill="#000000" stroke="#000000" points="80.9294,-48.5001 90.9294,-45 80.9293,-41.5001 80.9294,-48.5001"/>
</g>
<!-- q2 -->
<g id="node6" class="node">
<title>q2</title>
<ellipse fill="none" stroke="#000000" cx="213.295" cy="-45" rx="20.8568" ry="20.8568"/>
<ellipse fill="none" stroke="#000000" cx="213.295" cy="-45" rx="24.8884" ry="24.8884"/>
<text text-anchor="middle" x="213.295" y="-40.8" font-family="Times,serif" font-size="14.00" fill="#000000">q2</text>
</g>
<!-- q1&#45;&gt;q2 -->
<g id="edge2" class="edge">
<title>q1&#45;&gt;q2</title>
<path fill="none" stroke="#000000" d="M132.7454,-45C145.8742,-45 163.096,-45 178.2443,-45"/>
<polygon fill="#000000" stroke="#000000" points="178.3246,-48.5001 188.3245,-45 178.3245,-41.5001 178.3246,-48.5001"/>
<text text-anchor="middle" x="160.4942" y="-49.2" font-family="Times,serif" font-size="14.00" fill="#000000">b, c</text>
</g>
<!-- q3 -->
<g id="node3" class="node">
<title>q3</title>
<ellipse fill="none" stroke="#000000" cx="300.8965" cy="-124" rx="20.8887" ry="20.8887"/>
<text text-anchor="middle" x="300.8965" y="-119.8" font-family="Times,serif" font-size="14.00" fill="#000000">q3</text>
</g>
<!-- q4 -->
<g id="node4" class="node">
<title>q4</title>
<ellipse fill="none" stroke="#000000" cx="385.2834" cy="-146" rx="20.8887" ry="20.8887"/>
<text text-anchor="middle" x="385.2834" y="-141.8" font-family="Times,serif" font-size="14.00" fill="#000000">q4</text>
</g>
<!-- q3&#45;&gt;q4 -->
<g id="edge6" class="edge">
<title>q3&#45;&gt;q4</title>
<path fill="none" stroke="#000000" d="M319.2951,-134.1509C325.5599,-137.1714 332.7189,-140.1621 339.5899,-142 344.3402,-143.2706 349.4574,-144.161 354.4882,-144.7807"/>
<polygon fill="#000000" stroke="#000000" points="354.2688,-148.2752 364.5478,-145.7074 354.911,-141.3047 354.2688,-148.2752"/>
<text text-anchor="middle" x="343.0899" y="-147.2" font-family="Times,serif" font-size="14.00" fill="#000000">b</text>
</g>
<!-- q4&#45;&gt;q3 -->
<g id="edge7" class="edge">
<title>q4&#45;&gt;q3</title>
<path fill="none" stroke="#000000" d="M368.9814,-132.6208C362.4324,-128.0634 354.5534,-123.533 346.5899,-121.2 341.7895,-119.7937 336.5877,-119.2481 331.472,-119.225"/>
<polygon fill="#000000" stroke="#000000" points="331.0347,-115.744 321.2482,-119.8031 331.4299,-122.7329 331.0347,-115.744"/>
<text text-anchor="middle" x="343.0899" y="-125.2" font-family="Times,serif" font-size="14.00" fill="#000000">a</text>
</g>
<!-- q5 -->
<g id="node7" class="node">
<title>q5</title>
<ellipse fill="none" stroke="#000000" cx="472.8849" cy="-91" rx="20.8568" ry="20.8568"/>
<ellipse fill="none" stroke="#000000" cx="472.8849" cy="-91" rx="24.8884" ry="24.8884"/>
<text text-anchor="middle" x="472.8849" y="-86.8" font-family="Times,serif" font-size="14.00" fill="#000000">q5</text>
</g>
<!-- q4&#45;&gt;q5 -->
<g id="edge8" class="edge">
<title>q4&#45;&gt;q5</title>
<path fill="none" stroke="#000000" d="M403.0108,-134.8699C414.4659,-127.6779 429.6618,-118.1373 442.9564,-109.7904"/>
<polygon fill="#000000" stroke="#000000" points="445.1791,-112.5276 451.7872,-104.2461 441.4569,-106.5992 445.1791,-112.5276"/>
<text text-anchor="middle" x="427.0841" y="-124.2" font-family="Times,serif" font-size="14.00" fill="#000000">c</text>
</g>
<!-- q6 -->
<g id="node5" class="node">
<title>q6</title>
<ellipse fill="none" stroke="#000000" cx="561.2718" cy="-49" rx="20.8887" ry="20.8887"/>
<text text-anchor="middle" x="561.2718" y="-44.8" font-family="Times,serif" font-size="14.00" fill="#000000">q6</text>
</g>
<!-- q7 -->
<g id="node8" class="node">
<title>q7</title>
<ellipse fill="none" stroke="#000000" cx="649.6587" cy="-97" rx="20.8568" ry="20.8568"/>
<ellipse fill="none" stroke="#000000" cx="649.6587" cy="-97" rx="24.8884" ry="24.8884"/>
<text text-anchor="middle" x="649.6587" y="-92.8" font-family="Times,serif" font-size="14.00" fill="#000000">q7</text>
</g>
<!-- q6&#45;&gt;q7 -->
<g id="edge12" class="edge">
<title>q6&#45;&gt;q7</title>
<path fill="none" stroke="#000000" d="M579.5856,-58.9456C590.8971,-65.0885 605.701,-73.128 618.7862,-80.2342"/>
<polygon fill="#000000" stroke="#000000" points="617.4779,-83.5065 627.936,-85.2031 620.8186,-77.355 617.4779,-83.5065"/>
<text text-anchor="middle" x="603.4652" y="-77.2" font-family="Times,serif" font-size="14.00" fill="#000000">a</text>
</g>
<!-- q2&#45;&gt;q3 -->
<g id="edge3" class="edge">
<title>q2&#45;&gt;q3</title>
<path fill="none" stroke="#000000" d="M231.873,-61.7539C245.2639,-73.83 263.4261,-90.2088 277.7589,-103.1343"/>
<polygon fill="#000000" stroke="#000000" points="275.5027,-105.8126 285.273,-109.9105 280.1907,-100.6142 275.5027,-105.8126"/>
<text text-anchor="middle" x="259.0957" y="-91.2" font-family="Times,serif" font-size="14.00" fill="#000000">a</text>
</g>
<!-- q2&#45;&gt;q6 -->
<g id="edge5" class="edge">
<title>q2&#45;&gt;q6</title>
<path fill="none" stroke="#000000" d="M232.0536,-28.754C248.8977,-15.8643 274.9077,0 300.8965,0 300.8965,0 300.8965,0 472.8849,0 497.3879,0 521.461,-14.5827 538.281,-27.8374"/>
<polygon fill="#000000" stroke="#000000" points="536.4504,-30.8668 546.3794,-34.5634 540.9228,-25.4818 536.4504,-30.8668"/>
<text text-anchor="middle" x="385.2834" y="-4.2" font-family="Times,serif" font-size="14.00" fill="#000000">b</text>
</g>
<!-- q2&#45;&gt;q5 -->
<g id="edge4" class="edge">
<title>q2&#45;&gt;q5</title>
<path fill="none" stroke="#000000" d="M237.7165,-49.3276C284.1,-57.5468 385.0563,-75.4365 438.3468,-84.8798"/>
<polygon fill="#000000" stroke="#000000" points="437.8817,-88.3518 448.3391,-86.6504 439.1032,-81.4592 437.8817,-88.3518"/>
<text text-anchor="middle" x="343.0899" y="-73.2" font-family="Times,serif" font-size="14.00" fill="#000000">c</text>
</g>
<!-- q5&#45;&gt;q3 -->
<g id="edge10" class="edge">
<title>q5&#45;&gt;q3</title>
<path fill="none" stroke="#000000" d="M448.0608,-90.8097C425.9088,-91.1272 392.721,-92.8077 364.5899,-99.2 352.6296,-101.9178 339.9444,-106.4837 329.0693,-110.9623"/>
<polygon fill="#000000" stroke="#000000" points="327.4751,-107.8376 319.6636,-114.9953 330.2337,-114.2712 327.4751,-107.8376"/>
<text text-anchor="middle" x="385.2834" y="-103.2" font-family="Times,serif" font-size="14.00" fill="#000000">a</text>
</g>
<!-- q5&#45;&gt;q6 -->
<g id="edge11" class="edge">
<title>q5&#45;&gt;q6</title>
<path fill="none" stroke="#000000" d="M495.1886,-80.4016C506.7296,-74.9176 520.9351,-68.1673 533.2141,-62.3325"/>
<polygon fill="#000000" stroke="#000000" points="535.031,-65.3443 542.561,-57.8911 532.0266,-59.0218 535.031,-65.3443"/>
<text text-anchor="middle" x="519.0783" y="-74.2" font-family="Times,serif" font-size="14.00" fill="#000000">b</text>
</g>
<!-- q5&#45;&gt;q5 -->
<g id="edge9" class="edge">
<title>q5&#45;&gt;q5</title>
<path fill="none" stroke="#000000" d="M464.7336,-114.7081C464.0662,-124.9362 466.7833,-133.6935 472.8849,-133.6935 476.7937,-133.6935 479.3135,-130.0995 480.4444,-124.8272"/>
<polygon fill="#000000" stroke="#000000" points="483.9463,-124.8954 481.0362,-114.7081 476.9582,-124.4866 483.9463,-124.8954"/>
<text text-anchor="middle" x="472.8849" y="-137.8935" font-family="Times,serif" font-size="14.00" fill="#000000">c</text>
</g>
<!-- q7&#45;&gt;q3 -->
<g id="edge15" class="edge">
<title>q7&#45;&gt;q3</title>
<path fill="none" stroke="#000000" d="M640.9311,-120.2111C628.2422,-149.4725 601.7084,-196 561.2718,-196 385.2834,-196 385.2834,-196 385.2834,-196 356.2994,-196 332.2288,-171.1157 317.3119,-150.6056"/>
<polygon fill="#000000" stroke="#000000" points="320.0511,-148.4126 311.4917,-142.1686 314.2891,-152.3875 320.0511,-148.4126"/>
<text text-anchor="middle" x="472.8849" y="-200.2" font-family="Times,serif" font-size="14.00" fill="#000000">a</text>
</g>
<!-- q7&#45;&gt;q6 -->
<g id="edge13" class="edge">
<title>q7&#45;&gt;q6</title>
<path fill="none" stroke="#000000" d="M636.4759,-76.0546C629.0992,-66.3128 618.9682,-55.6867 606.9652,-50.2 602.4228,-48.1236 597.3521,-46.9956 592.2874,-46.4753"/>
<polygon fill="#000000" stroke="#000000" points="592.177,-42.9701 582.071,-46.1513 591.955,-49.9666 592.177,-42.9701"/>
<text text-anchor="middle" x="603.4652" y="-55.2" font-family="Times,serif" font-size="14.00" fill="#000000">b</text>
</g>
<!-- q7&#45;&gt;q5 -->
<g id="edge14" class="edge">
<title>q7&#45;&gt;q5</title>
<path fill="none" stroke="#000000" d="M624.8332,-96.1574C594.3603,-95.1231 542.489,-93.3625 507.9552,-92.1903"/>
<polygon fill="#000000" stroke="#000000" points="507.9503,-88.6883 497.8373,-91.8469 507.7128,-95.6842 507.9503,-88.6883"/>
<text text-anchor="middle" x="561.2718" y="-98.2" font-family="Times,serif" font-size="14.00" fill="#000000">c</text>
</g>
</g>
</svg>
