<?xml version="1.0" encoding="UTF-8" standalone="no"?>
<!DOCTYPE svg PUBLIC "-//W3C//DTD SVG 1.1//EN"
 "http://www.w3.org/Graphics/SVG/1.1/DTD/svg11.dtd">
<!-- Generated by graphviz version 2.40.1 (20161225.0304)
 -->
<!-- Title: G Pages: 1 -->
<svg width="648pt" height="176pt"
 viewBox="0.00 0.00 647.86 176.01" xmlns="http://www.w3.org/2000/svg" xmlns:xlink="http://www.w3.org/1999/xlink">
<g id="graph0" class="graph" transform="scale(1 1) rotate(0) translate(4 172.0084)">
<title>G</title>
<polygon fill="#ffffff" stroke="transparent" points="-4,4 -4,-172.0084 643.8566,-172.0084 643.8566,4 -4,4"/>
<!-- start -->
<g id="node1" class="node">
<title>start</title>
<text text-anchor="middle" x="27" y="-63.5615" font-family="Times,serif" font-size="14.00" fill="#000000">start</text>
</g>
<!-- q1 -->
<g id="node2" class="node">
<title>q1</title>
<ellipse fill="none" stroke="#000000" cx="111.6935" cy="-67.7615" rx="20.8887" ry="20.8887"/>
<text text-anchor="middle" x="111.6935" y="-63.5615" font-family="Times,serif" font-size="14.00" fill="#000000">q1</text>
</g>
<!-- start&#45;&gt;q1 -->
<g id="edge1" class="edge">
<title>start&#45;&gt;q1</title>
<path fill="none" stroke="#000000" d="M54.2637,-67.7615C62.7209,-67.7615 72.1012,-67.7615 80.7873,-67.7615"/>
<polygon fill="#000000" stroke="#000000" points="80.9294,-71.2616 90.9294,-67.7615 80.9293,-64.2616 80.9294,-71.2616"/>
</g>
<!-- {q3, q6, q10} -->
<g id="node4" class="node">
<title>{q3, q6, q10}</title>
<ellipse fill="none" stroke="#000000" cx="242.363" cy="-67.7615" rx="63.5379" ry="63.5379"/>
<ellipse fill="none" stroke="#000000" cx="242.363" cy="-67.7615" rx="67.5238" ry="67.5238"/>
<text text-anchor="middle" x="242.363" y="-63.5615" font-family="Times,serif" font-size="14.00" fill="#000000">{q3, q6, q10}</text>
</g>
<!-- q1&#45;&gt;{q3, q6, q10} -->
<g id="edge2" class="edge">
<title>q1&#45;&gt;{q3, q6, q10}</title>
<path fill="none" stroke="#000000" d="M132.3984,-67.7615C141.4501,-67.7615 152.6909,-67.7615 164.4991,-67.7615"/>
<polygon fill="#000000" stroke="#000000" points="164.5158,-71.2616 174.5158,-67.7615 164.5157,-64.2616 164.5158,-71.2616"/>
<text text-anchor="middle" x="153.4942" y="-71.9615" font-family="Times,serif" font-size="14.00" fill="#000000">a</text>
</g>
<!-- {q4q7} -->
<g id="node3" class="node">
<title>{q4q7}</title>
<ellipse fill="none" stroke="#000000" cx="392.7436" cy="-125.7615" rx="39.7386" ry="39.7386"/>
<text text-anchor="middle" x="392.7436" y="-121.5615" font-family="Times,serif" font-size="14.00" fill="#000000">{q4q7}</text>
</g>
<!-- {q3, q6, q8, q10} -->
<g id="node5" class="node">
<title>{q3, q6, q8, q10}</title>
<ellipse fill="none" stroke="#000000" cx="557.6097" cy="-85.7615" rx="78.4825" ry="78.4825"/>
<ellipse fill="none" stroke="#000000" cx="557.6097" cy="-85.7615" rx="82.4946" ry="82.4946"/>
<text text-anchor="middle" x="557.6097" y="-81.5615" font-family="Times,serif" font-size="14.00" fill="#000000">{q3, q6, q8, q10}</text>
</g>
<!-- {q4q7}&#45;&gt;{q3, q6, q8, q10} -->
<g id="edge4" class="edge">
<title>{q4q7}&#45;&gt;{q3, q6, q8, q10}</title>
<path fill="none" stroke="#000000" d="M431.3974,-116.3833C442.4704,-113.6967 455.028,-110.65 467.8239,-107.5454"/>
<polygon fill="#000000" stroke="#000000" points="468.7419,-110.9243 477.6347,-105.1651 467.0914,-104.1217 468.7419,-110.9243"/>
<text text-anchor="middle" x="453.8628" y="-114.9615" font-family="Times,serif" font-size="14.00" fill="#000000">a</text>
</g>
<!-- {q3, q6, q10}&#45;&gt;{q4q7} -->
<g id="edge3" class="edge">
<title>{q3, q6, q10}&#45;&gt;{q4q7}</title>
<path fill="none" stroke="#000000" d="M305.7021,-92.1906C319.2626,-97.4207 333.3507,-102.8543 346.1418,-107.7877"/>
<polygon fill="#000000" stroke="#000000" points="345.0506,-111.1181 355.6402,-111.4512 347.5696,-104.5871 345.0506,-111.1181"/>
<text text-anchor="middle" x="331.6245" y="-105.9615" font-family="Times,serif" font-size="14.00" fill="#000000">b</text>
</g>
<!-- {q3, q6, q8, q10}&#45;&gt;{q4q7} -->
<g id="edge5" class="edge">
<title>{q3, q6, q8, q10}&#45;&gt;{q4q7}</title>
<path fill="none" stroke="#000000" d="M475.1781,-83.7035C466.6919,-84.8289 458.284,-86.519 450.3628,-88.9615 444.408,-90.7977 438.4723,-93.4284 432.7983,-96.4506"/>
<polygon fill="#000000" stroke="#000000" points="431.0355,-93.4269 424.1323,-101.4641 434.5409,-99.486 431.0355,-93.4269"/>
<text text-anchor="middle" x="453.8628" y="-92.9615" font-family="Times,serif" font-size="14.00" fill="#000000">b</text>
</g>
<!-- {q3, q6, q8, q10}&#45;&gt;{q3, q6, q10} -->
<g id="edge6" class="edge">
<title>{q3, q6, q8, q10}&#45;&gt;{q3, q6, q10}</title>
<path fill="none" stroke="#000000" d="M477.4701,-66.7407C462.5585,-63.9188 447.0502,-61.4585 432.3628,-59.9615 397.3273,-56.3904 388.3197,-58.7238 353.1245,-59.9615 342.4308,-60.3376 331.1672,-60.9173 320.0835,-61.5946"/>
<polygon fill="#000000" stroke="#000000" points="319.7328,-58.1098 309.9766,-62.241 320.1797,-65.0955 319.7328,-58.1098"/>
<text text-anchor="middle" x="392.7436" y="-64.9615" font-family="Times,serif" font-size="14.00" fill="#000000">a</text>
</g>
</g>
</svg>
