<?xml version="1.0" encoding="UTF-8" standalone="no"?>
<!DOCTYPE svg PUBLIC "-//W3C//DTD SVG 1.1//EN"
 "http://www.w3.org/Graphics/SVG/1.1/DTD/svg11.dtd">
<!-- Generated by graphviz version 2.40.1 (20161225.0304)
 -->
<!-- Title: G Pages: 1 -->
<svg width="491pt" height="189pt"
 viewBox="0.00 0.00 491.24 189.43" xmlns="http://www.w3.org/2000/svg" xmlns:xlink="http://www.w3.org/1999/xlink">
<g id="graph0" class="graph" transform="scale(1 1) rotate(0) translate(4 185.4265)">
<title>G</title>
<polygon fill="#ffffff" stroke="transparent" points="-4,4 -4,-185.4265 487.2414,-185.4265 487.2414,4 -4,4"/>
<!-- start -->
<g id="node1" class="node">
<title>start</title>
<text text-anchor="middle" x="27" y="-79.4935" font-family="Times,serif" font-size="14.00" fill="#000000">start</text>
</g>
<!-- q1 -->
<g id="node2" class="node">
<title>q1</title>
<ellipse fill="none" stroke="#000000" cx="111.6935" cy="-83.6935" rx="20.8887" ry="20.8887"/>
<text text-anchor="middle" x="111.6935" y="-79.4935" font-family="Times,serif" font-size="14.00" fill="#000000">q1</text>
</g>
<!-- start&#45;&gt;q1 -->
<g id="edge1" class="edge">
<title>start&#45;&gt;q1</title>
<path fill="none" stroke="#000000" d="M54.2637,-83.6935C62.7209,-83.6935 72.1012,-83.6935 80.7873,-83.6935"/>
<polygon fill="#000000" stroke="#000000" points="80.9294,-87.1936 90.9294,-83.6935 80.9293,-80.1936 80.9294,-87.1936"/>
</g>
<!-- {q2, q5, q7} -->
<g id="node6" class="node">
<title>{q2, q5, q7}</title>
<ellipse fill="none" stroke="#000000" cx="251.5345" cy="-83.6935" rx="58.8704" ry="58.8704"/>
<ellipse fill="none" stroke="#000000" cx="251.5345" cy="-83.6935" rx="62.8661" ry="62.8661"/>
<text text-anchor="middle" x="251.5345" y="-79.4935" font-family="Times,serif" font-size="14.00" fill="#000000">{q2, q5, q7}</text>
</g>
<!-- q1&#45;&gt;{q2, q5, q7} -->
<g id="edge2" class="edge">
<title>q1&#45;&gt;{q2, q5, q7}</title>
<path fill="none" stroke="#000000" d="M132.6291,-83.6935C144.9331,-83.6935 161.3041,-83.6935 177.9526,-83.6935"/>
<polygon fill="#000000" stroke="#000000" points="178.3207,-87.1935 188.3207,-83.6935 178.3207,-80.1935 178.3207,-87.1935"/>
<text text-anchor="middle" x="160.4942" y="-87.8935" font-family="Times,serif" font-size="14.00" fill="#000000">b, c</text>
</g>
<!-- q4 -->
<g id="node3" class="node">
<title>q4</title>
<ellipse fill="none" stroke="#000000" cx="462.5479" cy="-60.6935" rx="20.8887" ry="20.8887"/>
<text text-anchor="middle" x="462.5479" y="-56.4935" font-family="Times,serif" font-size="14.00" fill="#000000">q4</text>
</g>
<!-- q3 -->
<g id="node4" class="node">
<title>q3</title>
<ellipse fill="none" stroke="#000000" cx="378.161" cy="-20.6935" rx="20.8887" ry="20.8887"/>
<text text-anchor="middle" x="378.161" y="-16.4935" font-family="Times,serif" font-size="14.00" fill="#000000">q3</text>
</g>
<!-- q4&#45;&gt;q3 -->
<g id="edge8" class="edge">
<title>q4&#45;&gt;q3</title>
<path fill="none" stroke="#000000" d="M451.2567,-42.7305C444.52,-33.7641 435.0906,-23.8036 423.8545,-18.8935 419.1895,-16.8549 413.9946,-15.9506 408.8279,-15.7401"/>
<polygon fill="#000000" stroke="#000000" points="408.2983,-12.2579 398.441,-16.1417 408.5688,-19.2526 408.2983,-12.2579"/>
<text text-anchor="middle" x="420.3545" y="-23.8935" font-family="Times,serif" font-size="14.00" fill="#000000">a</text>
</g>
<!-- q4&#45;&gt;{q2, q5, q7} -->
<g id="edge9" class="edge">
<title>q4&#45;&gt;{q2, q5, q7}</title>
<path fill="none" stroke="#000000" d="M448.5421,-75.9477C436.6365,-87.7059 418.4028,-103.0441 398.8545,-109.6935 373.6747,-118.2583 345.0659,-115.8104 319.8007,-109.7899"/>
<polygon fill="#000000" stroke="#000000" points="320.4912,-106.353 309.932,-107.2209 318.7277,-113.1273 320.4912,-106.353"/>
<text text-anchor="middle" x="378.161" y="-118.8935" font-family="Times,serif" font-size="14.00" fill="#000000">c</text>
</g>
<!-- q3&#45;&gt;q4 -->
<g id="edge7" class="edge">
<title>q3&#45;&gt;q4</title>
<path fill="none" stroke="#000000" d="M396.8892,-29.5707C407.8471,-34.7649 421.9011,-41.4266 434.193,-47.253"/>
<polygon fill="#000000" stroke="#000000" points="433.0449,-50.582 443.5803,-51.7027 436.0432,-44.2567 433.0449,-50.582"/>
<text text-anchor="middle" x="420.3545" y="-46.8935" font-family="Times,serif" font-size="14.00" fill="#000000">b</text>
</g>
<!-- q6 -->
<g id="node5" class="node">
<title>q6</title>
<ellipse fill="none" stroke="#000000" cx="378.161" cy="-79.6935" rx="20.8887" ry="20.8887"/>
<text text-anchor="middle" x="378.161" y="-75.4935" font-family="Times,serif" font-size="14.00" fill="#000000">q6</text>
</g>
<!-- q6&#45;&gt;{q2, q5, q7} -->
<g id="edge6" class="edge">
<title>q6&#45;&gt;{q2, q5, q7}</title>
<path fill="none" stroke="#000000" d="M360.2884,-68.9246C353.9425,-65.6742 346.6004,-62.5345 339.4675,-60.8935 333.2141,-59.4547 326.7272,-59.0492 320.2391,-59.3849"/>
<polygon fill="#000000" stroke="#000000" points="319.6429,-55.9288 310.0757,-60.4805 320.3933,-62.8885 319.6429,-55.9288"/>
<text text-anchor="middle" x="335.9675" y="-65.8935" font-family="Times,serif" font-size="14.00" fill="#000000">a</text>
</g>
<!-- {q2, q5, q7}&#45;&gt;q3 -->
<g id="edge3" class="edge">
<title>{q2, q5, q7}&#45;&gt;q3</title>
<path fill="none" stroke="#000000" d="M306.8907,-52.8067C315.3871,-48.3368 324.1113,-43.8983 332.4675,-39.8935 337.9357,-37.2728 343.8557,-34.6401 349.5645,-32.2005"/>
<polygon fill="#000000" stroke="#000000" points="350.9812,-35.4018 358.8556,-28.3134 348.2795,-28.9442 350.9812,-35.4018"/>
<text text-anchor="middle" x="335.9675" y="-44.8935" font-family="Times,serif" font-size="14.00" fill="#000000">a</text>
</g>
<!-- {q2, q5, q7}&#45;&gt;q6 -->
<g id="edge5" class="edge">
<title>{q2, q5, q7}&#45;&gt;q6</title>
<path fill="none" stroke="#000000" d="M314.4649,-82.4828C322.8722,-82.2564 331.38,-81.9944 339.4675,-81.6935 341.9967,-81.5993 344.6182,-81.4897 347.2503,-81.3711"/>
<polygon fill="#000000" stroke="#000000" points="347.4633,-84.865 357.2815,-80.8834 347.1233,-77.8733 347.4633,-84.865"/>
<text text-anchor="middle" x="335.9675" y="-85.8935" font-family="Times,serif" font-size="14.00" fill="#000000">b</text>
</g>
<!-- {q2, q5, q7}&#45;&gt;{q2, q5, q7} -->
<g id="edge4" class="edge">
<title>{q2, q5, q7}&#45;&gt;{q2, q5, q7}</title>
<path fill="none" stroke="#000000" d="M236.593,-145.0999C238.4329,-156.5574 243.4134,-164.6265 251.5345,-164.6265 256.9909,-164.6265 261.0295,-160.984 263.6505,-155.1186"/>
<polygon fill="#000000" stroke="#000000" points="267.1302,-155.6745 266.4761,-145.0999 260.393,-153.7744 267.1302,-155.6745"/>
<text text-anchor="middle" x="251.5345" y="-168.8265" font-family="Times,serif" font-size="14.00" fill="#000000">c</text>
</g>
</g>
</svg>
