<?xml version="1.0" encoding="UTF-8" standalone="no"?>
<!DOCTYPE svg PUBLIC "-//W3C//DTD SVG 1.1//EN"
 "http://www.w3.org/Graphics/SVG/1.1/DTD/svg11.dtd">
<!-- Generated by graphviz version 2.40.1 (20161225.0304)
 -->
<!-- Title: G Pages: 1 -->
<svg width="591pt" height="172pt"
 viewBox="0.00 0.00 590.69 172.49" xmlns="http://www.w3.org/2000/svg" xmlns:xlink="http://www.w3.org/1999/xlink">
<g id="graph0" class="graph" transform="scale(1 1) rotate(0) translate(4 168.4938)">
<title>G</title>
<polygon fill="#ffffff" stroke="transparent" points="-4,4 -4,-168.4938 586.6913,-168.4938 586.6913,4 -4,4"/>
<!-- start -->
<g id="node1" class="node">
<title>start</title>
<text text-anchor="middle" x="27" y="-78.0469" font-family="Times,serif" font-size="14.00" fill="#000000">start</text>
</g>
<!-- q1 -->
<g id="node2" class="node">
<title>q1</title>
<ellipse fill="none" stroke="#000000" cx="111.6935" cy="-82.2469" rx="20.8887" ry="20.8887"/>
<text text-anchor="middle" x="111.6935" y="-78.0469" font-family="Times,serif" font-size="14.00" fill="#000000">q1</text>
</g>
<!-- start&#45;&gt;q1 -->
<g id="edge1" class="edge">
<title>start&#45;&gt;q1</title>
<path fill="none" stroke="#000000" d="M54.2637,-82.2469C62.7209,-82.2469 72.1012,-82.2469 80.7873,-82.2469"/>
<polygon fill="#000000" stroke="#000000" points="80.9294,-85.747 90.9294,-82.2469 80.9293,-78.747 80.9294,-85.747"/>
</g>
<!-- {q2q8, q6q8, q6} -->
<g id="node4" class="node">
<title>{q2q8, q6q8, q6}</title>
<ellipse fill="none" stroke="#000000" cx="256.8484" cy="-82.2469" rx="78.4825" ry="78.4825"/>
<ellipse fill="none" stroke="#000000" cx="256.8484" cy="-82.2469" rx="82.4946" ry="82.4946"/>
<text text-anchor="middle" x="256.8484" y="-78.0469" font-family="Times,serif" font-size="14.00" fill="#000000">{q2q8, q6q8, q6}</text>
</g>
<!-- q1&#45;&gt;{q2q8, q6q8, q6} -->
<g id="edge2" class="edge">
<title>q1&#45;&gt;{q2q8, q6q8, q6}</title>
<path fill="none" stroke="#000000" d="M132.4906,-82.2469C141.371,-82.2469 152.4093,-82.2469 164.2161,-82.2469"/>
<polygon fill="#000000" stroke="#000000" points="164.284,-85.747 174.284,-82.2469 164.284,-78.747 164.284,-85.747"/>
<text text-anchor="middle" x="153.4942" y="-86.4469" font-family="Times,serif" font-size="14.00" fill="#000000">a</text>
</g>
<!-- q4 -->
<g id="node3" class="node">
<title>q4</title>
<ellipse fill="none" stroke="#000000" cx="561.9979" cy="-82.2469" rx="20.8887" ry="20.8887"/>
<text text-anchor="middle" x="561.9979" y="-78.0469" font-family="Times,serif" font-size="14.00" fill="#000000">q4</text>
</g>
<!-- {q3q7, q5} -->
<g id="node5" class="node">
<title>{q3q7, q5}</title>
<ellipse fill="none" stroke="#000000" cx="440.1999" cy="-82.2469" rx="54.2021" ry="54.2021"/>
<ellipse fill="none" stroke="#000000" cx="440.1999" cy="-82.2469" rx="58.2093" ry="58.2093"/>
<text text-anchor="middle" x="440.1999" y="-78.0469" font-family="Times,serif" font-size="14.00" fill="#000000">{q3q7, q5}</text>
</g>
<!-- q4&#45;&gt;{q3q7, q5} -->
<g id="edge6" class="edge">
<title>q4&#45;&gt;{q3q7, q5}</title>
<path fill="none" stroke="#000000" d="M544.6434,-70.563C538.2224,-66.8899 530.7004,-63.3088 523.3044,-61.4469 517.1522,-59.8981 510.7428,-59.4429 504.3329,-59.76"/>
<polygon fill="#000000" stroke="#000000" points="503.8612,-56.2905 494.2965,-60.8475 504.6154,-63.2497 503.8612,-56.2905"/>
<text text-anchor="middle" x="519.8044" y="-65.4469" font-family="Times,serif" font-size="14.00" fill="#000000">b</text>
</g>
<!-- {q2q8, q6q8, q6}&#45;&gt;{q3q7, q5} -->
<g id="edge3" class="edge">
<title>{q2q8, q6q8, q6}&#45;&gt;{q3q7, q5}</title>
<path fill="none" stroke="#000000" d="M339.1384,-82.2469C350.1043,-82.2469 361.2512,-82.2469 371.9426,-82.2469"/>
<polygon fill="#000000" stroke="#000000" points="372.0329,-85.747 382.0328,-82.2469 372.0328,-78.747 372.0329,-85.747"/>
<text text-anchor="middle" x="360.5953" y="-86.4469" font-family="Times,serif" font-size="14.00" fill="#000000">a</text>
</g>
<!-- {q3q7, q5}&#45;&gt;q4 -->
<g id="edge5" class="edge">
<title>{q3q7, q5}&#45;&gt;q4</title>
<path fill="none" stroke="#000000" d="M498.6017,-82.2469C509.8105,-82.2469 521.1323,-82.2469 531.0448,-82.2469"/>
<polygon fill="#000000" stroke="#000000" points="531.1758,-85.747 541.1758,-82.2469 531.1757,-78.747 531.1758,-85.747"/>
<text text-anchor="middle" x="519.8044" y="-86.4469" font-family="Times,serif" font-size="14.00" fill="#000000">a</text>
</g>
<!-- {q3q7, q5}&#45;&gt;{q2q8, q6q8, q6} -->
<g id="edge4" class="edge">
<title>{q3q7, q5}&#45;&gt;{q2q8, q6q8, q6}</title>
<path fill="none" stroke="#000000" d="M384.4402,-65.1922C377.641,-63.6525 370.7473,-62.3396 364.0953,-61.4469 358.315,-60.6712 352.376,-60.382 346.3997,-60.4736"/>
<polygon fill="#000000" stroke="#000000" points="346.1446,-56.9818 336.3285,-60.9685 346.4882,-63.9733 346.1446,-56.9818"/>
<text text-anchor="middle" x="360.5953" y="-65.4469" font-family="Times,serif" font-size="14.00" fill="#000000">b</text>
</g>
</g>
</svg>
