<?xml version="1.0" encoding="UTF-8" standalone="no"?>
<!DOCTYPE svg PUBLIC "-//W3C//DTD SVG 1.1//EN"
 "http://www.w3.org/Graphics/SVG/1.1/DTD/svg11.dtd">
<!-- Generated by graphviz version 2.40.1 (20161225.0304)
 -->
<!-- Title: G Pages: 1 -->
<svg width="344pt" height="117pt"
 viewBox="0.00 0.00 343.59 117.19" xmlns="http://www.w3.org/2000/svg" xmlns:xlink="http://www.w3.org/1999/xlink">
<g id="graph0" class="graph" transform="scale(1 1) rotate(0) translate(4 113.1869)">
<title>G</title>
<polygon fill="#ffffff" stroke="transparent" points="-4,4 -4,-113.1869 339.5899,-113.1869 339.5899,4 -4,4"/>
<!-- start -->
<g id="node1" class="node">
<title>start</title>
<text text-anchor="middle" x="27" y="-45.4935" font-family="Times,serif" font-size="14.00" fill="#000000">start</text>
</g>
<!-- q1 -->
<g id="node4" class="node">
<title>q1</title>
<ellipse fill="none" stroke="#000000" cx="115.6935" cy="-49.6935" rx="20.8568" ry="20.8568"/>
<ellipse fill="none" stroke="#000000" cx="115.6935" cy="-49.6935" rx="24.8884" ry="24.8884"/>
<text text-anchor="middle" x="115.6935" y="-45.4935" font-family="Times,serif" font-size="14.00" fill="#000000">q1</text>
</g>
<!-- start&#45;&gt;q1 -->
<g id="edge1" class="edge">
<title>start&#45;&gt;q1</title>
<path fill="none" stroke="#000000" d="M54.0929,-49.6935C62.5145,-49.6935 71.9196,-49.6935 80.7952,-49.6935"/>
<polygon fill="#000000" stroke="#000000" points="80.8805,-53.1936 90.8805,-49.6935 80.8805,-46.1936 80.8805,-53.1936"/>
</g>
<!-- q2 -->
<g id="node2" class="node">
<title>q2</title>
<ellipse fill="none" stroke="#000000" cx="217.295" cy="-20.6935" rx="20.8887" ry="20.8887"/>
<text text-anchor="middle" x="217.295" y="-16.4935" font-family="Times,serif" font-size="14.00" fill="#000000">q2</text>
</g>
<!-- q3 -->
<g id="node3" class="node">
<title>q3</title>
<ellipse fill="none" stroke="#000000" cx="314.8965" cy="-49.6935" rx="20.8887" ry="20.8887"/>
<text text-anchor="middle" x="314.8965" y="-45.4935" font-family="Times,serif" font-size="14.00" fill="#000000">q3</text>
</g>
<!-- q2&#45;&gt;q3 -->
<g id="edge4" class="edge">
<title>q2&#45;&gt;q3</title>
<path fill="none" stroke="#000000" d="M237.5181,-26.7023C251.3506,-30.8123 269.9128,-36.3276 285.3893,-40.9261"/>
<polygon fill="#000000" stroke="#000000" points="284.4505,-44.2983 295.0332,-43.7916 286.4443,-37.5883 284.4505,-44.2983"/>
<text text-anchor="middle" x="266.0957" y="-42.8935" font-family="Times,serif" font-size="14.00" fill="#000000">a, b</text>
</g>
<!-- q3&#45;&gt;q1 -->
<g id="edge5" class="edge">
<title>q3&#45;&gt;q1</title>
<path fill="none" stroke="#000000" d="M295.0015,-55.8612C289.019,-57.4362 282.3976,-58.9059 276.203,-59.6935 224.2565,-66.2975 210.4407,-64.3901 158.3869,-58.6935 155.6573,-58.3947 152.8446,-58.0001 150.0272,-57.5428"/>
<polygon fill="#000000" stroke="#000000" points="150.4138,-54.0549 139.943,-55.6712 149.1364,-60.9374 150.4138,-54.0549"/>
<text text-anchor="middle" x="217.295" y="-67.8935" font-family="Times,serif" font-size="14.00" fill="#000000">b</text>
</g>
<!-- q1&#45;&gt;q2 -->
<g id="edge3" class="edge">
<title>q1&#45;&gt;q2</title>
<path fill="none" stroke="#000000" d="M139.5145,-42.8942C153.8112,-38.8136 172.124,-33.5866 187.3887,-29.2296"/>
<polygon fill="#000000" stroke="#000000" points="188.7274,-32.4873 197.3827,-26.377 186.8061,-25.7561 188.7274,-32.4873"/>
<text text-anchor="middle" x="168.4942" y="-41.8935" font-family="Times,serif" font-size="14.00" fill="#000000">a, b</text>
</g>
<!-- q1&#45;&gt;q1 -->
<g id="edge2" class="edge">
<title>q1&#45;&gt;q1</title>
<path fill="none" stroke="#000000" d="M107.9127,-73.4015C107.2756,-83.6297 109.8692,-92.3869 115.6935,-92.3869 119.4246,-92.3869 121.8299,-88.7929 122.9093,-83.5207"/>
<polygon fill="#000000" stroke="#000000" points="126.4113,-83.5811 123.4742,-73.4015 119.4222,-83.1908 126.4113,-83.5811"/>
<text text-anchor="middle" x="115.6935" y="-96.5869" font-family="Times,serif" font-size="14.00" fill="#000000">a</text>
</g>
</g>
</svg>
