<?xml version="1.0" encoding="UTF-8" standalone="no"?>
<!DOCTYPE svg PUBLIC "-//W3C//DTD SVG 1.1//EN"
 "http://www.w3.org/Graphics/SVG/1.1/DTD/svg11.dtd">
<!-- Generated by graphviz version 2.40.1 (20161225.0304)
 -->
<!-- Title: G Pages: 1 -->
<svg width="744pt" height="171pt"
 viewBox="0.00 0.00 743.95 171.49" xmlns="http://www.w3.org/2000/svg" xmlns:xlink="http://www.w3.org/1999/xlink">
<g id="graph0" class="graph" transform="scale(1 1) rotate(0) translate(4 167.4935)">
<title>G</title>
<polygon fill="#ffffff" stroke="transparent" points="-4,4 -4,-167.4935 739.9536,-167.4935 739.9536,4 -4,4"/>
<!-- start -->
<g id="node1" class="node">
<title>start</title>
<text text-anchor="middle" x="27" y="-16.4935" font-family="Times,serif" font-size="14.00" fill="#000000">start</text>
</g>
<!-- q1 -->
<g id="node2" class="node">
<title>q1</title>
<ellipse fill="none" stroke="#000000" cx="111.6935" cy="-20.6935" rx="20.8887" ry="20.8887"/>
<text text-anchor="middle" x="111.6935" y="-16.4935" font-family="Times,serif" font-size="14.00" fill="#000000">q1</text>
</g>
<!-- start&#45;&gt;q1 -->
<g id="edge1" class="edge">
<title>start&#45;&gt;q1</title>
<path fill="none" stroke="#000000" d="M54.2637,-20.6935C62.7209,-20.6935 72.1012,-20.6935 80.7873,-20.6935"/>
<polygon fill="#000000" stroke="#000000" points="80.9294,-24.1936 90.9294,-20.6935 80.9293,-17.1936 80.9294,-24.1936"/>
</g>
<!-- q2 -->
<g id="node3" class="node">
<title>q2</title>
<ellipse fill="none" stroke="#000000" cx="195.295" cy="-53.6935" rx="20.8887" ry="20.8887"/>
<text text-anchor="middle" x="195.295" y="-49.4935" font-family="Times,serif" font-size="14.00" fill="#000000">q2</text>
</g>
<!-- q1&#45;&gt;q2 -->
<g id="edge2" class="edge">
<title>q1&#45;&gt;q2</title>
<path fill="none" stroke="#000000" d="M131.0835,-28.3473C141.635,-32.5123 154.8915,-37.745 166.6154,-42.3728"/>
<polygon fill="#000000" stroke="#000000" points="165.4234,-45.665 176.0101,-46.0812 167.9936,-39.1539 165.4234,-45.665"/>
<text text-anchor="middle" x="153.4942" y="-41.8935" font-family="Times,serif" font-size="14.00" fill="#000000">a</text>
</g>
<!-- q8 -->
<g id="node9" class="node">
<title>q8</title>
<ellipse fill="none" stroke="#000000" cx="711.2602" cy="-40.6935" rx="20.8568" ry="20.8568"/>
<ellipse fill="none" stroke="#000000" cx="711.2602" cy="-40.6935" rx="24.8884" ry="24.8884"/>
<text text-anchor="middle" x="711.2602" y="-36.4935" font-family="Times,serif" font-size="14.00" fill="#000000">q8</text>
</g>
<!-- q1&#45;&gt;q8 -->
<g id="edge13" class="edge">
<title>q1&#45;&gt;q8</title>
<path fill="none" stroke="#000000" d="M131.7598,-14.6445C148.5679,-10.1136 173.2764,-4.6935 195.295,-4.6935 195.295,-4.6935 195.295,-4.6935 622.8733,-4.6935 643.3722,-4.6935 664.7011,-13.1015 681.2702,-21.7907"/>
<polygon fill="#000000" stroke="#000000" points="679.9916,-25.0841 690.4335,-26.8779 683.3893,-18.9639 679.9916,-25.0841"/>
<text text-anchor="middle" x="404.6914" y="-8.8935" font-family="Times,serif" font-size="14.00" fill="#000000">a</text>
</g>
<!-- q3 -->
<g id="node4" class="node">
<title>q3</title>
<ellipse fill="none" stroke="#000000" cx="278.8965" cy="-68.6935" rx="20.8887" ry="20.8887"/>
<text text-anchor="middle" x="278.8965" y="-64.4935" font-family="Times,serif" font-size="14.00" fill="#000000">q3</text>
</g>
<!-- q2&#45;&gt;q3 -->
<g id="edge3" class="edge">
<title>q2&#45;&gt;q3</title>
<path fill="none" stroke="#000000" d="M215.9605,-57.4013C225.7807,-59.1633 237.7129,-61.3042 248.5363,-63.2462"/>
<polygon fill="#000000" stroke="#000000" points="248.0077,-66.7071 258.4686,-65.0282 249.2439,-59.8171 248.0077,-66.7071"/>
<text text-anchor="middle" x="237.0957" y="-64.8935" font-family="Times,serif" font-size="14.00" fill="#000000">a</text>
</g>
<!-- q4 -->
<g id="node5" class="node">
<title>q4</title>
<ellipse fill="none" stroke="#000000" cx="362.498" cy="-133.6935" rx="20.8887" ry="20.8887"/>
<text text-anchor="middle" x="362.498" y="-129.4935" font-family="Times,serif" font-size="14.00" fill="#000000">q4</text>
</g>
<!-- q3&#45;&gt;q4 -->
<g id="edge4" class="edge">
<title>q3&#45;&gt;q4</title>
<path fill="none" stroke="#000000" d="M295.4134,-81.5354C307.5508,-90.9722 324.2438,-103.9509 337.9413,-114.6007"/>
<polygon fill="#000000" stroke="#000000" points="335.9724,-117.5033 346.0153,-120.8782 340.269,-111.977 335.9724,-117.5033"/>
<text text-anchor="middle" x="320.6972" y="-106.8935" font-family="Times,serif" font-size="14.00" fill="#000000">a</text>
</g>
<!-- q6 -->
<g id="node8" class="node">
<title>q6</title>
<ellipse fill="none" stroke="#000000" cx="535.2718" cy="-83.6935" rx="20.8568" ry="20.8568"/>
<ellipse fill="none" stroke="#000000" cx="535.2718" cy="-83.6935" rx="24.8884" ry="24.8884"/>
<text text-anchor="middle" x="535.2718" y="-79.4935" font-family="Times,serif" font-size="14.00" fill="#000000">q6</text>
</g>
<!-- q3&#45;&gt;q6 -->
<g id="edge9" class="edge">
<title>q3&#45;&gt;q6</title>
<path fill="none" stroke="#000000" d="M299.8767,-69.921C343.8259,-72.4923 445.9592,-78.468 500.108,-81.6361"/>
<polygon fill="#000000" stroke="#000000" points="500.0792,-85.1403 510.2666,-82.2304 500.4881,-78.1522 500.0792,-85.1403"/>
<text text-anchor="middle" x="404.6914" y="-79.8935" font-family="Times,serif" font-size="14.00" fill="#000000">b</text>
</g>
<!-- q5 -->
<g id="node6" class="node">
<title>q5</title>
<ellipse fill="none" stroke="#000000" cx="446.8849" cy="-133.6935" rx="20.8887" ry="20.8887"/>
<text text-anchor="middle" x="446.8849" y="-129.4935" font-family="Times,serif" font-size="14.00" fill="#000000">q5</text>
</g>
<!-- q4&#45;&gt;q5 -->
<g id="edge5" class="edge">
<title>q4&#45;&gt;q5</title>
<path fill="none" stroke="#000000" d="M381.3955,-142.9839C389.5423,-145.963 399.2378,-148.1573 408.1914,-146.6935 411.308,-146.1839 414.512,-145.4578 417.6786,-144.6061"/>
<polygon fill="#000000" stroke="#000000" points="418.9918,-147.8637 427.5133,-141.5681 416.9258,-141.1755 418.9918,-147.8637"/>
<text text-anchor="middle" x="404.6914" y="-150.8935" font-family="Times,serif" font-size="14.00" fill="#000000">b</text>
</g>
<!-- q5&#45;&gt;q4 -->
<g id="edge6" class="edge">
<title>q5&#45;&gt;q4</title>
<path fill="none" stroke="#000000" d="M426.5173,-128.7985C420.6394,-127.601 414.192,-126.4922 408.1914,-125.8935 403.1515,-125.3905 397.8279,-125.6063 392.6647,-126.2179"/>
<polygon fill="#000000" stroke="#000000" points="391.7214,-122.8268 382.4341,-127.9255 392.8739,-129.7313 391.7214,-122.8268"/>
<text text-anchor="middle" x="404.6914" y="-129.8935" font-family="Times,serif" font-size="14.00" fill="#000000">a</text>
</g>
<!-- q5&#45;&gt;q6 -->
<g id="edge7" class="edge">
<title>q5&#45;&gt;q6</title>
<path fill="none" stroke="#000000" d="M465.1987,-123.3334C476.62,-116.8725 491.6019,-108.3973 504.7799,-100.9425"/>
<polygon fill="#000000" stroke="#000000" points="506.5686,-103.952 513.5491,-95.9819 503.1219,-97.8593 506.5686,-103.952"/>
<text text-anchor="middle" x="489.0783" y="-114.8935" font-family="Times,serif" font-size="14.00" fill="#000000">b</text>
</g>
<!-- q7 -->
<g id="node7" class="node">
<title>q7</title>
<ellipse fill="none" stroke="#000000" cx="622.8733" cy="-80.6935" rx="20.8887" ry="20.8887"/>
<text text-anchor="middle" x="622.8733" y="-76.4935" font-family="Times,serif" font-size="14.00" fill="#000000">q7</text>
</g>
<!-- q7&#45;&gt;q8 -->
<g id="edge11" class="edge">
<title>q7&#45;&gt;q8</title>
<path fill="none" stroke="#000000" d="M642.0519,-72.014C652.9759,-67.0704 666.9403,-60.7507 679.4607,-55.0845"/>
<polygon fill="#000000" stroke="#000000" points="681.012,-58.2242 688.6794,-50.9125 678.1259,-51.8469 681.012,-58.2242"/>
<text text-anchor="middle" x="665.0667" y="-66.8935" font-family="Times,serif" font-size="14.00" fill="#000000">b</text>
</g>
<!-- q6&#45;&gt;q3 -->
<g id="edge8" class="edge">
<title>q6&#45;&gt;q3</title>
<path fill="none" stroke="#000000" d="M511.8466,-74.468C486.6932,-65.1007 445.328,-51.2374 408.1914,-45.8935 373.7348,-40.9352 334.3727,-50.0079 308.2219,-58.1349"/>
<polygon fill="#000000" stroke="#000000" points="306.9726,-54.8608 298.5486,-61.2863 309.141,-61.5165 306.9726,-54.8608"/>
<text text-anchor="middle" x="404.6914" y="-49.8935" font-family="Times,serif" font-size="14.00" fill="#000000">a</text>
</g>
<!-- q6&#45;&gt;q7 -->
<g id="edge10" class="edge">
<title>q6&#45;&gt;q7</title>
<path fill="none" stroke="#000000" d="M560.1405,-82.8418C570.0802,-82.5014 581.6306,-82.1058 592.0912,-81.7476"/>
<polygon fill="#000000" stroke="#000000" points="592.2143,-85.2455 602.0887,-81.4052 591.9747,-78.2496 592.2143,-85.2455"/>
<text text-anchor="middle" x="581.0725" y="-85.8935" font-family="Times,serif" font-size="14.00" fill="#000000">a</text>
</g>
<!-- q8&#45;&gt;q7 -->
<g id="edge12" class="edge">
<title>q8&#45;&gt;q7</title>
<path fill="none" stroke="#000000" d="M686.716,-36.3396C678.4385,-35.889 669.3354,-36.5543 661.5667,-39.8935 653.7471,-43.2545 646.7657,-49.0586 640.9585,-55.2519"/>
<polygon fill="#000000" stroke="#000000" points="638.0577,-53.2609 634.2562,-63.1502 643.3951,-57.79 638.0577,-53.2609"/>
<text text-anchor="middle" x="665.0667" y="-43.8935" font-family="Times,serif" font-size="14.00" fill="#000000">a</text>
</g>
</g>
</svg>
