<?xml version="1.0" encoding="UTF-8" standalone="no"?>
<!DOCTYPE svg PUBLIC "-//W3C//DTD SVG 1.1//EN"
 "http://www.w3.org/Graphics/SVG/1.1/DTD/svg11.dtd">
<!-- Generated by graphviz version 2.40.1 (20161225.0304)
 -->
<!-- Title: G Pages: 1 -->
<svg width="711pt" height="177pt"
 viewBox="0.00 0.00 711.16 176.69" xmlns="http://www.w3.org/2000/svg" xmlns:xlink="http://www.w3.org/1999/xlink">
<g id="graph0" class="graph" transform="scale(1 1) rotate(0) translate(4 172.6935)">
<title>G</title>
<polygon fill="#ffffff" stroke="transparent" points="-4,4 -4,-172.6935 707.1632,-172.6935 707.1632,4 -4,4"/>
<!-- start -->
<g id="node1" class="node">
<title>start</title>
<text text-anchor="middle" x="27" y="-51.8" font-family="Times,serif" font-size="14.00" fill="#000000">start</text>
</g>
<!-- q1 -->
<g id="node2" class="node">
<title>q1</title>
<ellipse fill="none" stroke="#000000" cx="111.6935" cy="-56" rx="20.8887" ry="20.8887"/>
<text text-anchor="middle" x="111.6935" y="-51.8" font-family="Times,serif" font-size="14.00" fill="#000000">q1</text>
</g>
<!-- start&#45;&gt;q1 -->
<g id="edge1" class="edge">
<title>start&#45;&gt;q1</title>
<path fill="none" stroke="#000000" d="M54.2637,-56C62.7209,-56 72.1012,-56 80.7873,-56"/>
<polygon fill="#000000" stroke="#000000" points="80.9294,-59.5001 90.9294,-56 80.9293,-52.5001 80.9294,-59.5001"/>
</g>
<!-- q2 -->
<g id="node3" class="node">
<title>q2</title>
<ellipse fill="none" stroke="#000000" cx="200.741" cy="-148" rx="20.8887" ry="20.8887"/>
<text text-anchor="middle" x="200.741" y="-143.8" font-family="Times,serif" font-size="14.00" fill="#000000">q2</text>
</g>
<!-- q1&#45;&gt;q2 -->
<g id="edge2" class="edge">
<title>q1&#45;&gt;q2</title>
<path fill="none" stroke="#000000" d="M126.3978,-71.1919C140.7913,-86.0626 162.8795,-108.8832 179.2429,-125.7892"/>
<polygon fill="#000000" stroke="#000000" points="176.8404,-128.3395 186.3102,-133.0908 181.8702,-123.4711 176.8404,-128.3395"/>
<text text-anchor="middle" x="156.2172" y="-111.2" font-family="Times,serif" font-size="14.00" fill="#000000">λ</text>
</g>
<!-- q5 -->
<g id="node6" class="node">
<title>q5</title>
<ellipse fill="none" stroke="#000000" cx="200.741" cy="-89" rx="20.8887" ry="20.8887"/>
<text text-anchor="middle" x="200.741" y="-84.8" font-family="Times,serif" font-size="14.00" fill="#000000">q5</text>
</g>
<!-- q1&#45;&gt;q5 -->
<g id="edge6" class="edge">
<title>q1&#45;&gt;q5</title>
<path fill="none" stroke="#000000" d="M131.456,-63.3238C143.2152,-67.6816 158.3533,-73.2916 171.4785,-78.1556"/>
<polygon fill="#000000" stroke="#000000" points="170.4406,-81.5036 181.0337,-81.6967 172.8731,-74.9398 170.4406,-81.5036"/>
<text text-anchor="middle" x="156.2172" y="-78.2" font-family="Times,serif" font-size="14.00" fill="#000000">λ</text>
</g>
<!-- q9 -->
<g id="node10" class="node">
<title>q9</title>
<ellipse fill="none" stroke="#000000" cx="581.2113" cy="-64" rx="20.8887" ry="20.8887"/>
<text text-anchor="middle" x="581.2113" y="-59.8" font-family="Times,serif" font-size="14.00" fill="#000000">q9</text>
</g>
<!-- q1&#45;&gt;q9 -->
<g id="edge13" class="edge">
<title>q1&#45;&gt;q9</title>
<path fill="none" stroke="#000000" d="M131.6681,-50.3139C149.5955,-45.7151 176.7089,-40 200.741,-40 200.741,-40 200.741,-40 492.1638,-40 512.9097,-40 535.4666,-46.1481 552.6868,-52.2208"/>
<polygon fill="#000000" stroke="#000000" points="551.5622,-55.5367 562.1551,-55.7406 554.0014,-48.9754 551.5622,-55.5367"/>
<text text-anchor="middle" x="328.8662" y="-44.2" font-family="Times,serif" font-size="14.00" fill="#000000">λ</text>
</g>
<!-- q3 -->
<g id="node4" class="node">
<title>q3</title>
<ellipse fill="none" stroke="#000000" cx="284.3425" cy="-148" rx="20.8887" ry="20.8887"/>
<text text-anchor="middle" x="284.3425" y="-143.8" font-family="Times,serif" font-size="14.00" fill="#000000">q3</text>
</g>
<!-- q2&#45;&gt;q3 -->
<g id="edge3" class="edge">
<title>q2&#45;&gt;q3</title>
<path fill="none" stroke="#000000" d="M221.8371,-148C231.4147,-148 242.9324,-148 253.4573,-148"/>
<polygon fill="#000000" stroke="#000000" points="253.5427,-151.5001 263.5426,-148 253.5426,-144.5001 253.5427,-151.5001"/>
<text text-anchor="middle" x="242.5417" y="-152.2" font-family="Times,serif" font-size="14.00" fill="#000000">a</text>
</g>
<!-- q4 -->
<g id="node5" class="node">
<title>q4</title>
<ellipse fill="none" stroke="#000000" cx="432.7769" cy="-147" rx="20.8887" ry="20.8887"/>
<text text-anchor="middle" x="432.7769" y="-142.8" font-family="Times,serif" font-size="14.00" fill="#000000">q4</text>
</g>
<!-- q3&#45;&gt;q4 -->
<g id="edge4" class="edge">
<title>q3&#45;&gt;q4</title>
<path fill="none" stroke="#000000" d="M305.2947,-147.8588C330.3796,-147.6898 372.6231,-147.4053 401.5572,-147.2103"/>
<polygon fill="#000000" stroke="#000000" points="401.9551,-150.7078 411.9313,-147.1404 401.9079,-143.708 401.9551,-150.7078"/>
<text text-anchor="middle" x="328.8662" y="-151.2" font-family="Times,serif" font-size="14.00" fill="#000000">b</text>
</g>
<!-- q4&#45;&gt;q9 -->
<g id="edge5" class="edge">
<title>q4&#45;&gt;q9</title>
<path fill="none" stroke="#000000" d="M452.8303,-141.6868C469.4257,-136.8949 493.354,-129.0601 512.8572,-119 527.2121,-111.5955 529.8425,-108.0112 542.5178,-98 547.6758,-93.9261 553.0616,-89.3889 558.1191,-84.9901"/>
<polygon fill="#000000" stroke="#000000" points="560.5394,-87.5221 565.7166,-78.2783 555.9049,-82.276 560.5394,-87.5221"/>
<text text-anchor="middle" x="492.1638" y="-139.2" font-family="Times,serif" font-size="14.00" fill="#000000">λ</text>
</g>
<!-- q6 -->
<g id="node7" class="node">
<title>q6</title>
<ellipse fill="none" stroke="#000000" cx="284.3425" cy="-89" rx="20.8887" ry="20.8887"/>
<text text-anchor="middle" x="284.3425" y="-84.8" font-family="Times,serif" font-size="14.00" fill="#000000">q6</text>
</g>
<!-- q5&#45;&gt;q6 -->
<g id="edge7" class="edge">
<title>q5&#45;&gt;q6</title>
<path fill="none" stroke="#000000" d="M221.8371,-89C231.4147,-89 242.9324,-89 253.4573,-89"/>
<polygon fill="#000000" stroke="#000000" points="253.5427,-92.5001 263.5426,-89 253.5426,-85.5001 253.5427,-92.5001"/>
<text text-anchor="middle" x="242.5417" y="-93.2" font-family="Times,serif" font-size="14.00" fill="#000000">a</text>
</g>
<!-- q7 -->
<g id="node8" class="node">
<title>q7</title>
<ellipse fill="none" stroke="#000000" cx="373.39" cy="-89" rx="20.8887" ry="20.8887"/>
<text text-anchor="middle" x="373.39" y="-84.8" font-family="Times,serif" font-size="14.00" fill="#000000">q7</text>
</g>
<!-- q6&#45;&gt;q7 -->
<g id="edge8" class="edge">
<title>q6&#45;&gt;q7</title>
<path fill="none" stroke="#000000" d="M305.4455,-89C316.4243,-89 330.0592,-89 342.2269,-89"/>
<polygon fill="#000000" stroke="#000000" points="342.4385,-92.5001 352.4384,-89 342.4384,-85.5001 342.4385,-92.5001"/>
<text text-anchor="middle" x="328.8662" y="-93.2" font-family="Times,serif" font-size="14.00" fill="#000000">b</text>
</g>
<!-- q8 -->
<g id="node9" class="node">
<title>q8</title>
<ellipse fill="none" stroke="#000000" cx="492.1638" cy="-89" rx="20.8887" ry="20.8887"/>
<text text-anchor="middle" x="492.1638" y="-84.8" font-family="Times,serif" font-size="14.00" fill="#000000">q8</text>
</g>
<!-- q7&#45;&gt;q8 -->
<g id="edge9" class="edge">
<title>q7&#45;&gt;q8</title>
<path fill="none" stroke="#000000" d="M394.3509,-89C412.9237,-89 440.2837,-89 461.3478,-89"/>
<polygon fill="#000000" stroke="#000000" points="461.4124,-92.5001 471.4124,-89 461.4123,-85.5001 461.4124,-92.5001"/>
<text text-anchor="middle" x="432.7769" y="-93.2" font-family="Times,serif" font-size="14.00" fill="#000000">a</text>
</g>
<!-- q8&#45;&gt;q9 -->
<g id="edge10" class="edge">
<title>q8&#45;&gt;q9</title>
<path fill="none" stroke="#000000" d="M512.37,-83.3271C523.8692,-80.0987 538.49,-75.9939 551.2971,-72.3984"/>
<polygon fill="#000000" stroke="#000000" points="552.4033,-75.7232 561.085,-69.6504 550.5112,-68.9838 552.4033,-75.7232"/>
<text text-anchor="middle" x="536.6875" y="-81.2" font-family="Times,serif" font-size="14.00" fill="#000000">λ</text>
</g>
<!-- q9&#45;&gt;q1 -->
<g id="edge12" class="edge">
<title>q9&#45;&gt;q1</title>
<path fill="none" stroke="#000000" d="M568.7727,-47.1848C553.1772,-28.2227 524.5289,0 492.1638,0 200.741,0 200.741,0 200.741,0 174.5313,0 149.7224,-17.5997 132.9808,-33.0661"/>
<polygon fill="#000000" stroke="#000000" points="130.1678,-30.9196 125.4396,-40.4009 135.0484,-35.9376 130.1678,-30.9196"/>
<text text-anchor="middle" x="328.8662" y="-4.2" font-family="Times,serif" font-size="14.00" fill="#000000">λ</text>
</g>
<!-- q10 -->
<g id="node11" class="node">
<title>q10</title>
<ellipse fill="none" stroke="#000000" cx="673.6413" cy="-64" rx="25.5409" ry="25.5409"/>
<ellipse fill="none" stroke="#000000" cx="673.6413" cy="-64" rx="29.5439" ry="29.5439"/>
<text text-anchor="middle" x="673.6413" y="-59.8" font-family="Times,serif" font-size="14.00" fill="#000000">q10</text>
</g>
<!-- q9&#45;&gt;q10 -->
<g id="edge11" class="edge">
<title>q9&#45;&gt;q10</title>
<path fill="none" stroke="#000000" d="M602.1851,-64C611.5494,-64 622.9082,-64 633.7875,-64"/>
<polygon fill="#000000" stroke="#000000" points="633.9906,-67.5001 643.9906,-64 633.9905,-60.5001 633.9906,-67.5001"/>
<text text-anchor="middle" x="623.012" y="-68.2" font-family="Times,serif" font-size="14.00" fill="#000000">a</text>
</g>
</g>
</svg>
