<?xml version="1.0" encoding="UTF-8" standalone="no"?>
<!DOCTYPE svg PUBLIC "-//W3C//DTD SVG 1.1//EN"
 "http://www.w3.org/Graphics/SVG/1.1/DTD/svg11.dtd">
<!-- Generated by graphviz version 2.40.1 (20161225.0304)
 -->
<!-- Title: G Pages: 1 -->
<svg width="708pt" height="170pt"
 viewBox="0.00 0.00 708.45 170.22" xmlns="http://www.w3.org/2000/svg" xmlns:xlink="http://www.w3.org/1999/xlink">
<g id="graph0" class="graph" transform="scale(1 1) rotate(0) translate(4 166.2154)">
<title>G</title>
<polygon fill="#ffffff" stroke="transparent" points="-4,4 -4,-166.2154 704.4514,-166.2154 704.4514,4 -4,4"/>
<!-- start -->
<g id="node1" class="node">
<title>start</title>
<text text-anchor="middle" x="27" y="-60.3219" font-family="Times,serif" font-size="14.00" fill="#000000">start</text>
</g>
<!-- q1 -->
<g id="node2" class="node">
<title>q1</title>
<ellipse fill="none" stroke="#000000" cx="111.6935" cy="-64.5219" rx="20.8887" ry="20.8887"/>
<text text-anchor="middle" x="111.6935" y="-60.3219" font-family="Times,serif" font-size="14.00" fill="#000000">q1</text>
</g>
<!-- start&#45;&gt;q1 -->
<g id="edge1" class="edge">
<title>start&#45;&gt;q1</title>
<path fill="none" stroke="#000000" d="M54.2637,-64.5219C62.7209,-64.5219 72.1012,-64.5219 80.7873,-64.5219"/>
<polygon fill="#000000" stroke="#000000" points="80.9294,-68.022 90.9294,-64.5219 80.9293,-61.022 80.9294,-68.022"/>
</g>
<!-- q2 -->
<g id="node3" class="node">
<title>q2</title>
<ellipse fill="none" stroke="#000000" cx="209.295" cy="-64.5219" rx="20.8887" ry="20.8887"/>
<text text-anchor="middle" x="209.295" y="-60.3219" font-family="Times,serif" font-size="14.00" fill="#000000">q2</text>
</g>
<!-- q1&#45;&gt;q2 -->
<g id="edge2" class="edge">
<title>q1&#45;&gt;q2</title>
<path fill="none" stroke="#000000" d="M132.3922,-64.5219C145.6304,-64.5219 163.054,-64.5219 177.9685,-64.5219"/>
<polygon fill="#000000" stroke="#000000" points="178.2896,-68.022 188.2895,-64.5219 178.2895,-61.022 178.2896,-68.022"/>
<text text-anchor="middle" x="160.4942" y="-68.7219" font-family="Times,serif" font-size="14.00" fill="#000000">a, b</text>
</g>
<!-- q2&#45;&gt;q1 -->
<g id="edge3" class="edge">
<title>q2&#45;&gt;q1</title>
<path fill="none" stroke="#000000" d="M191.9405,-52.838C185.5195,-49.1649 177.9974,-45.5838 170.6015,-43.7219 161.8891,-41.5286 159.0993,-41.5286 150.3869,-43.7219 146.2267,-44.7692 142.0266,-46.3605 138.005,-48.2062"/>
<polygon fill="#000000" stroke="#000000" points="136.3228,-45.1357 129.0479,-52.838 139.5382,-51.3535 136.3228,-45.1357"/>
<text text-anchor="middle" x="160.4942" y="-48.7219" font-family="Times,serif" font-size="14.00" fill="#000000">a, b</text>
</g>
<!-- q3 -->
<g id="node4" class="node">
<title>q3</title>
<ellipse fill="none" stroke="#000000" cx="293.6819" cy="-94.5219" rx="20.8887" ry="20.8887"/>
<text text-anchor="middle" x="293.6819" y="-90.3219" font-family="Times,serif" font-size="14.00" fill="#000000">q3</text>
</g>
<!-- q2&#45;&gt;q3 -->
<g id="edge4" class="edge">
<title>q2&#45;&gt;q3</title>
<path fill="none" stroke="#000000" d="M228.8671,-71.4799C239.4418,-75.2393 252.7078,-79.9554 264.4791,-84.1402"/>
<polygon fill="#000000" stroke="#000000" points="263.3288,-87.4458 273.9235,-87.4977 265.6736,-80.8502 263.3288,-87.4458"/>
<text text-anchor="middle" x="251.4884" y="-84.7219" font-family="Times,serif" font-size="14.00" fill="#000000">a</text>
</g>
<!-- q4 -->
<g id="node5" class="node">
<title>q4</title>
<ellipse fill="none" stroke="#000000" cx="293.6819" cy="-35.5219" rx="20.8887" ry="20.8887"/>
<text text-anchor="middle" x="293.6819" y="-31.3219" font-family="Times,serif" font-size="14.00" fill="#000000">q4</text>
</g>
<!-- q2&#45;&gt;q4 -->
<g id="edge9" class="edge">
<title>q2&#45;&gt;q4</title>
<path fill="none" stroke="#000000" d="M228.9506,-57.4198C235.0429,-55.2432 241.7849,-52.8597 247.9884,-50.7219 253.094,-48.9625 258.5322,-47.1233 263.8101,-45.3565"/>
<polygon fill="#000000" stroke="#000000" points="265.2489,-48.5664 273.6324,-42.0882 263.0389,-41.9245 265.2489,-48.5664"/>
<text text-anchor="middle" x="251.4884" y="-55.7219" font-family="Times,serif" font-size="14.00" fill="#000000">b</text>
</g>
<!-- q5 -->
<g id="node6" class="node">
<title>q5</title>
<ellipse fill="none" stroke="#000000" cx="378.0688" cy="-141.5219" rx="20.8887" ry="20.8887"/>
<text text-anchor="middle" x="378.0688" y="-137.3219" font-family="Times,serif" font-size="14.00" fill="#000000">q5</text>
</g>
<!-- q3&#45;&gt;q5 -->
<g id="edge5" class="edge">
<title>q3&#45;&gt;q5</title>
<path fill="none" stroke="#000000" d="M311.9926,-104.7202C323.3825,-111.064 338.2346,-119.3359 350.9722,-126.4303"/>
<polygon fill="#000000" stroke="#000000" points="349.3544,-129.5354 359.7938,-131.3435 352.7605,-123.42 349.3544,-129.5354"/>
<text text-anchor="middle" x="335.8753" y="-122.7219" font-family="Times,serif" font-size="14.00" fill="#000000">b</text>
</g>
<!-- q9 -->
<g id="node10" class="node">
<title>q9</title>
<ellipse fill="none" stroke="#000000" cx="555.6711" cy="-97.5219" rx="20.8887" ry="20.8887"/>
<text text-anchor="middle" x="555.6711" y="-93.3219" font-family="Times,serif" font-size="14.00" fill="#000000">q9</text>
</g>
<!-- q3&#45;&gt;q9 -->
<g id="edge8" class="edge">
<title>q3&#45;&gt;q9</title>
<path fill="none" stroke="#000000" d="M314.6787,-94.7624C360.6858,-95.2892 470.5783,-96.5475 524.606,-97.1662"/>
<polygon fill="#000000" stroke="#000000" points="524.8985,-100.6697 534.9379,-97.2845 524.9787,-93.6701 524.8985,-100.6697"/>
<text text-anchor="middle" x="420.2622" y="-100.7219" font-family="Times,serif" font-size="14.00" fill="#000000">a</text>
</g>
<!-- q6 -->
<g id="node7" class="node">
<title>q6</title>
<ellipse fill="none" stroke="#000000" cx="378.0688" cy="-40.5219" rx="20.8887" ry="20.8887"/>
<text text-anchor="middle" x="378.0688" y="-36.3219" font-family="Times,serif" font-size="14.00" fill="#000000">q6</text>
</g>
<!-- q4&#45;&gt;q6 -->
<g id="edge10" class="edge">
<title>q4&#45;&gt;q6</title>
<path fill="none" stroke="#000000" d="M314.5416,-36.7579C324.2786,-37.3348 336.0727,-38.0336 346.8424,-38.6717"/>
<polygon fill="#000000" stroke="#000000" points="346.967,-42.1852 357.1566,-39.2829 347.3811,-35.1974 346.967,-42.1852"/>
<text text-anchor="middle" x="335.8753" y="-42.7219" font-family="Times,serif" font-size="14.00" fill="#000000">a</text>
</g>
<!-- q10 -->
<g id="node11" class="node">
<title>q10</title>
<ellipse fill="none" stroke="#000000" cx="555.6711" cy="-29.5219" rx="25.5409" ry="25.5409"/>
<ellipse fill="none" stroke="#000000" cx="555.6711" cy="-29.5219" rx="29.5439" ry="29.5439"/>
<text text-anchor="middle" x="555.6711" y="-25.3219" font-family="Times,serif" font-size="14.00" fill="#000000">q10</text>
</g>
<!-- q4&#45;&gt;q10 -->
<g id="edge13" class="edge">
<title>q4&#45;&gt;q10</title>
<path fill="none" stroke="#000000" d="M312.3581,-26.0446C324.7672,-20.2928 341.618,-13.5036 357.3753,-10.5219 412.3001,-.1288 427.7078,-3.3799 483.1491,-10.5219 494.515,-11.9861 506.6413,-14.6906 517.6604,-17.6091"/>
<polygon fill="#000000" stroke="#000000" points="516.8432,-21.0146 527.4153,-20.32 518.7176,-14.2702 516.8432,-21.0146"/>
<text text-anchor="middle" x="420.2622" y="-8.7219" font-family="Times,serif" font-size="14.00" fill="#000000">b</text>
</g>
<!-- q7 -->
<g id="node8" class="node">
<title>q7</title>
<ellipse fill="none" stroke="#000000" cx="462.4557" cy="-141.5219" rx="20.8887" ry="20.8887"/>
<text text-anchor="middle" x="462.4557" y="-137.3219" font-family="Times,serif" font-size="14.00" fill="#000000">q7</text>
</g>
<!-- q5&#45;&gt;q7 -->
<g id="edge6" class="edge">
<title>q5&#45;&gt;q7</title>
<path fill="none" stroke="#000000" d="M398.9285,-141.5219C408.6655,-141.5219 420.4596,-141.5219 431.2293,-141.5219"/>
<polygon fill="#000000" stroke="#000000" points="431.5435,-145.022 441.5435,-141.5219 431.5435,-138.022 431.5435,-145.022"/>
<text text-anchor="middle" x="420.2622" y="-145.7219" font-family="Times,serif" font-size="14.00" fill="#000000">a</text>
</g>
<!-- q8 -->
<g id="node9" class="node">
<title>q8</title>
<ellipse fill="none" stroke="#000000" cx="462.4557" cy="-40.5219" rx="20.8887" ry="20.8887"/>
<text text-anchor="middle" x="462.4557" y="-36.3219" font-family="Times,serif" font-size="14.00" fill="#000000">q8</text>
</g>
<!-- q6&#45;&gt;q8 -->
<g id="edge11" class="edge">
<title>q6&#45;&gt;q8</title>
<path fill="none" stroke="#000000" d="M398.9285,-40.5219C408.6655,-40.5219 420.4596,-40.5219 431.2293,-40.5219"/>
<polygon fill="#000000" stroke="#000000" points="431.5435,-44.022 441.5435,-40.5219 431.5435,-37.022 431.5435,-44.022"/>
<text text-anchor="middle" x="420.2622" y="-44.7219" font-family="Times,serif" font-size="14.00" fill="#000000">b</text>
</g>
<!-- q7&#45;&gt;q9 -->
<g id="edge7" class="edge">
<title>q7&#45;&gt;q9</title>
<path fill="none" stroke="#000000" d="M481.3192,-132.6179C494.5857,-126.3558 512.5673,-117.868 527.5238,-110.8081"/>
<polygon fill="#000000" stroke="#000000" points="529.2864,-113.8465 536.8356,-106.4127 526.2984,-107.5163 529.2864,-113.8465"/>
<text text-anchor="middle" x="504.6491" y="-125.7219" font-family="Times,serif" font-size="14.00" fill="#000000">b</text>
</g>
<!-- q8&#45;&gt;q10 -->
<g id="edge12" class="edge">
<title>q8&#45;&gt;q10</title>
<path fill="none" stroke="#000000" d="M483.1432,-38.0807C492.8347,-36.937 504.7186,-35.5346 516.0405,-34.1986"/>
<polygon fill="#000000" stroke="#000000" points="516.6802,-37.6475 526.2011,-32.9996 515.8598,-30.6957 516.6802,-37.6475"/>
<text text-anchor="middle" x="504.6491" y="-40.7219" font-family="Times,serif" font-size="14.00" fill="#000000">a</text>
</g>
<!-- q11 -->
<g id="node12" class="node">
<title>q11</title>
<ellipse fill="none" stroke="#000000" cx="670.9295" cy="-63.5219" rx="25.5409" ry="25.5409"/>
<ellipse fill="none" stroke="#000000" cx="670.9295" cy="-63.5219" rx="29.5439" ry="29.5439"/>
<text text-anchor="middle" x="670.9295" y="-59.3219" font-family="Times,serif" font-size="14.00" fill="#000000">q11</text>
</g>
<!-- q9&#45;&gt;q11 -->
<g id="edge14" class="edge">
<title>q9&#45;&gt;q11</title>
<path fill="none" stroke="#000000" d="M575.7475,-91.5996C591.4555,-86.9659 613.7564,-80.3874 632.8237,-74.7627"/>
<polygon fill="#000000" stroke="#000000" points="633.8468,-78.1101 642.4479,-71.9237 631.8662,-71.3961 633.8468,-78.1101"/>
<text text-anchor="middle" x="613.3003" y="-87.7219" font-family="Times,serif" font-size="14.00" fill="#000000">a, b</text>
</g>
<!-- q10&#45;&gt;q11 -->
<g id="edge15" class="edge">
<title>q10&#45;&gt;q11</title>
<path fill="none" stroke="#000000" d="M584.1619,-37.9264C598.7079,-42.2173 616.615,-47.4997 632.3763,-52.1491"/>
<polygon fill="#000000" stroke="#000000" points="631.7853,-55.6238 642.3669,-55.0963 633.7658,-48.9099 631.7853,-55.6238"/>
<text text-anchor="middle" x="613.3003" y="-53.7219" font-family="Times,serif" font-size="14.00" fill="#000000">a, b</text>
</g>
<!-- q11&#45;&gt;q11 -->
<g id="edge16" class="edge">
<title>q11&#45;&gt;q11</title>
<path fill="none" stroke="#000000" d="M660.4705,-91.345C660.0057,-102.1026 663.492,-111.0439 670.9295,-111.0439 675.8104,-111.0439 678.9896,-107.1932 680.4672,-101.5055"/>
<polygon fill="#000000" stroke="#000000" points="683.9711,-101.6203 681.3885,-91.345 676.9997,-100.9881 683.9711,-101.6203"/>
<text text-anchor="middle" x="670.9295" y="-115.2439" font-family="Times,serif" font-size="14.00" fill="#000000">a, b</text>
</g>
</g>
</svg>
